solid OpenSCAD_Model
  facet normal -0.831469785936112 0.09647370982700429 -0.5471296175382678
    outer loop
      vertex 4.619397163391113 -15.104377746582031 -0.7203748822212219
      vertex 3.535533905029297 -1.276746153831482 3.36495041847229
      vertex 4.619397163391113 0.5013957619667053 2.031343936920166
    endloop
  endfacet
  facet normal -0.8314697663272393 0.09647371965612889 -0.5471296456046196
    outer loop
      vertex 3.535533905029297 -1.276746153831482 3.36495041847229
      vertex 4.619397163391113 -15.104377746582031 -0.7203748822212219
      vertex 3.535533905029297 -15.386054992675781 0.877098560333252
    endloop
  endfacet
  facet normal -0.9807852246176679 0.03387712753250515 -0.1921267378628413
    outer loop
      vertex 5 -14.772116661071777 -2.604722738265991
      vertex 4.619397163391113 0.5013957619667053 2.031343936920166
      vertex 5 2.5988564491271973 0.458248496055603
    endloop
  endfacet
  facet normal -0.980785226533178 0.03387712466986653 -0.1921267285891399
    outer loop
      vertex 4.619397163391113 0.5013957619667053 2.031343936920166
      vertex 5 -14.772116661071777 -2.604722738265991
      vertex 4.619397163391113 -15.104377746582031 -0.7203748822212219
    endloop
  endfacet
  facet normal 0.831469790322453 -0.0964737149427804 0.5471296099703205
    outer loop
      vertex -4.619397163391113 4.696317195892334 -1.11484694480896
      vertex -3.535533905029297 -14.158177375793457 -6.086544036865234
      vertex -3.535533905029297 6.474459171295166 -2.448453426361084
    endloop
  endfacet
  facet normal 0.8314697941881071 -0.09647371325019517 0.5471296043941564
    outer loop
      vertex -3.535533905029297 -14.158177375793457 -6.086544036865234
      vertex -4.619397163391113 4.696317195892334 -1.11484694480896
      vertex -4.619397163391113 -14.439854621887207 -4.489070415496826
    endloop
  endfacet
  facet normal 0.831469785936112 0.09647370982700428 -0.5471296175382677
    outer loop
      vertex -3.535533905029297 -1.276746153831482 3.36495041847229
      vertex -4.619397163391113 -15.104377746582031 -0.7203748822212219
      vertex -4.619397163391113 0.5013957619667053 2.031343936920166
    endloop
  endfacet
  facet normal 0.8314697663272393 0.09647371965612889 -0.5471296456046196
    outer loop
      vertex -4.619397163391113 -15.104377746582031 -0.7203748822212219
      vertex -3.535533905029297 -1.276746153831482 3.36495041847229
      vertex -3.535533905029297 -15.386054992675781 0.877098560333252
    endloop
  endfacet
  facet normal -0.19509060404178974 0.1703115716580665 -0.9658848920932395
    outer loop
      vertex 0 -2.882073163986206 4.56894588470459
      vertex 1.913416862487793 -15.57426643371582 1.944495439529419
      vertex 0 -15.64035701751709 2.3193161487579346
    endloop
  endfacet
  facet normal -0.19509060249649915 0.17031157194510113 -0.9658848923547472
    outer loop
      vertex 1.913416862487793 -15.57426643371582 1.944495439529419
      vertex 0 -2.882073163986206 4.56894588470459
      vertex 1.913416862487793 -2.4648618698120117 4.25603723526001
    endloop
  endfacet
  facet normal -0.831469790322453 -0.0964737149427804 0.5471296099703205
    outer loop
      vertex 3.535533905029297 -14.158177375793457 -6.086544036865234
      vertex 4.619397163391113 4.696317195892334 -1.11484694480896
      vertex 3.535533905029297 6.474459171295166 -2.448453426361084
    endloop
  endfacet
  facet normal -0.8314697941881071 -0.09647371325019517 0.5471296043941564
    outer loop
      vertex 4.619397163391113 4.696317195892334 -1.11484694480896
      vertex 3.535533905029297 -14.158177375793457 -6.086544036865234
      vertex 4.619397163391113 -14.439854621887207 -4.489070415496826
    endloop
  endfacet
  facet normal 2.339432657456654e-7 0.9848077375681787 0.1736482652541927
    outer loop
      vertex 0.9270505905151367 -15.267563819885254 0.20510071516036987
      vertex 0 -15.64035701751709 2.3193161487579346
      vertex 1.913416862487793 -15.57426643371582 1.944495439529419
    endloop
  endfacet
  facet normal -1.460981648005184e-7 0.9848077007134712 0.17364847426748267
    outer loop
      vertex 0.9270505905151367 -15.267563819885254 0.20510071516036987
      vertex 1.913416862487793 -15.57426643371582 1.944495439529419
      vertex 3.535533905029297 -15.386054992675781 0.877098560333252
    endloop
  endfacet
  facet normal 0 0.9848077551105054 0.17364816576689387
    outer loop
      vertex -0.9270505905151367 -15.267563819885254 0.20510071516036987
      vertex 0 -15.64035701751709 2.3193161487579346
      vertex 0.9270505905151367 -15.267563819885254 0.20510071516036987
    endloop
  endfacet
  facet normal -2.339432657456654e-7 0.9848077375681787 0.1736482652541927
    outer loop
      vertex 0 -15.64035701751709 2.3193161487579346
      vertex -0.9270505905151367 -15.267563819885254 0.20510071516036987
      vertex -1.913416862487793 -15.57426643371582 1.944495439529419
    endloop
  endfacet
  facet normal 1.3269548669664868e-7 0.9848077821884231 0.17364801220026035
    outer loop
      vertex 2.4270505905151367 -15.078319549560547 -0.8681567311286926
      vertex 3.535533905029297 -15.386054992675781 0.877098560333252
      vertex 4.619397163391113 -15.104377746582031 -0.7203748822212219
    endloop
  endfacet
  facet normal -5.388927043597752e-8 0.9848077619224422 0.17364812713446534
    outer loop
      vertex 3.535533905029297 -15.386054992675781 0.877098560333252
      vertex 2.4270505905151367 -15.078319549560547 -0.8681567311286926
      vertex 0.9270505905151367 -15.267563819885254 0.20510071516036987
    endloop
  endfacet
  facet normal 0 0.9848077782649255 0.173648034451592
    outer loop
      vertex 3 -14.772116661071777 -2.604722738265991
      vertex 4.619397163391113 -15.104377746582031 -0.7203748822212219
      vertex 5 -14.772116661071777 -2.604722738265991
    endloop
  endfacet
  facet normal 1.3921359095785505e-7 0.9848077987244214 0.17364791841983102
    outer loop
      vertex 4.619397163391113 -15.104377746582031 -0.7203748822212219
      vertex 3 -14.772116661071777 -2.604722738265991
      vertex 2.4270505905151367 -15.078319549560547 -0.8681567311286926
    endloop
  endfacet
  facet normal 0 0.9848076902130659 0.17364853381818654
    outer loop
      vertex 4.619397163391113 -14.439854621887207 -4.489070415496826
      vertex 3 -14.772116661071777 -2.604722738265991
      vertex 5 -14.772116661071777 -2.604722738265991
    endloop
  endfacet
  facet normal -1.0237139796470044e-7 0.9848077052581032 0.17364844849366887
    outer loop
      vertex 3 -14.772116661071777 -2.604722738265991
      vertex 4.619397163391113 -14.439854621887207 -4.489070415496826
      vertex 2.4270505905151367 -14.465912818908691 -4.3412885665893555
    endloop
  endfacet
  facet normal -1.3394841925956455e-7 0.9848077853670306 0.17364799417346172
    outer loop
      vertex 3.535533905029297 -14.158177375793457 -6.086544036865234
      vertex 2.4270505905151367 -14.465912818908691 -4.3412885665893555
      vertex 4.619397163391113 -14.439854621887207 -4.489070415496826
    endloop
  endfacet
  facet normal 1.6183369577525392e-7 0.9848076981699102 0.17364848869269414
    outer loop
      vertex 1.913416862487793 -13.969965934753418 -7.153940677642822
      vertex 0.9270505905151367 -14.276668548583984 -5.414546012878418
      vertex 3.535533905029297 -14.158177375793457 -6.086544036865234
    endloop
  endfacet
  facet normal 6.2641674291266e-8 0.9848077640143192 0.17364811527083457
    outer loop
      vertex 2.4270505905151367 -14.465912818908691 -4.3412885665893555
      vertex 3.535533905029297 -14.158177375793457 -6.086544036865234
      vertex 0.9270505905151367 -14.276668548583984 -5.414546012878418
    endloop
  endfacet
  facet normal 1.460981648005184e-7 0.9848077007134712 0.17364847426748267
    outer loop
      vertex -1.913416862487793 -15.57426643371582 1.944495439529419
      vertex -0.9270505905151367 -15.267563819885254 0.20510071516036987
      vertex -3.535533905029297 -15.386054992675781 0.877098560333252
    endloop
  endfacet
  facet normal 5.388927043597752e-8 0.9848077619224422 0.17364812713446534
    outer loop
      vertex -2.4270505905151367 -15.078319549560547 -0.8681567311286926
      vertex -3.535533905029297 -15.386054992675781 0.877098560333252
      vertex -0.9270505905151367 -15.267563819885254 0.20510071516036987
    endloop
  endfacet
  facet normal -1.3269548669664868e-7 0.9848077821884231 0.17364801220026035
    outer loop
      vertex -3.535533905029297 -15.386054992675781 0.877098560333252
      vertex -2.4270505905151367 -15.078319549560547 -0.8681567311286926
      vertex -4.619397163391113 -15.104377746582031 -0.7203748822212219
    endloop
  endfacet
  facet normal -1.3921359095785505e-7 0.9848077987244214 0.17364791841983102
    outer loop
      vertex -3 -14.772116661071777 -2.604722738265991
      vertex -4.619397163391113 -15.104377746582031 -0.7203748822212219
      vertex -2.4270505905151367 -15.078319549560547 -0.8681567311286926
    endloop
  endfacet
  facet normal 0 0.9848077782649255 0.173648034451592
    outer loop
      vertex -3 -14.772116661071777 -2.604722738265991
      vertex -5 -14.772116661071777 -2.604722738265991
      vertex -4.619397163391113 -15.104377746582031 -0.7203748822212219
    endloop
  endfacet
  facet normal 1.0237139796470044e-7 0.9848077052581032 0.17364844849366887
    outer loop
      vertex -4.619397163391113 -14.439854621887207 -4.489070415496826
      vertex -3 -14.772116661071777 -2.604722738265991
      vertex -2.4270505905151367 -14.465912818908691 -4.3412885665893555
    endloop
  endfacet
  facet normal 0 0.9848076902130659 0.17364853381818654
    outer loop
      vertex -3 -14.772116661071777 -2.604722738265991
      vertex -4.619397163391113 -14.439854621887207 -4.489070415496826
      vertex -5 -14.772116661071777 -2.604722738265991
    endloop
  endfacet
  facet normal -6.2641674291266e-8 0.9848077640143192 0.17364811527083457
    outer loop
      vertex -3.535533905029297 -14.158177375793457 -6.086544036865234
      vertex -2.4270505905151367 -14.465912818908691 -4.3412885665893555
      vertex -0.9270505905151367 -14.276668548583984 -5.414546012878418
    endloop
  endfacet
  facet normal 1.3394841925956455e-7 0.9848077853670306 0.17364799417346172
    outer loop
      vertex -2.4270505905151367 -14.465912818908691 -4.3412885665893555
      vertex -3.535533905029297 -14.158177375793457 -6.086544036865234
      vertex -4.619397163391113 -14.439854621887207 -4.489070415496826
    endloop
  endfacet
  facet normal -2.3499237123984165e-7 0.9848077366523226 0.17364827044826714
    outer loop
      vertex 0 -13.903875350952148 -7.528761386871338
      vertex 0.9270505905151367 -14.276668548583984 -5.414546012878418
      vertex 1.913416862487793 -13.969965934753418 -7.153940677642822
    endloop
  endfacet
  facet normal 0 0.984807754273318 0.1736481705148205
    outer loop
      vertex 0.9270505905151367 -14.276668548583984 -5.414546012878418
      vertex 0 -13.903875350952148 -7.528761386871338
      vertex -0.9270505905151367 -14.276668548583984 -5.414546012878418
    endloop
  endfacet
  facet normal -1.6183369577525392e-7 0.9848076981699102 0.17364848869269414
    outer loop
      vertex -0.9270505905151367 -14.276668548583984 -5.414546012878418
      vertex -1.913416862487793 -13.969965934753418 -7.153940677642822
      vertex -3.535533905029297 -14.158177375793457 -6.086544036865234
    endloop
  endfacet
  facet normal 2.3499237123984165e-7 0.9848077366523226 0.17364827044826714
    outer loop
      vertex -0.9270505905151367 -14.276668548583984 -5.414546012878418
      vertex 0 -13.903875350952148 -7.528761386871338
      vertex -1.913416862487793 -13.969965934753418 -7.153940677642822
    endloop
  endfacet
  facet normal 0.5555699990981329 0.14438321434924015 -0.8188378737676232
    outer loop
      vertex -3.535533905029297 -15.386054992675781 0.877098560333252
      vertex -1.913416862487793 -2.4648618698120117 4.25603723526001
      vertex -1.913416862487793 -15.57426643371582 1.944495439529419
    endloop
  endfacet
  facet normal 0.5555700136038003 0.14438321014822836 -0.8188378646664831
    outer loop
      vertex -1.913416862487793 -2.4648618698120117 4.25603723526001
      vertex -3.535533905029297 -15.386054992675781 0.877098560333252
      vertex -3.535533905029297 -1.276746153831482 3.36495041847229
    endloop
  endfacet
  facet normal 0.19509060404178974 0.1703115716580665 -0.9658848920932395
    outer loop
      vertex -1.913416862487793 -15.57426643371582 1.944495439529419
      vertex 0 -2.882073163986206 4.56894588470459
      vertex 0 -15.64035701751709 2.3193161487579346
    endloop
  endfacet
  facet normal 0.19509060249649915 0.17031157194510113 -0.9658848923547472
    outer loop
      vertex 0 -2.882073163986206 4.56894588470459
      vertex -1.913416862487793 -15.57426643371582 1.944495439529419
      vertex -1.913416862487793 -2.4648618698120117 4.25603723526001
    endloop
  endfacet
  facet normal 0.1950905066046907 -0.17031157232611496 0.965884911655903
    outer loop
      vertex -1.913416862487793 7.662574768066406 -3.3395402431488037
      vertex 0 -13.903875350952148 -7.528761386871338
      vertex 0 8.07978630065918 -3.6524486541748047
    endloop
  endfacet
  facet normal 0.19509060404179215 -0.17031156027132427 0.965884894101029
    outer loop
      vertex 0 -13.903875350952148 -7.528761386871338
      vertex -1.913416862487793 7.662574768066406 -3.3395402431488037
      vertex -1.913416862487793 -13.969965934753418 -7.153940677642822
    endloop
  endfacet
  facet normal -0.5555699990981329 0.14438321434924015 -0.8188378737676232
    outer loop
      vertex 1.913416862487793 -2.4648618698120117 4.25603723526001
      vertex 3.535533905029297 -15.386054992675781 0.877098560333252
      vertex 1.913416862487793 -15.57426643371582 1.944495439529419
    endloop
  endfacet
  facet normal -0.5555700136038003 0.14438321014822836 -0.8188378646664831
    outer loop
      vertex 3.535533905029297 -15.386054992675781 0.877098560333252
      vertex 1.913416862487793 -2.4648618698120117 4.25603723526001
      vertex 3.535533905029297 -1.276746153831482 3.36495041847229
    endloop
  endfacet
  facet normal -0.1950905066046907 -0.17031157232611496 0.965884911655903
    outer loop
      vertex 0 -13.903875350952148 -7.528761386871338
      vertex 1.913416862487793 7.662574768066406 -3.3395402431488037
      vertex 0 8.07978630065918 -3.6524486541748047
    endloop
  endfacet
  facet normal -0.19509060404179215 -0.17031156027132427 0.965884894101029
    outer loop
      vertex 1.913416862487793 7.662574768066406 -3.3395402431488037
      vertex 0 -13.903875350952148 -7.528761386871338
      vertex 1.913416862487793 -13.969965934753418 -7.153940677642822
    endloop
  endfacet
  facet normal 0.9807852246176679 0.03387712753250515 -0.1921267378628413
    outer loop
      vertex -4.619397163391113 0.5013957619667053 2.031343936920166
      vertex -5 -14.772116661071777 -2.604722738265991
      vertex -5 2.5988564491271973 0.458248496055603
    endloop
  endfacet
  facet normal 0.980785226533178 0.03387712466986653 -0.1921267285891399
    outer loop
      vertex -5 -14.772116661071777 -2.604722738265991
      vertex -4.619397163391113 0.5013957619667053 2.031343936920166
      vertex -4.619397163391113 -15.104377746582031 -0.7203748822212219
    endloop
  endfacet
  facet normal 0.5555700030458456 -0.14438320403989235 0.8188378729069717
    outer loop
      vertex -3.535533905029297 6.474459171295166 -2.448453426361084
      vertex -1.913416862487793 -13.969965934753418 -7.153940677642822
      vertex -1.913416862487793 7.662574768066406 -3.3395402431488037
    endloop
  endfacet
  facet normal 0.5555699158932524 -0.14438322376411464 0.8188379285608637
    outer loop
      vertex -1.913416862487793 -13.969965934753418 -7.153940677642822
      vertex -3.535533905029297 6.474459171295166 -2.448453426361084
      vertex -3.535533905029297 -14.158177375793457 -6.086544036865234
    endloop
  endfacet
  facet normal 0.9807852249587758 -0.033877127999434806 0.19212673603919217
    outer loop
      vertex -5 2.5988564491271973 0.458248496055603
      vertex -4.619397163391113 -14.439854621887207 -4.489070415496826
      vertex -4.619397163391113 4.696317195892334 -1.11484694480896
    endloop
  endfacet
  facet normal 0.9807852263284587 -0.03387712603900715 0.1921267293927932
    outer loop
      vertex -4.619397163391113 -14.439854621887207 -4.489070415496826
      vertex -5 2.5988564491271973 0.458248496055603
      vertex -5 -14.772116661071777 -2.604722738265991
    endloop
  endfacet
  facet normal -0.5555700030458456 -0.14438320403989235 0.8188378729069717
    outer loop
      vertex 1.913416862487793 -13.969965934753418 -7.153940677642822
      vertex 3.535533905029297 6.474459171295166 -2.448453426361084
      vertex 1.913416862487793 7.662574768066406 -3.3395402431488037
    endloop
  endfacet
  facet normal -0.5555699158932524 -0.14438322376411464 0.8188379285608637
    outer loop
      vertex 3.535533905029297 6.474459171295166 -2.448453426361084
      vertex 1.913416862487793 -13.969965934753418 -7.153940677642822
      vertex 3.535533905029297 -14.158177375793457 -6.086544036865234
    endloop
  endfacet
  facet normal -0.9807852249587758 -0.033877127999434806 0.19212673603919217
    outer loop
      vertex 4.619397163391113 -14.439854621887207 -4.489070415496826
      vertex 5 2.5988564491271973 0.458248496055603
      vertex 4.619397163391113 4.696317195892334 -1.11484694480896
    endloop
  endfacet
  facet normal -0.9807852263284587 -0.03387712603900715 0.1921267293927932
    outer loop
      vertex 5 2.5988564491271973 0.458248496055603
      vertex 4.619397163391113 -14.439854621887207 -4.489070415496826
      vertex 5 -14.772116661071777 -2.604722738265991
    endloop
  endfacet
  facet normal -0.5877854302600449 0.14048426147300175 -0.7967260885978312
    outer loop
      vertex 0.9270505905151367 -16.240924835205078 0.03347108140587807
      vertex 2.4270505905151367 -15.078319549560547 -0.8681567311286926
      vertex 2.4270505905151367 -16.44231414794922 -1.1086657047271729
    endloop
  endfacet
  facet normal -0.5877853881118308 0.14048417054420267 -0.7967261357259042
    outer loop
      vertex 2.4270505905151367 -15.078319549560547 -0.8681567311286926
      vertex 0.9270505905151367 -16.240924835205078 0.03347108140587807
      vertex 0.9270505905151367 -15.267563819885254 0.20510071516036987
    endloop
  endfacet
  facet normal 0 0.17364800573574654 -0.9848077833282992
    outer loop
      vertex -0.9270505905151367 -16.240924835205078 0.03347108140587807
      vertex 0.9270505905151367 -15.267563819885254 0.20510071516036987
      vertex 0.9270505905151367 -16.240924835205078 0.03347108140587807
    endloop
  endfacet
  facet normal 0 0.17364800573574654 -0.9848077833282992
    outer loop
      vertex 0.9270505905151367 -15.267563819885254 0.20510071516036987
      vertex -0.9270505905151367 -16.240924835205078 0.03347108140587807
      vertex -0.9270505905151367 -15.267563819885254 0.20510071516036987
    endloop
  endfacet
  facet normal -0.9510564274950909 0.05366026903224472 -0.3043226039052342
    outer loop
      vertex 3 -14.772116661071777 -2.604722738265991
      vertex 2.4270505905151367 -16.44231414794922 -1.1086657047271729
      vertex 2.4270505905151367 -15.078319549560547 -0.8681567311286926
    endloop
  endfacet
  facet normal -0.9510564376044928 0.05366030675817659 -0.3043225656596463
    outer loop
      vertex 2.4270505905151367 -16.44231414794922 -1.1086657047271729
      vertex 3 -14.772116661071777 -2.604722738265991
      vertex 3 -16.76816749572754 -2.9566805362701416
    endloop
  endfacet
  facet normal -0.5877853881118374 -0.1404842724569882 0.7967261177559372
    outer loop
      vertex 0.9270505905151367 -14.276668548583984 -5.414546012878418
      vertex 2.4270505905151367 -17.094022750854492 -4.804695129394531
      vertex 2.4270505905151367 -14.465912818908691 -4.3412885665893555
    endloop
  endfacet
  facet normal -0.5877855039903035 -0.14048435584017674 0.7967260175637768
    outer loop
      vertex 2.4270505905151367 -17.094022750854492 -4.804695129394531
      vertex 0.9270505905151367 -14.276668548583984 -5.414546012878418
      vertex 0.9270505905151367 -17.295412063598633 -5.946832180023193
    endloop
  endfacet
  facet normal 0.9510564274950909 0.05366026903224472 -0.3043226039052342
    outer loop
      vertex -2.4270505905151367 -16.44231414794922 -1.1086657047271729
      vertex -3 -14.772116661071777 -2.604722738265991
      vertex -2.4270505905151367 -15.078319549560547 -0.8681567311286926
    endloop
  endfacet
  facet normal 0.9510564376044928 0.05366030675817659 -0.3043225656596463
    outer loop
      vertex -3 -14.772116661071777 -2.604722738265991
      vertex -2.4270505905151367 -16.44231414794922 -1.1086657047271729
      vertex -3 -16.76816749572754 -2.9566805362701416
    endloop
  endfacet
  facet normal 0.5877854471751451 0.14048416309261458 -0.7967260934658048
    outer loop
      vertex -2.4270505905151367 -16.44231414794922 -1.1086657047271729
      vertex -0.9270505905151367 -15.267563819885254 0.20510071516036987
      vertex -0.9270505905151367 -16.240924835205078 0.03347108140587807
    endloop
  endfacet
  facet normal 0.5877853881118371 0.1404842667905376 -0.796726118755085
    outer loop
      vertex -0.9270505905151367 -15.267563819885254 0.20510071516036987
      vertex -2.4270505905151367 -16.44231414794922 -1.1086657047271729
      vertex -2.4270505905151367 -15.078319549560547 -0.8681567311286926
    endloop
  endfacet
  facet normal 0.5877853881118378 -0.1404843704597405 0.796726100475406
    outer loop
      vertex -2.4270505905151367 -14.465912818908691 -4.3412885665893555
      vertex -0.9270505905151367 -17.295412063598633 -5.946832180023193
      vertex -0.9270505905151367 -14.276668548583984 -5.414546012878418
    endloop
  endfacet
  facet normal 0.5877855212140954 -0.1404842556644321 0.7967260225205931
    outer loop
      vertex -0.9270505905151367 -17.295412063598633 -5.946832180023193
      vertex -2.4270505905151367 -14.465912818908691 -4.3412885665893555
      vertex -2.4270505905151367 -17.094022750854492 -4.804695129394531
    endloop
  endfacet
  facet normal 0.9510564269546429 -0.053660312449817546 0.3043225979385296
    outer loop
      vertex -3 -16.76816749572754 -2.9566805362701416
      vertex -2.4270505905151367 -14.465912818908691 -4.3412885665893555
      vertex -3 -14.772116661071777 -2.604722738265991
    endloop
  endfacet
  facet normal 0.9510564129030968 -0.05366027899508784 0.3043226477508097
    outer loop
      vertex -2.4270505905151367 -14.465912818908691 -4.3412885665893555
      vertex -3 -16.76816749572754 -2.9566805362701416
      vertex -2.4270505905151367 -17.094022750854492 -4.804695129394531
    endloop
  endfacet
  facet normal -0.9510564269546429 -0.053660312449817546 0.3043225979385296
    outer loop
      vertex 2.4270505905151367 -14.465912818908691 -4.3412885665893555
      vertex 3 -16.76816749572754 -2.9566805362701416
      vertex 3 -14.772116661071777 -2.604722738265991
    endloop
  endfacet
  facet normal -0.9510564129030968 -0.05366027899508784 0.3043226477508097
    outer loop
      vertex 3 -16.76816749572754 -2.9566805362701416
      vertex 2.4270505905151367 -14.465912818908691 -4.3412885665893555
      vertex 2.4270505905151367 -17.094022750854492 -4.804695129394531
    endloop
  endfacet
  facet normal 0 -0.17364825284497226 0.984807739756288
    outer loop
      vertex -0.9270505905151367 -14.276668548583984 -5.414546012878418
      vertex 0.9270505905151367 -17.295412063598633 -5.946832180023193
      vertex 0.9270505905151367 -14.276668548583984 -5.414546012878418
    endloop
  endfacet
  facet normal 0 -0.17364825284497226 0.984807739756288
    outer loop
      vertex 0.9270505905151367 -17.295412063598633 -5.946832180023193
      vertex -0.9270505905151367 -14.276668548583984 -5.414546012878418
      vertex -0.9270505905151367 -17.295412063598633 -5.946832180023193
    endloop
  endfacet
  facet normal -0.5138576499487133 0.5147252797484372 0.6863003729979162
    outer loop
      vertex -14.164772987365723 -14.13637924194336 11.968935012817383
      vertex -13.189571380615234 20.332080841064453 -13.152241706848145
      vertex -14.164772987365723 20.801712036132812 -14.234633445739746
    endloop
  endfacet
  facet normal -0.5138574046840163 0.5147253617984092 0.6863004950988332
    outer loop
      vertex -13.189571380615234 20.332080841064453 -13.152241706848145
      vertex -14.164772987365723 -14.13637924194336 11.968935012817383
      vertex -13.189571380615234 -14.022668838500977 12.61382007598877
    endloop
  endfacet
  facet normal -0.6234898165540683 0.7818314707488911 0
    outer loop
      vertex -12.911164283752441 21.80143165588379 -15.765366554260254
      vertex -14.164772987365723 20.801712036132812 -14.234633445739746
      vertex -12.911164283752441 21.80143165588379 -14.234633445739746
    endloop
  endfacet
  facet normal -0.6234898165540683 0.7818314707488911 0
    outer loop
      vertex -14.164772987365723 20.801712036132812 -14.234633445739746
      vertex -12.911164283752441 21.80143165588379 -15.765366554260254
      vertex -14.164772987365723 20.801712036132812 -15.765366554260254
    endloop
  endfacet
  facet normal 0 1 0
    outer loop
      vertex 12.088835716247559 21.80143165588379 -15.765366554260254
      vertex -12.911164283752441 21.80143165588379 -14.234633445739746
      vertex 12.088835716247559 21.80143165588379 -14.234633445739746
    endloop
  endfacet
  facet normal 0 1 0
    outer loop
      vertex -12.911164283752441 21.80143165588379 -14.234633445739746
      vertex 12.088835716247559 21.80143165588379 -15.765366554260254
      vertex -12.911164283752441 21.80143165588379 -15.765366554260254
    endloop
  endfacet
  facet normal 0.16531927061842444 0.7243093406223414 0.6693620230110319
    outer loop
      vertex 13.652058601379395 21.44463539123535 -14.234633445739746
      vertex 12.088835716247559 21.80143165588379 -14.234633445739746
      vertex 12.977197647094727 20.598388671875 -13.152241706848145
    endloop
  endfacet
  facet normal -0.7429362995916976 0 -0.669362125272259
    outer loop
      vertex -13.189571380615234 20.332080841064453 -16.847759246826172
      vertex -14.164772987365723 -19.02668571472168 -15.765366554260254
      vertex -14.164772987365723 20.801712036132812 -15.765366554260254
    endloop
  endfacet
  facet normal -0.7429362995916976 0 -0.6693621252722589
    outer loop
      vertex -14.164772987365723 -19.02668571472168 -15.765366554260254
      vertex -13.189571380615234 20.332080841064453 -16.847759246826172
      vertex -13.189571380615234 -19.217540740966797 -16.847759246826172
    endloop
  endfacet
  facet normal -1 0 0
    outer loop
      vertex -14.164772987365723 -19.02668571472168 -15.765366554260254
      vertex -14.164772987365723 20.801712036132812 -14.234633445739746
      vertex -14.164772987365723 20.801712036132812 -15.765366554260254
    endloop
  endfacet
  facet normal -1 0 0
    outer loop
      vertex -14.164772987365723 20.801712036132812 -14.234633445739746
      vertex -14.164772987365723 -19.02668571472168 -15.765366554260254
      vertex -14.164772987365723 -14.13637924194336 11.968935012817383
    endloop
  endfacet
  facet normal -1.0061616525007354e-8 0.599999982420993 0.8000000131842548
    outer loop
      vertex 12.329689979553223 20.746177673339844 -13.152241706848145
      vertex 5 2.5988564491271973 0.458248496055603
      vertex 12.329689979553223 -13.974303245544434 12.888117790222168
    endloop
  endfacet
  facet normal 2.380929416018707e-8 0.5999999736655132 0.8000000197508641
    outer loop
      vertex 12.329689979553223 20.746177673339844 -13.152241706848145
      vertex 4.619397163391113 4.696317195892334 -1.11484694480896
      vertex 5 2.5988564491271973 0.458248496055603
    endloop
  endfacet
  facet normal -2.7258029984469788e-8 0.5999999893663465 0.8000000079752397
    outer loop
      vertex 12.329689979553223 20.746177673339844 -13.152241706848145
      vertex 3.535533905029297 6.474459171295166 -2.448453426361084
      vertex 4.619397163391113 4.696317195892334 -1.11484694480896
    endloop
  endfacet
  facet normal -5.737081925208693e-8 0.6000000012417624 0.7999999990686759
    outer loop
      vertex 12.329689979553223 20.746177673339844 -13.152241706848145
      vertex 1.913416862487793 7.662574768066406 -3.3395402431488037
      vertex 3.535533905029297 6.474459171295166 -2.448453426361084
    endloop
  endfacet
  facet normal 7.681264479665759e-8 0.5999999328720101 0.8000000503459843
    outer loop
      vertex 12.329689979553223 20.746177673339844 -13.152241706848145
      vertex 0 8.07978630065918 -3.6524486541748047
      vertex 1.913416862487793 7.662574768066406 -3.3395402431488037
    endloop
  endfacet
  facet normal 0 0.5999999807253207 0.8000000144560091
    outer loop
      vertex -12.670310020446777 20.746177673339844 -13.152241706848145
      vertex 0 8.07978630065918 -3.6524486541748047
      vertex 12.329689979553223 20.746177673339844 -13.152241706848145
    endloop
  endfacet
  facet normal -7.644289398041456e-8 0.5999999317867283 0.8000000511599457
    outer loop
      vertex 0 8.07978630065918 -3.6524486541748047
      vertex -12.670310020446777 20.746177673339844 -13.152241706848145
      vertex -1.913416862487793 7.662574768066406 -3.3395402431488037
    endloop
  endfacet
  facet normal -2.3069560588372785e-8 0.5999999735796051 0.8000000198152951
    outer loop
      vertex -4.619397163391113 4.696317195892334 -1.11484694480896
      vertex -12.670310020446777 20.746177673339844 -13.152241706848145
      vertex -5 2.5988564491271973 0.458248496055603
    endloop
  endfacet
  facet normal 2.6737418147037747e-8 0.5999999895694428 0.8000000078229175
    outer loop
      vertex -3.535533905029297 6.474459171295166 -2.448453426361084
      vertex -12.670310020446777 20.746177673339844 -13.152241706848145
      vertex -4.619397163391113 4.696317195892334 -1.11484694480896
    endloop
  endfacet
  facet normal 5.668801616132586e-8 0.6000000018383841 0.7999999986212099
    outer loop
      vertex -1.913416862487793 7.662574768066406 -3.3395402431488037
      vertex -12.670310020446777 20.746177673339844 -13.152241706848145
      vertex -3.535533905029297 6.474459171295166 -2.448453426361084
    endloop
  endfacet
  facet normal -8.65804029724402e-9 0.5999999828182726 0.8000000128862953
    outer loop
      vertex 4.619397163391113 0.5013957619667053 2.031343936920166
      vertex 12.329689979553223 -13.974303245544434 12.888117790222168
      vertex 5 2.5988564491271973 0.458248496055603
    endloop
  endfacet
  facet normal 3.707568884149453e-8 0.5999999984083372 0.8000000011937463
    outer loop
      vertex 3.535533905029297 -1.276746153831482 3.36495041847229
      vertex 12.329689979553223 -13.974303245544434 12.888117790222168
      vertex 4.619397163391113 0.5013957619667053 2.031343936920166
    endloop
  endfacet
  facet normal 2.343782578372326e-8 0.5999999923632818 0.8000000057275383
    outer loop
      vertex 1.913416862487793 -2.4648618698120117 4.25603723526001
      vertex 12.329689979553223 -13.974303245544434 12.888117790222168
      vertex 3.535533905029297 -1.276746153831482 3.36495041847229
    endloop
  endfacet
  facet normal 6.847626840865776e-8 0.6000000184501196 0.7999999861624071
    outer loop
      vertex 0 -2.882073163986206 4.56894588470459
      vertex 12.329689979553223 -13.974303245544434 12.888117790222168
      vertex 1.913416862487793 -2.4648618698120117 4.25603723526001
    endloop
  endfacet
  facet normal -6.810919536730599e-8 0.6000000195275418 0.7999999853543404
    outer loop
      vertex -12.670310020446777 -13.974303245544434 12.888117790222168
      vertex 0 -2.882073163986206 4.56894588470459
      vertex -1.913416862487793 -2.4648618698120117 4.25603723526001
    endloop
  endfacet
  facet normal -2.3136230665048802e-8 0.5999999926268104 0.8000000055298917
    outer loop
      vertex -12.670310020446777 -13.974303245544434 12.888117790222168
      vertex -1.913416862487793 -2.4648618698120117 4.25603723526001
      vertex -3.535533905029297 -1.276746153831482 3.36495041847229
    endloop
  endfacet
  facet normal 9.614804307109067e-9 0.599999982420993 0.8000000131842548
    outer loop
      vertex -12.670310020446777 -13.974303245544434 12.888117790222168
      vertex -5 2.5988564491271973 0.458248496055603
      vertex -12.670310020446777 20.746177673339844 -13.152241706848145
    endloop
  endfacet
  facet normal 0 0.5999999697361693 0.8000000226978722
    outer loop
      vertex 0 -2.882073163986206 4.56894588470459
      vertex -12.670310020446777 -13.974303245544434 12.888117790222168
      vertex 12.329689979553223 -13.974303245544434 12.888117790222168
    endloop
  endfacet
  facet normal -3.6327300105964677e-8 0.5999999987002917 0.8000000009747803
    outer loop
      vertex -4.619397163391113 0.5013957619667053 2.031343936920166
      vertex -12.670310020446777 -13.974303245544434 12.888117790222168
      vertex -3.535533905029297 -1.276746153831482 3.36495041847229
    endloop
  endfacet
  facet normal 8.381846549924536e-9 0.5999999827861973 0.8000000129103518
    outer loop
      vertex -5 2.5988564491271973 0.458248496055603
      vertex -12.670310020446777 -13.974303245544434 12.888117790222168
      vertex -4.619397163391113 0.5013957619667053 2.031343936920166
    endloop
  endfacet
  facet normal -0.4632129326135251 0.580851044222811 0.6693622662541174
    outer loop
      vertex -12.911164283752441 21.80143165588379 -14.234633445739746
      vertex -13.189571380615234 20.332080841064453 -13.152241706848145
      vertex -12.670310020446777 20.746177673339844 -13.152241706848145
    endloop
  endfacet
  facet normal 0.669362588128003 0.32234801187201656 -0.6693619983661605
    outer loop
      vertex 14.347758293151855 20 -15.765366554260254
      vertex 13.265366554260254 20 -16.847759246826172
      vertex 13.652058601379395 21.44463539123535 -15.765366554260254
    endloop
  endfacet
  facet normal 0.13567934746363286 0.5944516637838498 0.7926022546627379
    outer loop
      vertex 12.329689979553223 -13.974303245544434 12.888117790222168
      vertex 12.977197647094727 20.598388671875 -13.152241706848145
      vertex 12.329689979553223 20.746177673339844 -13.152241706848145
    endloop
  endfacet
  facet normal 0.13567935285400098 0.594451663275215 0.7926022541214792
    outer loop
      vertex 12.977197647094727 20.598388671875 -13.152241706848145
      vertex 12.329689979553223 -13.974303245544434 12.888117790222168
      vertex 12.977197647094727 -13.991564750671387 12.79022216796875
    endloop
  endfacet
  facet normal 0.7798694573290698 0.37556531175844654 0.500753757977954
    outer loop
      vertex 13.652058601379395 -14.061286926269531 12.394807815551758
      vertex 14.347758293151855 20 -14.234633445739746
      vertex 13.652058601379395 21.44463539123535 -14.234633445739746
    endloop
  endfacet
  facet normal 0.7798693263559009 0.37556541397113447 0.500753885294846
    outer loop
      vertex 14.347758293151855 20 -14.234633445739746
      vertex 13.652058601379395 -14.061286926269531 12.394807815551758
      vertex 14.347758293151855 -14.230018615722656 11.437880516052246
    endloop
  endfacet
  facet normal 1 0 0
    outer loop
      vertex 14.347758293151855 -19.02668571472168 -15.765366554260254
      vertex 14.347758293151855 20 -14.234633445739746
      vertex 14.347758293151855 -14.230018615722656 11.437880516052246
    endloop
  endfacet
  facet normal 1 0 0
    outer loop
      vertex 14.347758293151855 20 -14.234633445739746
      vertex 14.347758293151855 -19.02668571472168 -15.765366554260254
      vertex 14.347758293151855 20 -15.765366554260254
    endloop
  endfacet
  facet normal -0.43161907100543917 0.5412335676498957 0.7216447899024613
    outer loop
      vertex -13.189571380615234 20.332080841064453 -13.152241706848145
      vertex -12.670310020446777 -13.974303245544434 12.888117790222168
      vertex -12.670310020446777 20.746177673339844 -13.152241706848145
    endloop
  endfacet
  facet normal -0.43161827402964376 0.5412338059004097 0.7216450878889351
    outer loop
      vertex -12.670310020446777 -13.974303245544434 12.888117790222168
      vertex -13.189571380615234 20.332080841064453 -13.152241706848145
      vertex -13.189571380615234 -14.022668838500977 12.61382007598877
    endloop
  endfacet
  facet normal 0.16531838186975545 0.7243091081556904 0.6693624940633245
    outer loop
      vertex 12.977197647094727 20.598388671875 -13.152241706848145
      vertex 12.088835716247559 21.80143165588379 -14.234633445739746
      vertex 12.329689979553223 20.746177673339844 -13.152241706848145
    endloop
  endfacet
  facet normal 0.16531844713157756 0.724309394087186 -0.669362168541857
    outer loop
      vertex 12.329689979553223 20.746177673339844 -16.847759246826172
      vertex 12.088835716247559 21.80143165588379 -15.765366554260254
      vertex 12.977197647094727 20.598388671875 -16.847759246826172
    endloop
  endfacet
  facet normal -0.4632134061060782 0.5808512167337264 -0.669361788887411
    outer loop
      vertex -13.189571380615234 20.332080841064453 -16.847759246826172
      vertex -14.164772987365723 20.801712036132812 -15.765366554260254
      vertex -12.911164283752441 21.80143165588379 -15.765366554260254
    endloop
  endfacet
  facet normal 0.46879330802697566 0.5299847299005677 0.7066463191875746
    outer loop
      vertex 12.977197647094727 20.598388671875 -13.152241706848145
      vertex 13.652058601379395 -14.061286926269531 12.394807815551758
      vertex 13.652058601379395 21.44463539123535 -14.234633445739746
    endloop
  endfacet
  facet normal 0.4687927161210612 0.5299849088712616 0.70664657763309
    outer loop
      vertex 13.652058601379395 -14.061286926269531 12.394807815551758
      vertex 12.977197647094727 20.598388671875 -13.152241706848145
      vertex 12.977197647094727 -13.991564750671387 12.79022216796875
    endloop
  endfacet
  facet normal 0.9009688791361558 0.43388371579046275 0
    outer loop
      vertex 14.347758293151855 20 -14.234633445739746
      vertex 13.652058601379395 21.44463539123535 -15.765366554260254
      vertex 13.652058601379395 21.44463539123535 -14.234633445739746
    endloop
  endfacet
  facet normal 0.9009688791361558 0.43388371579046275 0
    outer loop
      vertex 13.652058601379395 21.44463539123535 -15.765366554260254
      vertex 14.347758293151855 20 -14.234633445739746
      vertex 14.347758293151855 20 -15.765366554260254
    endloop
  endfacet
  facet normal 0 0.7160259179469678 0.6980736958432127
    outer loop
      vertex 12.088835716247559 21.80143165588379 -14.234633445739746
      vertex -12.670310020446777 20.746177673339844 -13.152241706848145
      vertex 12.329689979553223 20.746177673339844 -13.152241706848145
    endloop
  endfacet
  facet normal 0 0.7160259179469678 0.6980736958432127
    outer loop
      vertex -12.670310020446777 20.746177673339844 -13.152241706848145
      vertex 12.088835716247559 21.80143165588379 -14.234633445739746
      vertex -12.911164283752441 21.80143165588379 -14.234633445739746
    endloop
  endfacet
  facet normal 0.2225214331396431 0.9749277982463518 0
    outer loop
      vertex 13.652058601379395 21.44463539123535 -15.765366554260254
      vertex 12.088835716247559 21.80143165588379 -14.234633445739746
      vertex 13.652058601379395 21.44463539123535 -14.234633445739746
    endloop
  endfacet
  facet normal 0.2225214331396431 0.9749277982463518 0
    outer loop
      vertex 12.088835716247559 21.80143165588379 -14.234633445739746
      vertex 13.652058601379395 21.44463539123535 -15.765366554260254
      vertex 12.088835716247559 21.80143165588379 -15.765366554260254
    endloop
  endfacet
  facet normal -0.46321322324616665 0.5808509874346588 0.6693621144089936
    outer loop
      vertex -12.911164283752441 21.80143165588379 -14.234633445739746
      vertex -14.164772987365723 20.801712036132812 -14.234633445739746
      vertex -13.189571380615234 20.332080841064453 -13.152241706848145
    endloop
  endfacet
  facet normal 0 0.7160262253772286 -0.6980733805066902
    outer loop
      vertex -12.670310020446777 20.746177673339844 -16.847759246826172
      vertex 12.088835716247559 21.80143165588379 -15.765366554260254
      vertex 12.329689979553223 20.746177673339844 -16.847759246826172
    endloop
  endfacet
  facet normal 0 0.7160262253772286 -0.6980733805066902
    outer loop
      vertex 12.088835716247559 21.80143165588379 -15.765366554260254
      vertex -12.670310020446777 20.746177673339844 -16.847759246826172
      vertex -12.911164283752441 21.80143165588379 -15.765366554260254
    endloop
  endfacet
  facet normal 0.16531933588050554 0.7243096265535263 -0.6693616974894216
    outer loop
      vertex 12.977197647094727 20.598388671875 -16.847759246826172
      vertex 12.088835716247559 21.80143165588379 -15.765366554260254
      vertex 13.652058601379395 21.44463539123535 -15.765366554260254
    endloop
  endfacet
  facet normal 0.7071070926953601 0 -0.7071064696775977
    outer loop
      vertex 14.347758293151855 -19.02668571472168 -15.765366554260254
      vertex 13.265366554260254 20 -16.847759246826172
      vertex 14.347758293151855 20 -15.765366554260254
    endloop
  endfacet
  facet normal 0.7071070926953601 0 -0.7071064696775978
    outer loop
      vertex 13.265366554260254 20 -16.847759246826172
      vertex 14.347758293151855 -19.02668571472168 -15.765366554260254
      vertex 13.265366554260254 -19.217540740966797 -16.847759246826172
    endloop
  endfacet
  facet normal 0.6693624700697435 0.32234810009556714 -0.6693620739382463
    outer loop
      vertex 13.265366554260254 20 -16.847759246826172
      vertex 12.977197647094727 20.598388671875 -16.847759246826172
      vertex 13.652058601379395 21.44463539123535 -15.765366554260254
    endloop
  endfacet
  facet normal -0.4632131154734048 0.5808512735220049 -0.6693619407325809
    outer loop
      vertex -12.670310020446777 20.746177673339844 -16.847759246826172
      vertex -13.189571380615234 20.332080841064453 -16.847759246826172
      vertex -12.911164283752441 21.80143165588379 -15.765366554260254
    endloop
  endfacet
  facet normal 0 0 -1
    outer loop
      vertex -13.189571380615234 -19.217540740966797 -16.847759246826172
      vertex 13.265366554260254 20 -16.847759246826172
      vertex 13.265366554260254 -19.217540740966797 -16.847759246826172
    endloop
  endfacet
  facet normal 0 0 -1
    outer loop
      vertex 13.265366554260254 20 -16.847759246826172
      vertex 12.329689979553223 20.746177673339844 -16.847759246826172
      vertex 12.977197647094727 20.598388671875 -16.847759246826172
    endloop
  endfacet
  facet normal 0 0 -1
    outer loop
      vertex 13.265366554260254 20 -16.847759246826172
      vertex -13.189571380615234 20.332080841064453 -16.847759246826172
      vertex 12.329689979553223 20.746177673339844 -16.847759246826172
    endloop
  endfacet
  facet normal 0 0 -1
    outer loop
      vertex 13.265366554260254 20 -16.847759246826172
      vertex -13.189571380615234 -19.217540740966797 -16.847759246826172
      vertex -13.189571380615234 20.332080841064453 -16.847759246826172
    endloop
  endfacet
  facet normal 0 0 -1
    outer loop
      vertex 12.329689979553223 20.746177673339844 -16.847759246826172
      vertex -13.189571380615234 20.332080841064453 -16.847759246826172
      vertex -12.670310020446777 20.746177673339844 -16.847759246826172
    endloop
  endfacet
  facet normal 0 -0.9848077458403027 0.17364821834082222
    outer loop
      vertex -0.9270505905151367 -16.240924835205078 0.03347108140587807
      vertex 12.329689979553223 -13.974303245544434 12.888117790222168
      vertex -12.670310020446777 -13.974303245544434 12.888117790222168
    endloop
  endfacet
  facet normal -6.856160174367114e-7 -0.9848078348569425 0.17364771350038277
    outer loop
      vertex -2.4270505905151367 -16.44231414794922 -1.1086657047271729
      vertex -12.670310020446777 -13.974303245544434 12.888117790222168
      vertex -13.189571380615234 -14.022668838500977 12.61382007598877
    endloop
  endfacet
  facet normal 1.0460822892786547e-7 -0.9848077617086837 0.17364812834672727
    outer loop
      vertex 2.4270505905151367 -16.44231414794922 -1.1086657047271729
      vertex 12.329689979553223 -13.974303245544434 12.888117790222168
      vertex 0.9270505905151367 -16.240924835205078 0.03347108140587807
    endloop
  endfacet
  facet normal -1.8045289311488632e-7 -0.9848077671033265 0.17364809775211332
    outer loop
      vertex -2.4270505905151367 -16.44231414794922 -1.1086657047271729
      vertex -13.189571380615234 -14.022668838500977 12.61382007598877
      vertex -14.164772987365723 -14.13637924194336 11.968935012817383
    endloop
  endfacet
  facet normal 0 -0.9848077458403027 0.17364821834082234
    outer loop
      vertex 12.329689979553223 -13.974303245544434 12.888117790222168
      vertex -0.9270505905151367 -16.240924835205078 0.03347108140587807
      vertex 0.9270505905151367 -16.240924835205078 0.03347108140587807
    endloop
  endfacet
  facet normal 2.0180338248299005e-7 -0.984807773468168 0.17364806165526053
    outer loop
      vertex 14.347758293151855 -14.230018615722656 11.437880516052246
      vertex 12.329689979553223 -13.974303245544434 12.888117790222168
      vertex 2.4270505905151367 -16.44231414794922 -1.1086657047271729
    endloop
  endfacet
  facet normal -1.0336348198771387e-7 -0.9848077619882443 0.17364812676126057
    outer loop
      vertex -12.670310020446777 -13.974303245544434 12.888117790222168
      vertex -2.4270505905151367 -16.44231414794922 -1.1086657047271729
      vertex -0.9270505905151367 -16.240924835205078 0.03347108140587807
    endloop
  endfacet
  facet normal -7.40088448825191e-7 -0.9848078530008516 0.17364761060062184
    outer loop
      vertex -14.164772987365723 -14.13637924194336 11.968935012817383
      vertex -3 -16.76816749572754 -2.9566805362701416
      vertex -2.4270505905151367 -16.44231414794922 -1.1086657047271729
    endloop
  endfacet
  facet normal 8.026983061519064e-8 -0.9848077480608357 0.1736482057475374
    outer loop
      vertex -14.164772987365723 -19.02668571472168 -15.765366554260254
      vertex -3 -16.76816749572754 -2.9566805362701416
      vertex -14.164772987365723 -14.13637924194336 11.968935012817383
    endloop
  endfacet
  facet normal 1.3522196784015232e-7 -0.9848077617099618 0.17364812833945836
    outer loop
      vertex -2.4270505905151367 -17.094022750854492 -4.804695129394531
      vertex -13.189571380615234 -19.217540740966797 -16.847759246826172
      vertex -0.9270505905151367 -17.295412063598633 -5.946832180023193
    endloop
  endfacet
  facet normal 4.364741471977055e-8 -0.9848077477149514 0.17364820770915748
    outer loop
      vertex -13.189571380615234 -19.217540740966797 -16.847759246826172
      vertex -2.4270505905151367 -17.094022750854492 -4.804695129394531
      vertex -14.164772987365723 -19.02668571472168 -15.765366554260254
    endloop
  endfacet
  facet normal -1.0642205615861013e-7 -0.9848077202321466 0.17364836357176153
    outer loop
      vertex -3 -16.76816749572754 -2.9566805362701416
      vertex -14.164772987365723 -19.02668571472168 -15.765366554260254
      vertex -2.4270505905151367 -17.094022750854492 -4.804695129394531
    endloop
  endfacet
  facet normal 2.5346767779600577e-7 -0.9848076974722798 0.17364849264903653
    outer loop
      vertex 12.329689979553223 -13.974303245544434 12.888117790222168
      vertex 13.652058601379395 -14.061286926269531 12.394807815551758
      vertex 12.977197647094727 -13.991564750671387 12.79022216796875
    endloop
  endfacet
  facet normal -3.5503098338034976e-8 -0.9848078299394407 0.17364774139034567
    outer loop
      vertex 13.652058601379395 -14.061286926269531 12.394807815551758
      vertex 12.329689979553223 -13.974303245544434 12.888117790222168
      vertex 14.347758293151855 -14.230018615722656 11.437880516052246
    endloop
  endfacet
  facet normal 7.033022367104382e-7 -0.9848078549512442 0.17364759953951117
    outer loop
      vertex 3 -16.76816749572754 -2.9566805362701416
      vertex 14.347758293151855 -14.230018615722656 11.437880516052246
      vertex 2.4270505905151367 -16.44231414794922 -1.1086657047271729
    endloop
  endfacet
  facet normal 1.0515083748567205e-7 -0.9848077201647478 0.1736483639539997
    outer loop
      vertex 14.347758293151855 -19.02668571472168 -15.765366554260254
      vertex 3 -16.76816749572754 -2.9566805362701416
      vertex 2.4270505905151367 -17.094022750854492 -4.804695129394531
    endloop
  endfacet
  facet normal -8.396722154599606e-8 -0.9848077488171125 0.1736482014584766
    outer loop
      vertex 3 -16.76816749572754 -2.9566805362701416
      vertex 14.347758293151855 -19.02668571472168 -15.765366554260254
      vertex 14.347758293151855 -14.230018615722656 11.437880516052246
    endloop
  endfacet
  facet normal -1.3483745282011096e-7 -0.9848077617963209 0.17364812784969164
    outer loop
      vertex 13.265366554260254 -19.217540740966797 -16.847759246826172
      vertex 2.4270505905151367 -17.094022750854492 -4.804695129394531
      vertex 0.9270505905151367 -17.295412063598633 -5.946832180023193
    endloop
  endfacet
  facet normal 0 -0.9848077356972776 0.17364827586475193
    outer loop
      vertex -0.9270505905151367 -17.295412063598633 -5.946832180023193
      vertex -13.189571380615234 -19.217540740966797 -16.847759246826172
      vertex 0.9270505905151367 -17.295412063598633 -5.946832180023193
    endloop
  endfacet
  facet normal 0 -0.9848077356972775 0.17364827586475193
    outer loop
      vertex 0.9270505905151367 -17.295412063598633 -5.946832180023193
      vertex -13.189571380615234 -19.217540740966797 -16.847759246826172
      vertex 13.265366554260254 -19.217540740966797 -16.847759246826172
    endloop
  endfacet
  facet normal -4.122782061949529e-8 -0.9848077473895461 0.17364820955462287
    outer loop
      vertex 2.4270505905151367 -17.094022750854492 -4.804695129394531
      vertex 13.265366554260254 -19.217540740966797 -16.847759246826172
      vertex 14.347758293151855 -19.02668571472168 -15.765366554260254
    endloop
  endfacet
endsolid OpenSCAD_Model
