solid OpenSCAD_Model
  facet normal 0 -0.7808688094430304 -0.6246950475544243
    outer loop
      vertex -200 -200 247
      vertex -84.5 -89.5 108.875
      vertex 200 -200 247
    endloop
  endfacet
  facet normal 8.09351591764929e-7 -0.7808691395787966 -0.6246946348839686
    outer loop
      vertex -200 -200 247
      vertex -85.79409790039062 -89.32962799072266 108.66203308105469
      vertex -84.5 -89.5 108.875
    endloop
  endfacet
  facet normal -0.0000020796986383282923 -0.7808679761249834 -0.6246960891970968
    outer loop
      vertex -200 -200 247
      vertex -87 -88.83012390136719 108.03765869140625
      vertex -85.79409790039062 -89.32962799072266 108.66203308105469
    endloop
  endfacet
  facet normal 0.000002594973765484919 -0.7808698304178799 -0.6246937713283345
    outer loop
      vertex -87 -88.83012390136719 108.03765869140625
      vertex -200 -200 247
      vertex -88.03553771972656 -88.03553771972656 107.04441833496094
    endloop
  endfacet
  facet normal 0 -0.7808688094430304 -0.6246950475544243
    outer loop
      vertex 84.5 -89.5 108.875
      vertex 200 -200 247
      vertex -84.5 -89.5 108.875
    endloop
  endfacet
  facet normal -8.09351591764929e-7 -0.7808691395787966 -0.6246946348839686
    outer loop
      vertex 85.79409790039062 -89.32962799072266 108.66203308105469
      vertex 200 -200 247
      vertex 84.5 -89.5 108.875
    endloop
  endfacet
  facet normal 0.0000020796986383282923 -0.7808679761249834 -0.6246960891970968
    outer loop
      vertex 87 -88.83012390136719 108.03765869140625
      vertex 200 -200 247
      vertex 85.79409790039062 -89.32962799072266 108.66203308105469
    endloop
  endfacet
  facet normal -0.000002594973765484919 -0.7808698304178799 -0.6246937713283345
    outer loop
      vertex 200 -200 247
      vertex 87 -88.83012390136719 108.03765869140625
      vertex 88.03553771972656 -88.03553771972656 107.04441833496094
    endloop
  endfacet
  facet normal 0 0.7808688094430304 -0.6246950475544243
    outer loop
      vertex 200 200 247
      vertex 84.5 89.5 108.875
      vertex -200 200 247
    endloop
  endfacet
  facet normal -8.09351591764929e-7 0.7808691395787966 -0.6246946348839686
    outer loop
      vertex 200 200 247
      vertex 85.79409790039062 89.32962799072266 108.66203308105469
      vertex 84.5 89.5 108.875
    endloop
  endfacet
  facet normal 0.0000020796986383282923 0.7808679761249834 -0.6246960891970968
    outer loop
      vertex 200 200 247
      vertex 87 88.83012390136719 108.03765869140625
      vertex 85.79409790039062 89.32962799072266 108.66203308105469
    endloop
  endfacet
  facet normal -0.000002594973765484919 0.7808698304178799 -0.6246937713283345
    outer loop
      vertex 87 88.83012390136719 108.03765869140625
      vertex 200 200 247
      vertex 88.03553771972656 88.03553771972656 107.04441833496094
    endloop
  endfacet
  facet normal 0 0.7808688094430304 -0.6246950475544243
    outer loop
      vertex -84.5 89.5 108.875
      vertex -200 200 247
      vertex 84.5 89.5 108.875
    endloop
  endfacet
  facet normal 8.09351591764929e-7 0.7808691395787966 -0.6246946348839686
    outer loop
      vertex -85.79409790039062 89.32962799072266 108.66203308105469
      vertex -200 200 247
      vertex -84.5 89.5 108.875
    endloop
  endfacet
  facet normal -0.0000020796986383282923 0.7808679761249834 -0.6246960891970968
    outer loop
      vertex -87 88.83012390136719 108.03765869140625
      vertex -200 200 247
      vertex -85.79409790039062 89.32962799072266 108.66203308105469
    endloop
  endfacet
  facet normal 0.000002594973765484919 0.7808698304178799 -0.6246937713283345
    outer loop
      vertex -200 200 247
      vertex -87 88.83012390136719 108.03765869140625
      vertex -88.03553771972656 88.03553771972656 107.04441833496094
    endloop
  endfacet
  facet normal 0 0 1
    outer loop
      vertex 200 200 247
      vertex 196.41600036621094 196.41600036621094 247
      vertex 200 -200 247
    endloop
  endfacet
  facet normal 0 0 1
    outer loop
      vertex 200 200 247
      vertex -196.41600036621094 196.41600036621094 247
      vertex 196.41600036621094 196.41600036621094 247
    endloop
  endfacet
  facet normal 0 0 1
    outer loop
      vertex -196.41600036621094 196.41600036621094 247
      vertex -200 200 247
      vertex -196.41600036621094 -196.41600036621094 247
    endloop
  endfacet
  facet normal 0 0 1
    outer loop
      vertex -200 200 247
      vertex -196.41600036621094 196.41600036621094 247
      vertex 200 200 247
    endloop
  endfacet
  facet normal 0 0 1
    outer loop
      vertex 196.41600036621094 -196.41600036621094 247
      vertex 200 -200 247
      vertex 196.41600036621094 196.41600036621094 247
    endloop
  endfacet
  facet normal 0 0 1
    outer loop
      vertex -196.41600036621094 -196.41600036621094 247
      vertex 200 -200 247
      vertex 196.41600036621094 -196.41600036621094 247
    endloop
  endfacet
  facet normal 0 0 1
    outer loop
      vertex -196.41600036621094 -196.41600036621094 247
      vertex -200 -200 247
      vertex 200 -200 247
    endloop
  endfacet
  facet normal 0 0 1
    outer loop
      vertex -200 -200 247
      vertex -196.41600036621094 -196.41600036621094 247
      vertex -200 200 247
    endloop
  endfacet
  facet normal 0.7808698304178799 -0.000002594973765484919 -0.6246937713283345
    outer loop
      vertex 200 200 247
      vertex 88.83012390136719 87 108.03765869140625
      vertex 88.03553771972656 88.03553771972656 107.04441833496094
    endloop
  endfacet
  facet normal 0.7808679761249834 0.0000020796986383282923 -0.6246960891970968
    outer loop
      vertex 200 200 247
      vertex 89.32962799072266 85.79409790039062 108.66203308105469
      vertex 88.83012390136719 87 108.03765869140625
    endloop
  endfacet
  facet normal 0.7808691395787966 -8.09351591764929e-7 -0.6246946348839686
    outer loop
      vertex 200 200 247
      vertex 89.5 84.5 108.875
      vertex 89.32962799072266 85.79409790039062 108.66203308105469
    endloop
  endfacet
  facet normal 0.7808688094430304 0 -0.6246950475544243
    outer loop
      vertex 200 200 247
      vertex 89.5 -84.5 108.875
      vertex 89.5 84.5 108.875
    endloop
  endfacet
  facet normal 0.7808688094430304 0 -0.6246950475544243
    outer loop
      vertex 200 -200 247
      vertex 89.5 -84.5 108.875
      vertex 200 200 247
    endloop
  endfacet
  facet normal 0.7808698304178799 0.000002594973765484919 -0.6246937713283345
    outer loop
      vertex 88.83012390136719 -87 108.03765869140625
      vertex 200 -200 247
      vertex 88.03553771972656 -88.03553771972656 107.04441833496094
    endloop
  endfacet
  facet normal 0.7808679761249834 -0.0000020796986383282923 -0.6246960891970968
    outer loop
      vertex 89.32962799072266 -85.79409790039062 108.66203308105469
      vertex 200 -200 247
      vertex 88.83012390136719 -87 108.03765869140625
    endloop
  endfacet
  facet normal 0.7808691395787966 8.09351591764929e-7 -0.6246946348839686
    outer loop
      vertex 89.5 -84.5 108.875
      vertex 200 -200 247
      vertex 89.32962799072266 -85.79409790039062 108.66203308105469
    endloop
  endfacet
  facet normal -0.7808698304178799 -0.000002594973765484919 -0.6246937713283345
    outer loop
      vertex -88.83012390136719 87 108.03765869140625
      vertex -200 200 247
      vertex -88.03553771972656 88.03553771972656 107.04441833496094
    endloop
  endfacet
  facet normal -0.7808679761249834 0.0000020796986383282923 -0.6246960891970968
    outer loop
      vertex -89.32962799072266 85.79409790039062 108.66203308105469
      vertex -200 200 247
      vertex -88.83012390136719 87 108.03765869140625
    endloop
  endfacet
  facet normal -0.7808691395787966 -8.09351591764929e-7 -0.6246946348839686
    outer loop
      vertex -89.5 84.5 108.875
      vertex -200 200 247
      vertex -89.32962799072266 85.79409790039062 108.66203308105469
    endloop
  endfacet
  facet normal -0.7808688094430304 0 -0.6246950475544243
    outer loop
      vertex -89.5 -84.5 108.875
      vertex -200 200 247
      vertex -89.5 84.5 108.875
    endloop
  endfacet
  facet normal -0.7808691395787966 8.09351591764929e-7 -0.6246946348839686
    outer loop
      vertex -200 -200 247
      vertex -89.5 -84.5 108.875
      vertex -89.32962799072266 -85.79409790039062 108.66203308105469
    endloop
  endfacet
  facet normal -0.7808688094430304 0 -0.6246950475544243
    outer loop
      vertex -89.5 -84.5 108.875
      vertex -200 -200 247
      vertex -200 200 247
    endloop
  endfacet
  facet normal -0.7808679761249834 -0.0000020796986383282923 -0.6246960891970968
    outer loop
      vertex -88.83012390136719 -87 108.03765869140625
      vertex -200 -200 247
      vertex -89.32962799072266 -85.79409790039062 108.66203308105469
    endloop
  endfacet
  facet normal -0.7808698304178799 0.000002594973765484919 -0.6246937713283345
    outer loop
      vertex -200 -200 247
      vertex -88.83012390136719 -87 108.03765869140625
      vertex -88.03553771972656 -88.03553771972656 107.04441833496094
    endloop
  endfacet
  facet normal 0.3826854496202838 0.9238786969342465 0
    outer loop
      vertex 85.79409790039062 89.32962799072266 80
      vertex 87 88.83012390136719 108.03765869140625
      vertex 87 88.83012390136719 80
    endloop
  endfacet
  facet normal 0.3826854496202837 0.9238786969342464 0
    outer loop
      vertex 87 88.83012390136719 108.03765869140625
      vertex 85.79409790039062 89.32962799072266 80
      vertex 85.79409790039062 89.32962799072266 108.66203308105469
    endloop
  endfacet
  facet normal 0 -1 0
    outer loop
      vertex -84.5 -89.5 80
      vertex 84.5 -89.5 108.875
      vertex -84.5 -89.5 108.875
    endloop
  endfacet
  facet normal 0 -1 0
    outer loop
      vertex 84.5 -89.5 108.875
      vertex -84.5 -89.5 80
      vertex 84.5 -89.5 80
    endloop
  endfacet
  facet normal 0.13052678607152235 -0.9914447831916001 0
    outer loop
      vertex 84.5 -89.5 80
      vertex 85.79409790039062 -89.32962799072266 108.66203308105469
      vertex 84.5 -89.5 108.875
    endloop
  endfacet
  facet normal 0.13052678607152238 -0.9914447831916002 0
    outer loop
      vertex 85.79409790039062 -89.32962799072266 108.66203308105469
      vertex 84.5 -89.5 80
      vertex 85.79409790039062 -89.32962799072266 80
    endloop
  endfacet
  facet normal -1 0 0
    outer loop
      vertex -89.5 -84.5 80
      vertex -89.5 84.5 108.875
      vertex -89.5 84.5 80
    endloop
  endfacet
  facet normal -1 0 0
    outer loop
      vertex -89.5 84.5 108.875
      vertex -89.5 -84.5 80
      vertex -89.5 -84.5 108.875
    endloop
  endfacet
  facet normal 1 0 0
    outer loop
      vertex 89.5 83 87
      vertex 89.5 84.5 80
      vertex 89.5 84.5 87
    endloop
  endfacet
  facet normal 1 0 0
    outer loop
      vertex 89.5 84.5 80
      vertex 89.5 83 87
      vertex 89.5 83 80
    endloop
  endfacet
  facet normal 1 0 0
    outer loop
      vertex 89.5 -84.5 87
      vertex 89.5 -83 80
      vertex 89.5 -83 87
    endloop
  endfacet
  facet normal 1 0 0
    outer loop
      vertex 89.5 -83 80
      vertex 89.5 -84.5 87
      vertex 89.5 -84.5 80
    endloop
  endfacet
  facet normal 1 0 0
    outer loop
      vertex 89.5 84.5 108.875
      vertex 89.5 83 102
      vertex 89.5 84.5 97
    endloop
  endfacet
  facet normal 1 0 0
    outer loop
      vertex 89.5 84.5 108.875
      vertex 89.5 -83 102
      vertex 89.5 83 102
    endloop
  endfacet
  facet normal 1 0 0
    outer loop
      vertex 89.5 -84.5 108.875
      vertex 89.5 -83 102
      vertex 89.5 84.5 108.875
    endloop
  endfacet
  facet normal 1 0 0
    outer loop
      vertex 89.5 -84.5 97
      vertex 89.5 -83 102
      vertex 89.5 -84.5 108.875
    endloop
  endfacet
  facet normal 1 0 0
    outer loop
      vertex 89.5 -83 102
      vertex 89.5 -84.5 97
      vertex 89.5 -83 97
    endloop
  endfacet
  facet normal 1 0 0
    outer loop
      vertex 89.5 84.5 97
      vertex 89.5 83 102
      vertex 89.5 83 97
    endloop
  endfacet
  facet normal 0.6087566754816573 0.7933569877782133 0
    outer loop
      vertex 87 88.83012390136719 80
      vertex 88.03553771972656 88.03553771972656 107.04441833496094
      vertex 88.03553771972656 88.03553771972656 80
    endloop
  endfacet
  facet normal 0.6087566754816573 0.7933569877782132 0
    outer loop
      vertex 88.03553771972656 88.03553771972656 107.04441833496094
      vertex 87 88.83012390136719 80
      vertex 87 88.83012390136719 108.03765869140625
    endloop
  endfacet
  facet normal 0 1 0
    outer loop
      vertex 84.5 89.5 80
      vertex -84.5 89.5 108.875
      vertex 84.5 89.5 108.875
    endloop
  endfacet
  facet normal 0 1 0
    outer loop
      vertex -84.5 89.5 108.875
      vertex 84.5 89.5 80
      vertex -84.5 89.5 80
    endloop
  endfacet
  facet normal -0.6087566754816573 -0.7933569877782133 0
    outer loop
      vertex -87 -88.83012390136719 80
      vertex -88.03553771972656 -88.03553771972656 107.04441833496094
      vertex -88.03553771972656 -88.03553771972656 80
    endloop
  endfacet
  facet normal -0.6087566754816573 -0.7933569877782132 0
    outer loop
      vertex -88.03553771972656 -88.03553771972656 107.04441833496094
      vertex -87 -88.83012390136719 80
      vertex -87 -88.83012390136719 108.03765869140625
    endloop
  endfacet
  facet normal 0.9914447831916002 0.13052678607152238 0
    outer loop
      vertex 89.5 84.5 87
      vertex 89.32962799072266 85.79409790039062 80
      vertex 89.32962799072266 85.79409790039062 87
    endloop
  endfacet
  facet normal 0.9914447831916002 0.13052678607152238 0
    outer loop
      vertex 89.32962799072266 85.79409790039062 80
      vertex 89.5 84.5 87
      vertex 89.5 84.5 80
    endloop
  endfacet
  facet normal 0.9914447831916001 0.13052678607152235 0
    outer loop
      vertex 89.5 84.5 97
      vertex 89.32962799072266 85.79409790039062 108.66203308105469
      vertex 89.5 84.5 108.875
    endloop
  endfacet
  facet normal 0.9914447831916001 0.13052678607152235 0
    outer loop
      vertex 89.32962799072266 85.79409790039062 108.66203308105469
      vertex 89.5 84.5 97
      vertex 89.32962799072266 85.79409790039062 97
    endloop
  endfacet
  facet normal -0.6087566754816573 0.7933569877782132 0
    outer loop
      vertex -87 88.83012390136719 80
      vertex -88.03553771972656 88.03553771972656 107.04441833496094
      vertex -87 88.83012390136719 108.03765869140625
    endloop
  endfacet
  facet normal -0.6087566754816573 0.7933569877782133 0
    outer loop
      vertex -88.03553771972656 88.03553771972656 107.04441833496094
      vertex -87 88.83012390136719 80
      vertex -88.03553771972656 88.03553771972656 80
    endloop
  endfacet
  facet normal -0.3826854496202837 0.9238786969342464 0
    outer loop
      vertex -85.79409790039062 89.32962799072266 80
      vertex -87 88.83012390136719 108.03765869140625
      vertex -85.79409790039062 89.32962799072266 108.66203308105469
    endloop
  endfacet
  facet normal -0.3826854496202838 0.9238786969342465 0
    outer loop
      vertex -87 88.83012390136719 108.03765869140625
      vertex -85.79409790039062 89.32962799072266 80
      vertex -87 88.83012390136719 80
    endloop
  endfacet
  facet normal -0.7933569877782133 -0.6087566754816573 0
    outer loop
      vertex -88.03553771972656 -88.03553771972656 107.04441833496094
      vertex -88.83012390136719 -87 80
      vertex -88.03553771972656 -88.03553771972656 80
    endloop
  endfacet
  facet normal -0.7933569877782132 -0.6087566754816573 0
    outer loop
      vertex -88.83012390136719 -87 80
      vertex -88.03553771972656 -88.03553771972656 107.04441833496094
      vertex -88.83012390136719 -87 108.03765869140625
    endloop
  endfacet
  facet normal 0.9238786969342465 -0.3826854496202838 0
    outer loop
      vertex 88.83012390136719 -87 87
      vertex 89.32962799072266 -85.79409790039062 80
      vertex 89.32962799072266 -85.79409790039062 87
    endloop
  endfacet
  facet normal 0.9238786969342465 -0.3826854496202838 0
    outer loop
      vertex 89.32962799072266 -85.79409790039062 80
      vertex 88.83012390136719 -87 87
      vertex 88.83012390136719 -87 80
    endloop
  endfacet
  facet normal 0.9238786969342464 -0.3826854496202837 0
    outer loop
      vertex 88.83012390136719 -87 108.03765869140625
      vertex 89.32962799072266 -85.79409790039062 97
      vertex 89.32962799072266 -85.79409790039062 108.66203308105469
    endloop
  endfacet
  facet normal 0.9238786969342465 -0.3826854496202838 0
    outer loop
      vertex 89.32962799072266 -85.79409790039062 97
      vertex 88.83012390136719 -87 108.03765869140625
      vertex 88.83012390136719 -87 97
    endloop
  endfacet
  facet normal -0.9914447831916002 0.13052678607152238 0
    outer loop
      vertex -89.5 84.5 80
      vertex -89.32962799072266 85.79409790039062 108.66203308105469
      vertex -89.32962799072266 85.79409790039062 80
    endloop
  endfacet
  facet normal -0.9914447831916001 0.13052678607152235 0
    outer loop
      vertex -89.32962799072266 85.79409790039062 108.66203308105469
      vertex -89.5 84.5 80
      vertex -89.5 84.5 108.875
    endloop
  endfacet
  facet normal -0.13052678607152235 0.9914447831916001 0
    outer loop
      vertex -84.5 89.5 80
      vertex -85.79409790039062 89.32962799072266 108.66203308105469
      vertex -84.5 89.5 108.875
    endloop
  endfacet
  facet normal -0.13052678607152238 0.9914447831916002 0
    outer loop
      vertex -85.79409790039062 89.32962799072266 108.66203308105469
      vertex -84.5 89.5 80
      vertex -85.79409790039062 89.32962799072266 80
    endloop
  endfacet
  facet normal -0.3826854496202838 -0.9238786969342465 0
    outer loop
      vertex -85.79409790039062 -89.32962799072266 80
      vertex -87 -88.83012390136719 108.03765869140625
      vertex -87 -88.83012390136719 80
    endloop
  endfacet
  facet normal -0.3826854496202837 -0.9238786969342464 0
    outer loop
      vertex -87 -88.83012390136719 108.03765869140625
      vertex -85.79409790039062 -89.32962799072266 80
      vertex -85.79409790039062 -89.32962799072266 108.66203308105469
    endloop
  endfacet
  facet normal 0.9914447831916002 -0.13052678607152238 0
    outer loop
      vertex 89.32962799072266 -85.79409790039062 87
      vertex 89.5 -84.5 80
      vertex 89.5 -84.5 87
    endloop
  endfacet
  facet normal 0.9914447831916002 -0.13052678607152238 0
    outer loop
      vertex 89.5 -84.5 80
      vertex 89.32962799072266 -85.79409790039062 87
      vertex 89.32962799072266 -85.79409790039062 80
    endloop
  endfacet
  facet normal 0.9914447831916001 -0.13052678607152235 0
    outer loop
      vertex 89.32962799072266 -85.79409790039062 108.66203308105469
      vertex 89.5 -84.5 97
      vertex 89.5 -84.5 108.875
    endloop
  endfacet
  facet normal 0.9914447831916001 -0.13052678607152235 0
    outer loop
      vertex 89.5 -84.5 97
      vertex 89.32962799072266 -85.79409790039062 108.66203308105469
      vertex 89.32962799072266 -85.79409790039062 97
    endloop
  endfacet
  facet normal 0.7933569877782133 -0.6087566754816575 0
    outer loop
      vertex 88.03553771972656 -88.03553771972656 107.04441833496094
      vertex 88.83012390136719 -87 97
      vertex 88.83012390136719 -87 108.03765869140625
    endloop
  endfacet
  facet normal 0.7933569877782133 -0.6087566754816573 0
    outer loop
      vertex 88.03553771972656 -88.03553771972656 80
      vertex 88.83012390136719 -87 97
      vertex 88.03553771972656 -88.03553771972656 107.04441833496094
    endloop
  endfacet
  facet normal 0.7933569877782133 -0.6087566754816573 0
    outer loop
      vertex 88.83012390136719 -87 97
      vertex 88.03553771972656 -88.03553771972656 80
      vertex 88.83012390136719 -87 87
    endloop
  endfacet
  facet normal 0.7933569877782133 -0.6087566754816573 0
    outer loop
      vertex 88.83012390136719 -87 87
      vertex 88.03553771972656 -88.03553771972656 80
      vertex 88.83012390136719 -87 80
    endloop
  endfacet
  facet normal 0.7933569877782133 0.6087566754816575 0
    outer loop
      vertex 88.83012390136719 87 97
      vertex 88.03553771972656 88.03553771972656 107.04441833496094
      vertex 88.83012390136719 87 108.03765869140625
    endloop
  endfacet
  facet normal 0.7933569877782133 0.6087566754816573 0
    outer loop
      vertex 88.03553771972656 88.03553771972656 107.04441833496094
      vertex 88.83012390136719 87 97
      vertex 88.03553771972656 88.03553771972656 80
    endloop
  endfacet
  facet normal 0.7933569877782133 0.6087566754816573 0
    outer loop
      vertex 88.83012390136719 87 87
      vertex 88.03553771972656 88.03553771972656 80
      vertex 88.83012390136719 87 97
    endloop
  endfacet
  facet normal 0.7933569877782133 0.6087566754816573 0
    outer loop
      vertex 88.03553771972656 88.03553771972656 80
      vertex 88.83012390136719 87 87
      vertex 88.83012390136719 87 80
    endloop
  endfacet
  facet normal -0.9238786969342465 -0.3826854496202838 0
    outer loop
      vertex -88.83012390136719 -87 108.03765869140625
      vertex -89.32962799072266 -85.79409790039062 80
      vertex -88.83012390136719 -87 80
    endloop
  endfacet
  facet normal -0.9238786969342464 -0.3826854496202837 0
    outer loop
      vertex -89.32962799072266 -85.79409790039062 80
      vertex -88.83012390136719 -87 108.03765869140625
      vertex -89.32962799072266 -85.79409790039062 108.66203308105469
    endloop
  endfacet
  facet normal 0.13052678607152238 0.9914447831916002 0
    outer loop
      vertex 84.5 89.5 80
      vertex 85.79409790039062 89.32962799072266 108.66203308105469
      vertex 85.79409790039062 89.32962799072266 80
    endloop
  endfacet
  facet normal 0.13052678607152235 0.9914447831916001 0
    outer loop
      vertex 85.79409790039062 89.32962799072266 108.66203308105469
      vertex 84.5 89.5 80
      vertex 84.5 89.5 108.875
    endloop
  endfacet
  facet normal -0.7933569877782133 0.6087566754816573 0
    outer loop
      vertex -88.83012390136719 87 80
      vertex -88.03553771972656 88.03553771972656 107.04441833496094
      vertex -88.03553771972656 88.03553771972656 80
    endloop
  endfacet
  facet normal -0.7933569877782132 0.6087566754816573 0
    outer loop
      vertex -88.03553771972656 88.03553771972656 107.04441833496094
      vertex -88.83012390136719 87 80
      vertex -88.83012390136719 87 108.03765869140625
    endloop
  endfacet
  facet normal 0.3826854496202837 -0.9238786969342464 0
    outer loop
      vertex 85.79409790039062 -89.32962799072266 80
      vertex 87 -88.83012390136719 108.03765869140625
      vertex 85.79409790039062 -89.32962799072266 108.66203308105469
    endloop
  endfacet
  facet normal 0.3826854496202838 -0.9238786969342465 0
    outer loop
      vertex 87 -88.83012390136719 108.03765869140625
      vertex 85.79409790039062 -89.32962799072266 80
      vertex 87 -88.83012390136719 80
    endloop
  endfacet
  facet normal -0.9914447831916002 -0.13052678607152238 0
    outer loop
      vertex -89.32962799072266 -85.79409790039062 108.66203308105469
      vertex -89.5 -84.5 80
      vertex -89.32962799072266 -85.79409790039062 80
    endloop
  endfacet
  facet normal -0.9914447831916001 -0.13052678607152235 0
    outer loop
      vertex -89.5 -84.5 80
      vertex -89.32962799072266 -85.79409790039062 108.66203308105469
      vertex -89.5 -84.5 108.875
    endloop
  endfacet
  facet normal 0 0 -1
    outer loop
      vertex 84.83012390136719 -83 80
      vertex 89.5 -84.5 80
      vertex 89.32962799072266 -85.79409790039062 80
    endloop
  endfacet
  facet normal 0 0 -1
    outer loop
      vertex 84.03553771972656 -84.03553771972656 80
      vertex 89.32962799072266 -85.79409790039062 80
      vertex 88.83012390136719 -87 80
    endloop
  endfacet
  facet normal 0 0 -1
    outer loop
      vertex 84.03553771972656 -84.03553771972656 80
      vertex 88.83012390136719 -87 80
      vertex 88.03553771972656 -88.03553771972656 80
    endloop
  endfacet
  facet normal 0 0 -1
    outer loop
      vertex 84.03553771972656 -84.03553771972656 80
      vertex 88.03553771972656 -88.03553771972656 80
      vertex 87 -88.83012390136719 80
    endloop
  endfacet
  facet normal 0 0 -1
    outer loop
      vertex 84.03553771972656 -84.03553771972656 80
      vertex 87 -88.83012390136719 80
      vertex 85.79409790039062 -89.32962799072266 80
    endloop
  endfacet
  facet normal 0 0 -1
    outer loop
      vertex 89.32962799072266 -85.79409790039062 80
      vertex 84.03553771972656 -84.03553771972656 80
      vertex 84.83012390136719 -83 80
    endloop
  endfacet
  facet normal 0 0 -1
    outer loop
      vertex 83 -84.83012390136719 80
      vertex 85.79409790039062 -89.32962799072266 80
      vertex 84.5 -89.5 80
    endloop
  endfacet
  facet normal 0 0 -1
    outer loop
      vertex 89.5 -84.5 80
      vertex 84.83012390136719 -83 80
      vertex 89.5 -83 80
    endloop
  endfacet
  facet normal 0 0 -1
    outer loop
      vertex 85.79409790039062 -89.32962799072266 80
      vertex 83 -84.83012390136719 80
      vertex 84.03553771972656 -84.03553771972656 80
    endloop
  endfacet
  facet normal 0 0 -1
    outer loop
      vertex 84.5 -89.5 80
      vertex 81.79409790039062 -85.32962799072266 80
      vertex 83 -84.83012390136719 80
    endloop
  endfacet
  facet normal 0 0 -1
    outer loop
      vertex 84.5 -89.5 80
      vertex 80.5 -85.5 80
      vertex 81.79409790039062 -85.32962799072266 80
    endloop
  endfacet
  facet normal 0 0 -1
    outer loop
      vertex 84.5 -89.5 80
      vertex -80.5 -85.5 80
      vertex 80.5 -85.5 80
    endloop
  endfacet
  facet normal 0 0 -1
    outer loop
      vertex -84.5 -89.5 80
      vertex -80.5 -85.5 80
      vertex 84.5 -89.5 80
    endloop
  endfacet
  facet normal 0 0 -1
    outer loop
      vertex -84.5 -89.5 80
      vertex -81.79409790039062 -85.32962799072266 80
      vertex -80.5 -85.5 80
    endloop
  endfacet
  facet normal 0 0 -1
    outer loop
      vertex -84.5 -89.5 80
      vertex -83 -84.83012390136719 80
      vertex -81.79409790039062 -85.32962799072266 80
    endloop
  endfacet
  facet normal 0 0 -1
    outer loop
      vertex -85.79409790039062 -89.32962799072266 80
      vertex -83 -84.83012390136719 80
      vertex -84.5 -89.5 80
    endloop
  endfacet
  facet normal 0 0 -1
    outer loop
      vertex -83 -84.83012390136719 80
      vertex -85.79409790039062 -89.32962799072266 80
      vertex -84.03553771972656 -84.03553771972656 80
    endloop
  endfacet
  facet normal 0 0 -1
    outer loop
      vertex -87 -88.83012390136719 80
      vertex -84.03553771972656 -84.03553771972656 80
      vertex -85.79409790039062 -89.32962799072266 80
    endloop
  endfacet
  facet normal 0 0 -1
    outer loop
      vertex -88.03553771972656 -88.03553771972656 80
      vertex -84.03553771972656 -84.03553771972656 80
      vertex -87 -88.83012390136719 80
    endloop
  endfacet
  facet normal 0 0 -1
    outer loop
      vertex -89.32962799072266 -85.79409790039062 80
      vertex -84.03553771972656 -84.03553771972656 80
      vertex -88.83012390136719 -87 80
    endloop
  endfacet
  facet normal 0 0 -1
    outer loop
      vertex -88.83012390136719 -87 80
      vertex -84.03553771972656 -84.03553771972656 80
      vertex -88.03553771972656 -88.03553771972656 80
    endloop
  endfacet
  facet normal 0 0 -1
    outer loop
      vertex 84.83012390136719 83 80
      vertex 89.5 84.5 80
      vertex 89.5 83 80
    endloop
  endfacet
  facet normal 0 0 -1
    outer loop
      vertex 89.5 84.5 80
      vertex 84.83012390136719 83 80
      vertex 89.32962799072266 85.79409790039062 80
    endloop
  endfacet
  facet normal 0 0 -1
    outer loop
      vertex 84.03553771972656 84.03553771972656 80
      vertex 89.32962799072266 85.79409790039062 80
      vertex 84.83012390136719 83 80
    endloop
  endfacet
  facet normal 0 0 -1
    outer loop
      vertex 89.32962799072266 85.79409790039062 80
      vertex 84.03553771972656 84.03553771972656 80
      vertex 88.83012390136719 87 80
    endloop
  endfacet
  facet normal 0 0 -1
    outer loop
      vertex 88.83012390136719 87 80
      vertex 84.03553771972656 84.03553771972656 80
      vertex 88.03553771972656 88.03553771972656 80
    endloop
  endfacet
  facet normal 0 0 -1
    outer loop
      vertex 88.03553771972656 88.03553771972656 80
      vertex 84.03553771972656 84.03553771972656 80
      vertex 87 88.83012390136719 80
    endloop
  endfacet
  facet normal 0 0 -1
    outer loop
      vertex 87 88.83012390136719 80
      vertex 84.03553771972656 84.03553771972656 80
      vertex 85.79409790039062 89.32962799072266 80
    endloop
  endfacet
  facet normal 0 0 -1
    outer loop
      vertex 83 84.83012390136719 80
      vertex 85.79409790039062 89.32962799072266 80
      vertex 84.03553771972656 84.03553771972656 80
    endloop
  endfacet
  facet normal 0 0 -1
    outer loop
      vertex 85.79409790039062 89.32962799072266 80
      vertex 83 84.83012390136719 80
      vertex 84.5 89.5 80
    endloop
  endfacet
  facet normal 0 0 -1
    outer loop
      vertex 81.79409790039062 85.32962799072266 80
      vertex 84.5 89.5 80
      vertex 83 84.83012390136719 80
    endloop
  endfacet
  facet normal 0 0 -1
    outer loop
      vertex 80.5 85.5 80
      vertex 84.5 89.5 80
      vertex 81.79409790039062 85.32962799072266 80
    endloop
  endfacet
  facet normal 0 0 -1
    outer loop
      vertex -80.5 85.5 80
      vertex 84.5 89.5 80
      vertex 80.5 85.5 80
    endloop
  endfacet
  facet normal 0 0 -1
    outer loop
      vertex -80.5 85.5 80
      vertex -84.5 89.5 80
      vertex 84.5 89.5 80
    endloop
  endfacet
  facet normal 0 0 -1
    outer loop
      vertex -81.79409790039062 85.32962799072266 80
      vertex -84.5 89.5 80
      vertex -80.5 85.5 80
    endloop
  endfacet
  facet normal 0 0 -1
    outer loop
      vertex -83 84.83012390136719 80
      vertex -84.5 89.5 80
      vertex -81.79409790039062 85.32962799072266 80
    endloop
  endfacet
  facet normal 0 0 -1
    outer loop
      vertex -85.79409790039062 89.32962799072266 80
      vertex -83 84.83012390136719 80
      vertex -84.03553771972656 84.03553771972656 80
    endloop
  endfacet
  facet normal 0 0 -1
    outer loop
      vertex -89.32962799072266 85.79409790039062 80
      vertex -84.03553771972656 84.03553771972656 80
      vertex -84.83012390136719 83 80
    endloop
  endfacet
  facet normal 0 0 -1
    outer loop
      vertex -89.5 84.5 80
      vertex -84.83012390136719 83 80
      vertex -85.32962799072266 81.79409790039062 80
    endloop
  endfacet
  facet normal 0 0 -1
    outer loop
      vertex -89.5 84.5 80
      vertex -85.32962799072266 81.79409790039062 80
      vertex -85.5 80.5 80
    endloop
  endfacet
  facet normal 0 0 -1
    outer loop
      vertex -83 84.83012390136719 80
      vertex -85.79409790039062 89.32962799072266 80
      vertex -84.5 89.5 80
    endloop
  endfacet
  facet normal 0 0 -1
    outer loop
      vertex -85.5 -80.5 80
      vertex -89.5 -84.5 80
      vertex -85.5 80.5 80
    endloop
  endfacet
  facet normal 0 0 -1
    outer loop
      vertex -84.03553771972656 -84.03553771972656 80
      vertex -89.32962799072266 -85.79409790039062 80
      vertex -84.83012390136719 -83 80
    endloop
  endfacet
  facet normal 0 0 -1
    outer loop
      vertex -89.5 84.5 80
      vertex -85.5 80.5 80
      vertex -89.5 -84.5 80
    endloop
  endfacet
  facet normal 0 0 -1
    outer loop
      vertex -89.5 -84.5 80
      vertex -84.83012390136719 -83 80
      vertex -89.32962799072266 -85.79409790039062 80
    endloop
  endfacet
  facet normal 0 0 -1
    outer loop
      vertex -84.83012390136719 83 80
      vertex -89.5 84.5 80
      vertex -89.32962799072266 85.79409790039062 80
    endloop
  endfacet
  facet normal 0 0 -1
    outer loop
      vertex -84.83012390136719 -83 80
      vertex -89.5 -84.5 80
      vertex -85.32962799072266 -81.79409790039062 80
    endloop
  endfacet
  facet normal 0 0 -1
    outer loop
      vertex -84.03553771972656 84.03553771972656 80
      vertex -87 88.83012390136719 80
      vertex -85.79409790039062 89.32962799072266 80
    endloop
  endfacet
  facet normal 0 0 -1
    outer loop
      vertex -85.32962799072266 -81.79409790039062 80
      vertex -89.5 -84.5 80
      vertex -85.5 -80.5 80
    endloop
  endfacet
  facet normal 0 0 -1
    outer loop
      vertex -84.03553771972656 84.03553771972656 80
      vertex -88.03553771972656 88.03553771972656 80
      vertex -87 88.83012390136719 80
    endloop
  endfacet
  facet normal 0 0 -1
    outer loop
      vertex -84.03553771972656 84.03553771972656 80
      vertex -88.83012390136719 87 80
      vertex -88.03553771972656 88.03553771972656 80
    endloop
  endfacet
  facet normal 0 0 -1
    outer loop
      vertex -84.03553771972656 84.03553771972656 80
      vertex -89.32962799072266 85.79409790039062 80
      vertex -88.83012390136719 87 80
    endloop
  endfacet
  facet normal -0.13052678607152238 -0.9914447831916002 0
    outer loop
      vertex -84.5 -89.5 80
      vertex -85.79409790039062 -89.32962799072266 108.66203308105469
      vertex -85.79409790039062 -89.32962799072266 80
    endloop
  endfacet
  facet normal -0.13052678607152235 -0.9914447831916001 0
    outer loop
      vertex -85.79409790039062 -89.32962799072266 108.66203308105469
      vertex -84.5 -89.5 80
      vertex -84.5 -89.5 108.875
    endloop
  endfacet
  facet normal 0.6087566754816573 -0.7933569877782132 0
    outer loop
      vertex 87 -88.83012390136719 80
      vertex 88.03553771972656 -88.03553771972656 107.04441833496094
      vertex 87 -88.83012390136719 108.03765869140625
    endloop
  endfacet
  facet normal 0.6087566754816573 -0.7933569877782133 0
    outer loop
      vertex 88.03553771972656 -88.03553771972656 107.04441833496094
      vertex 87 -88.83012390136719 80
      vertex 88.03553771972656 -88.03553771972656 80
    endloop
  endfacet
  facet normal -0.9238786969342465 0.3826854496202838 0
    outer loop
      vertex -89.32962799072266 85.79409790039062 80
      vertex -88.83012390136719 87 108.03765869140625
      vertex -88.83012390136719 87 80
    endloop
  endfacet
  facet normal -0.9238786969342464 0.3826854496202837 0
    outer loop
      vertex -88.83012390136719 87 108.03765869140625
      vertex -89.32962799072266 85.79409790039062 80
      vertex -89.32962799072266 85.79409790039062 108.66203308105469
    endloop
  endfacet
  facet normal 0.9238786969342465 0.3826854496202838 0
    outer loop
      vertex 89.32962799072266 85.79409790039062 87
      vertex 88.83012390136719 87 80
      vertex 88.83012390136719 87 87
    endloop
  endfacet
  facet normal 0.9238786969342465 0.3826854496202838 0
    outer loop
      vertex 88.83012390136719 87 80
      vertex 89.32962799072266 85.79409790039062 87
      vertex 89.32962799072266 85.79409790039062 80
    endloop
  endfacet
  facet normal 0.9238786969342464 0.3826854496202837 0
    outer loop
      vertex 89.32962799072266 85.79409790039062 97
      vertex 88.83012390136719 87 108.03765869140625
      vertex 89.32962799072266 85.79409790039062 108.66203308105469
    endloop
  endfacet
  facet normal 0.9238786969342465 0.3826854496202838 0
    outer loop
      vertex 88.83012390136719 87 108.03765869140625
      vertex 89.32962799072266 85.79409790039062 97
      vertex 88.83012390136719 87 97
    endloop
  endfacet
  facet normal 0 0.7839186428375278 0.6208635610275163
    outer loop
      vertex 196.41600036621094 -196.41600036621094 247
      vertex 80.5 -85.5 106.95454406738281
      vertex -196.41600036621094 -196.41600036621094 247
    endloop
  endfacet
  facet normal -0.000002275684969115709 0.7839177260788333 0.6208647185452018
    outer loop
      vertex 196.41600036621094 -196.41600036621094 247
      vertex 81.79409790039062 -85.32962799072266 106.73943328857422
      vertex 80.5 -85.5 106.95454406738281
    endloop
  endfacet
  facet normal -0.0000011046203542729736 0.7839181918601779 0.6208641304419585
    outer loop
      vertex 196.41600036621094 -196.41600036621094 247
      vertex 83 -84.83012390136719 106.10874938964844
      vertex 81.79409790039062 -85.32962799072266 106.73943328857422
    endloop
  endfacet
  facet normal 0.00000515798833064827 0.7839206454970388 0.6208610323872011
    outer loop
      vertex 83 -84.83012390136719 106.10874938964844
      vertex 196.41600036621094 -196.41600036621094 247
      vertex 84.03553771972656 -84.03553771972656 105.10546875
    endloop
  endfacet
  facet normal 0 0.7839186428375279 0.6208635610275163
    outer loop
      vertex -80.5 -85.5 106.95454406738281
      vertex -196.41600036621094 -196.41600036621094 247
      vertex 80.5 -85.5 106.95454406738281
    endloop
  endfacet
  facet normal 0.000002275684969115709 0.7839177260788333 0.6208647185452018
    outer loop
      vertex -81.79409790039062 -85.32962799072266 106.73943328857422
      vertex -196.41600036621094 -196.41600036621094 247
      vertex -80.5 -85.5 106.95454406738281
    endloop
  endfacet
  facet normal 0.0000011046203542729736 0.7839181918601779 0.6208641304419585
    outer loop
      vertex -83 -84.83012390136719 106.10874938964844
      vertex -196.41600036621094 -196.41600036621094 247
      vertex -81.79409790039062 -85.32962799072266 106.73943328857422
    endloop
  endfacet
  facet normal -0.00000515798833064827 0.7839206454970388 0.6208610323872011
    outer loop
      vertex -196.41600036621094 -196.41600036621094 247
      vertex -83 -84.83012390136719 106.10874938964844
      vertex -84.03553771972656 -84.03553771972656 105.10546875
    endloop
  endfacet
  facet normal 0 -0.7839186428375278 0.6208635610275163
    outer loop
      vertex -196.41600036621094 196.41600036621094 247
      vertex -80.5 85.5 106.95454406738281
      vertex 196.41600036621094 196.41600036621094 247
    endloop
  endfacet
  facet normal 0.000002275684969115709 -0.7839177260788333 0.6208647185452018
    outer loop
      vertex -196.41600036621094 196.41600036621094 247
      vertex -81.79409790039062 85.32962799072266 106.73943328857422
      vertex -80.5 85.5 106.95454406738281
    endloop
  endfacet
  facet normal 0.0000011046203542729736 -0.7839181918601779 0.6208641304419585
    outer loop
      vertex -196.41600036621094 196.41600036621094 247
      vertex -83 84.83012390136719 106.10874938964844
      vertex -81.79409790039062 85.32962799072266 106.73943328857422
    endloop
  endfacet
  facet normal -0.00000515798833064827 -0.7839206454970388 0.6208610323872011
    outer loop
      vertex -83 84.83012390136719 106.10874938964844
      vertex -196.41600036621094 196.41600036621094 247
      vertex -84.03553771972656 84.03553771972656 105.10546875
    endloop
  endfacet
  facet normal 0 -0.7839186428375279 0.6208635610275163
    outer loop
      vertex 80.5 85.5 106.95454406738281
      vertex 196.41600036621094 196.41600036621094 247
      vertex -80.5 85.5 106.95454406738281
    endloop
  endfacet
  facet normal -0.000002275684969115709 -0.7839177260788333 0.6208647185452018
    outer loop
      vertex 81.79409790039062 85.32962799072266 106.73943328857422
      vertex 196.41600036621094 196.41600036621094 247
      vertex 80.5 85.5 106.95454406738281
    endloop
  endfacet
  facet normal -0.0000011046203542729736 -0.7839181918601779 0.6208641304419585
    outer loop
      vertex 83 84.83012390136719 106.10874938964844
      vertex 196.41600036621094 196.41600036621094 247
      vertex 81.79409790039062 85.32962799072266 106.73943328857422
    endloop
  endfacet
  facet normal 0.00000515798833064827 -0.7839206454970388 0.6208610323872011
    outer loop
      vertex 196.41600036621094 196.41600036621094 247
      vertex 83 84.83012390136719 106.10874938964844
      vertex 84.03553771972656 84.03553771972656 105.10546875
    endloop
  endfacet
  facet normal -0.7839206454970388 0.00000515798833064827 0.6208610323872011
    outer loop
      vertex 84.83012390136719 83 106.10874938964844
      vertex 196.41600036621094 196.41600036621094 247
      vertex 84.03553771972656 84.03553771972656 105.10546875
    endloop
  endfacet
  facet normal -0.7839181918601779 -0.0000011046203542729736 0.6208641304419585
    outer loop
      vertex 85.32962799072266 81.79409790039062 106.73943328857422
      vertex 196.41600036621094 196.41600036621094 247
      vertex 84.83012390136719 83 106.10874938964844
    endloop
  endfacet
  facet normal -0.7839177260788333 -0.000002275684969115709 0.6208647185452018
    outer loop
      vertex 85.5 80.5 106.95454406738281
      vertex 196.41600036621094 196.41600036621094 247
      vertex 85.32962799072266 81.79409790039062 106.73943328857422
    endloop
  endfacet
  facet normal -0.7839186428375279 0 0.6208635610275163
    outer loop
      vertex 85.5 -80.5 106.95454406738281
      vertex 196.41600036621094 196.41600036621094 247
      vertex 85.5 80.5 106.95454406738281
    endloop
  endfacet
  facet normal -0.7839177260788333 0.000002275684969115709 0.6208647185452018
    outer loop
      vertex 196.41600036621094 -196.41600036621094 247
      vertex 85.5 -80.5 106.95454406738281
      vertex 85.32962799072266 -81.79409790039062 106.73943328857422
    endloop
  endfacet
  facet normal -0.7839186428375278 0 0.6208635610275163
    outer loop
      vertex 85.5 -80.5 106.95454406738281
      vertex 196.41600036621094 -196.41600036621094 247
      vertex 196.41600036621094 196.41600036621094 247
    endloop
  endfacet
  facet normal -0.7839181918601779 0.0000011046203542729736 0.6208641304419585
    outer loop
      vertex 84.83012390136719 -83 106.10874938964844
      vertex 196.41600036621094 -196.41600036621094 247
      vertex 85.32962799072266 -81.79409790039062 106.73943328857422
    endloop
  endfacet
  facet normal -0.7839206454970388 -0.00000515798833064827 0.6208610323872011
    outer loop
      vertex 196.41600036621094 -196.41600036621094 247
      vertex 84.83012390136719 -83 106.10874938964844
      vertex 84.03553771972656 -84.03553771972656 105.10546875
    endloop
  endfacet
  facet normal 0.7839206454970388 0.00000515798833064827 0.6208610323872011
    outer loop
      vertex -196.41600036621094 196.41600036621094 247
      vertex -84.83012390136719 83 106.10874938964844
      vertex -84.03553771972656 84.03553771972656 105.10546875
    endloop
  endfacet
  facet normal 0.7839181918601779 -0.0000011046203542729736 0.6208641304419585
    outer loop
      vertex -196.41600036621094 196.41600036621094 247
      vertex -85.32962799072266 81.79409790039062 106.73943328857422
      vertex -84.83012390136719 83 106.10874938964844
    endloop
  endfacet
  facet normal 0.7839177260788333 -0.000002275684969115709 0.6208647185452018
    outer loop
      vertex -196.41600036621094 196.41600036621094 247
      vertex -85.5 80.5 106.95454406738281
      vertex -85.32962799072266 81.79409790039062 106.73943328857422
    endloop
  endfacet
  facet normal 0.7839186428375279 0 0.6208635610275163
    outer loop
      vertex -196.41600036621094 196.41600036621094 247
      vertex -85.5 -80.5 106.95454406738281
      vertex -85.5 80.5 106.95454406738281
    endloop
  endfacet
  facet normal 0.7839186428375278 0 0.6208635610275163
    outer loop
      vertex -196.41600036621094 -196.41600036621094 247
      vertex -85.5 -80.5 106.95454406738281
      vertex -196.41600036621094 196.41600036621094 247
    endloop
  endfacet
  facet normal 0.7839206454970388 -0.00000515798833064827 0.6208610323872011
    outer loop
      vertex -84.83012390136719 -83 106.10874938964844
      vertex -196.41600036621094 -196.41600036621094 247
      vertex -84.03553771972656 -84.03553771972656 105.10546875
    endloop
  endfacet
  facet normal 0.7839181918601779 0.0000011046203542729736 0.6208641304419585
    outer loop
      vertex -85.32962799072266 -81.79409790039062 106.73943328857422
      vertex -196.41600036621094 -196.41600036621094 247
      vertex -84.83012390136719 -83 106.10874938964844
    endloop
  endfacet
  facet normal 0.7839177260788333 0.000002275684969115709 0.6208647185452018
    outer loop
      vertex -85.5 -80.5 106.95454406738281
      vertex -196.41600036621094 -196.41600036621094 247
      vertex -85.32962799072266 -81.79409790039062 106.73943328857422
    endloop
  endfacet
  facet normal -0.6087566754816573 0.7933569877782133 0
    outer loop
      vertex 83 -84.83012390136719 97
      vertex 84.03553771972656 -84.03553771972656 105.10546875
      vertex 84.03553771972656 -84.03553771972656 97
    endloop
  endfacet
  facet normal -0.6087566754816573 0.7933569877782133 0
    outer loop
      vertex 84.03553771972656 -84.03553771972656 105.10546875
      vertex 83 -84.83012390136719 97
      vertex 83 -84.83012390136719 106.10874938964844
    endloop
  endfacet
  facet normal -0.6087566754816573 0.7933569877782133 0
    outer loop
      vertex 84.03553771972656 -84.03553771972656 80
      vertex 83 -84.83012390136719 87
      vertex 84.03553771972656 -84.03553771972656 87
    endloop
  endfacet
  facet normal -0.6087566754816573 0.7933569877782133 0
    outer loop
      vertex 83 -84.83012390136719 87
      vertex 84.03553771972656 -84.03553771972656 80
      vertex 83 -84.83012390136719 80
    endloop
  endfacet
  facet normal -0.9914447831916001 -0.13052678607152235 0
    outer loop
      vertex 85.5 80.5 102
      vertex 85.32962799072266 81.79409790039062 106.73943328857422
      vertex 85.32962799072266 81.79409790039062 102
    endloop
  endfacet
  facet normal -0.9914447831916001 -0.13052678607152235 0
    outer loop
      vertex 85.32962799072266 81.79409790039062 106.73943328857422
      vertex 85.5 80.5 102
      vertex 85.5 80.5 106.95454406738281
    endloop
  endfacet
  facet normal 0.3826854496202837 0.9238786969342465 0
    outer loop
      vertex -81.79409790039062 -85.32962799072266 97
      vertex -83 -84.83012390136719 106.10874938964844
      vertex -81.79409790039062 -85.32962799072266 106.73943328857422
    endloop
  endfacet
  facet normal 0.3826854496202837 0.9238786969342464 0
    outer loop
      vertex -83 -84.83012390136719 106.10874938964844
      vertex -81.79409790039062 -85.32962799072266 97
      vertex -83 -84.83012390136719 97
    endloop
  endfacet
  facet normal 0.3826854496202838 0.9238786969342465 0
    outer loop
      vertex -81.79409790039062 -85.32962799072266 80
      vertex -83 -84.83012390136719 87
      vertex -81.79409790039062 -85.32962799072266 87
    endloop
  endfacet
  facet normal 0.3826854496202838 0.9238786969342465 0
    outer loop
      vertex -83 -84.83012390136719 87
      vertex -81.79409790039062 -85.32962799072266 80
      vertex -83 -84.83012390136719 80
    endloop
  endfacet
  facet normal -1 0 0
    outer loop
      vertex 85.5 -80.5 102
      vertex 85.5 80.5 106.95454406738281
      vertex 85.5 80.5 102
    endloop
  endfacet
  facet normal -1 0 0
    outer loop
      vertex 85.5 80.5 106.95454406738281
      vertex 85.5 -80.5 102
      vertex 85.5 -80.5 106.95454406738281
    endloop
  endfacet
  facet normal 1 0 0
    outer loop
      vertex -85.5 -80.5 106.95454406738281
      vertex -85.5 80.5 97
      vertex -85.5 80.5 106.95454406738281
    endloop
  endfacet
  facet normal 1 0 0
    outer loop
      vertex -85.5 80.5 97
      vertex -85.5 -80.5 106.95454406738281
      vertex -85.5 -80.5 97
    endloop
  endfacet
  facet normal 1 0 0
    outer loop
      vertex -85.5 -80.5 87
      vertex -85.5 80.5 80
      vertex -85.5 80.5 87
    endloop
  endfacet
  facet normal 1 0 0
    outer loop
      vertex -85.5 80.5 80
      vertex -85.5 -80.5 87
      vertex -85.5 -80.5 80
    endloop
  endfacet
  facet normal 0 1 0
    outer loop
      vertex 80.5 -85.5 97
      vertex -80.5 -85.5 106.95454406738281
      vertex 80.5 -85.5 106.95454406738281
    endloop
  endfacet
  facet normal 0 1 0
    outer loop
      vertex -80.5 -85.5 106.95454406738281
      vertex 80.5 -85.5 97
      vertex -80.5 -85.5 97
    endloop
  endfacet
  facet normal 0 1 0
    outer loop
      vertex 80.5 -85.5 80
      vertex -80.5 -85.5 87
      vertex 80.5 -85.5 87
    endloop
  endfacet
  facet normal 0 1 0
    outer loop
      vertex -80.5 -85.5 87
      vertex 80.5 -85.5 80
      vertex -80.5 -85.5 80
    endloop
  endfacet
  facet normal 0 -1 0
    outer loop
      vertex -80.5 85.5 97
      vertex 80.5 85.5 106.95454406738281
      vertex -80.5 85.5 106.95454406738281
    endloop
  endfacet
  facet normal 0 -1 0
    outer loop
      vertex 80.5 85.5 106.95454406738281
      vertex -80.5 85.5 97
      vertex 80.5 85.5 97
    endloop
  endfacet
  facet normal 0 -1 0
    outer loop
      vertex -80.5 85.5 80
      vertex 80.5 85.5 87
      vertex -80.5 85.5 87
    endloop
  endfacet
  facet normal 0 -1 0
    outer loop
      vertex 80.5 85.5 87
      vertex -80.5 85.5 80
      vertex 80.5 85.5 80
    endloop
  endfacet
  facet normal -0.9914447831916001 0.13052678607152235 0
    outer loop
      vertex 85.32962799072266 -81.79409790039062 106.73943328857422
      vertex 85.5 -80.5 102
      vertex 85.32962799072266 -81.79409790039062 102
    endloop
  endfacet
  facet normal -0.9914447831916001 0.13052678607152235 0
    outer loop
      vertex 85.5 -80.5 102
      vertex 85.32962799072266 -81.79409790039062 106.73943328857422
      vertex 85.5 -80.5 106.95454406738281
    endloop
  endfacet
  facet normal 0.9238786969342465 -0.3826854496202837 0
    outer loop
      vertex -85.32962799072266 81.79409790039062 97
      vertex -84.83012390136719 83 106.10874938964844
      vertex -85.32962799072266 81.79409790039062 106.73943328857422
    endloop
  endfacet
  facet normal 0.9238786969342464 -0.3826854496202837 0
    outer loop
      vertex -84.83012390136719 83 106.10874938964844
      vertex -85.32962799072266 81.79409790039062 97
      vertex -84.83012390136719 83 97
    endloop
  endfacet
  facet normal 0.9238786969342465 -0.3826854496202838 0
    outer loop
      vertex -85.32962799072266 81.79409790039062 87
      vertex -84.83012390136719 83 80
      vertex -84.83012390136719 83 87
    endloop
  endfacet
  facet normal 0.9238786969342465 -0.3826854496202838 0
    outer loop
      vertex -84.83012390136719 83 80
      vertex -85.32962799072266 81.79409790039062 87
      vertex -85.32962799072266 81.79409790039062 80
    endloop
  endfacet
  facet normal -0.9238786969342464 -0.3826854496202837 0
    outer loop
      vertex 85.32962799072266 81.79409790039062 102
      vertex 84.83012390136719 83 106.10874938964844
      vertex 84.83012390136719 83 102
    endloop
  endfacet
  facet normal -0.9238786969342465 -0.3826854496202838 0
    outer loop
      vertex 84.83012390136719 83 106.10874938964844
      vertex 85.32962799072266 81.79409790039062 102
      vertex 85.32962799072266 81.79409790039062 106.73943328857422
    endloop
  endfacet
  facet normal 0.9914447831916001 -0.13052678607152235 0
    outer loop
      vertex -85.5 80.5 97
      vertex -85.32962799072266 81.79409790039062 106.73943328857422
      vertex -85.5 80.5 106.95454406738281
    endloop
  endfacet
  facet normal 0.9914447831916002 -0.13052678607152238 0
    outer loop
      vertex -85.32962799072266 81.79409790039062 106.73943328857422
      vertex -85.5 80.5 97
      vertex -85.32962799072266 81.79409790039062 97
    endloop
  endfacet
  facet normal 0.9914447831916002 -0.13052678607152238 0
    outer loop
      vertex -85.5 80.5 87
      vertex -85.32962799072266 81.79409790039062 80
      vertex -85.32962799072266 81.79409790039062 87
    endloop
  endfacet
  facet normal 0.9914447831916002 -0.13052678607152238 0
    outer loop
      vertex -85.32962799072266 81.79409790039062 80
      vertex -85.5 80.5 87
      vertex -85.5 80.5 80
    endloop
  endfacet
  facet normal 0.6087566754816573 0.7933569877782133 0
    outer loop
      vertex -83 -84.83012390136719 97
      vertex -84.03553771972656 -84.03553771972656 105.10546875
      vertex -83 -84.83012390136719 106.10874938964844
    endloop
  endfacet
  facet normal 0.6087566754816573 0.7933569877782133 0
    outer loop
      vertex -84.03553771972656 -84.03553771972656 105.10546875
      vertex -83 -84.83012390136719 97
      vertex -84.03553771972656 -84.03553771972656 97
    endloop
  endfacet
  facet normal 0.6087566754816573 0.7933569877782133 0
    outer loop
      vertex -83 -84.83012390136719 80
      vertex -84.03553771972656 -84.03553771972656 87
      vertex -83 -84.83012390136719 87
    endloop
  endfacet
  facet normal 0.6087566754816573 0.7933569877782133 0
    outer loop
      vertex -84.03553771972656 -84.03553771972656 87
      vertex -83 -84.83012390136719 80
      vertex -84.03553771972656 -84.03553771972656 80
    endloop
  endfacet
  facet normal -0.3826854496202837 -0.9238786969342465 0
    outer loop
      vertex 81.79409790039062 85.32962799072266 97
      vertex 83 84.83012390136719 106.10874938964844
      vertex 81.79409790039062 85.32962799072266 106.73943328857422
    endloop
  endfacet
  facet normal -0.3826854496202837 -0.9238786969342464 0
    outer loop
      vertex 83 84.83012390136719 106.10874938964844
      vertex 81.79409790039062 85.32962799072266 97
      vertex 83 84.83012390136719 97
    endloop
  endfacet
  facet normal -0.3826854496202838 -0.9238786969342465 0
    outer loop
      vertex 81.79409790039062 85.32962799072266 80
      vertex 83 84.83012390136719 87
      vertex 81.79409790039062 85.32962799072266 87
    endloop
  endfacet
  facet normal -0.3826854496202838 -0.9238786969342465 0
    outer loop
      vertex 83 84.83012390136719 87
      vertex 81.79409790039062 85.32962799072266 80
      vertex 83 84.83012390136719 80
    endloop
  endfacet
  facet normal -0.9238786969342464 0.3826854496202837 0
    outer loop
      vertex 84.83012390136719 -83 106.10874938964844
      vertex 85.32962799072266 -81.79409790039062 102
      vertex 84.83012390136719 -83 102
    endloop
  endfacet
  facet normal -0.9238786969342465 0.3826854496202838 0
    outer loop
      vertex 85.32962799072266 -81.79409790039062 102
      vertex 84.83012390136719 -83 106.10874938964844
      vertex 85.32962799072266 -81.79409790039062 106.73943328857422
    endloop
  endfacet
  facet normal -0.3826854496202837 0.9238786969342464 0
    outer loop
      vertex 81.79409790039062 -85.32962799072266 97
      vertex 83 -84.83012390136719 106.10874938964844
      vertex 83 -84.83012390136719 97
    endloop
  endfacet
  facet normal -0.3826854496202837 0.9238786969342465 0
    outer loop
      vertex 83 -84.83012390136719 106.10874938964844
      vertex 81.79409790039062 -85.32962799072266 97
      vertex 81.79409790039062 -85.32962799072266 106.73943328857422
    endloop
  endfacet
  facet normal -0.3826854496202838 0.9238786969342465 0
    outer loop
      vertex 83 -84.83012390136719 80
      vertex 81.79409790039062 -85.32962799072266 87
      vertex 83 -84.83012390136719 87
    endloop
  endfacet
  facet normal -0.3826854496202838 0.9238786969342465 0
    outer loop
      vertex 81.79409790039062 -85.32962799072266 87
      vertex 83 -84.83012390136719 80
      vertex 81.79409790039062 -85.32962799072266 80
    endloop
  endfacet
  facet normal 0.7933569877782133 0.6087566754816573 0
    outer loop
      vertex -84.03553771972656 -84.03553771972656 105.10546875
      vertex -84.83012390136719 -83 97
      vertex -84.83012390136719 -83 106.10874938964844
    endloop
  endfacet
  facet normal 0.7933569877782133 0.6087566754816573 0
    outer loop
      vertex -84.83012390136719 -83 97
      vertex -84.03553771972656 -84.03553771972656 105.10546875
      vertex -84.03553771972656 -84.03553771972656 97
    endloop
  endfacet
  facet normal 0.7933569877782133 0.6087566754816573 0
    outer loop
      vertex -84.03553771972656 -84.03553771972656 87
      vertex -84.83012390136719 -83 80
      vertex -84.83012390136719 -83 87
    endloop
  endfacet
  facet normal 0.7933569877782133 0.6087566754816573 0
    outer loop
      vertex -84.83012390136719 -83 80
      vertex -84.03553771972656 -84.03553771972656 87
      vertex -84.03553771972656 -84.03553771972656 80
    endloop
  endfacet
  facet normal -0.6087566754816573 -0.7933569877782133 0
    outer loop
      vertex 83 84.83012390136719 97
      vertex 84.03553771972656 84.03553771972656 105.10546875
      vertex 83 84.83012390136719 106.10874938964844
    endloop
  endfacet
  facet normal -0.6087566754816573 -0.7933569877782133 0
    outer loop
      vertex 84.03553771972656 84.03553771972656 105.10546875
      vertex 83 84.83012390136719 97
      vertex 84.03553771972656 84.03553771972656 97
    endloop
  endfacet
  facet normal -0.6087566754816573 -0.7933569877782133 0
    outer loop
      vertex 83 84.83012390136719 80
      vertex 84.03553771972656 84.03553771972656 87
      vertex 83 84.83012390136719 87
    endloop
  endfacet
  facet normal -0.6087566754816573 -0.7933569877782133 0
    outer loop
      vertex 84.03553771972656 84.03553771972656 87
      vertex 83 84.83012390136719 80
      vertex 84.03553771972656 84.03553771972656 80
    endloop
  endfacet
  facet normal 0.9238786969342465 0.3826854496202837 0
    outer loop
      vertex -84.83012390136719 -83 106.10874938964844
      vertex -85.32962799072266 -81.79409790039062 97
      vertex -85.32962799072266 -81.79409790039062 106.73943328857422
    endloop
  endfacet
  facet normal 0.9238786969342464 0.3826854496202837 0
    outer loop
      vertex -85.32962799072266 -81.79409790039062 97
      vertex -84.83012390136719 -83 106.10874938964844
      vertex -84.83012390136719 -83 97
    endloop
  endfacet
  facet normal 0.9238786969342465 0.3826854496202838 0
    outer loop
      vertex -84.83012390136719 -83 87
      vertex -85.32962799072266 -81.79409790039062 80
      vertex -85.32962799072266 -81.79409790039062 87
    endloop
  endfacet
  facet normal 0.9238786969342465 0.3826854496202838 0
    outer loop
      vertex -85.32962799072266 -81.79409790039062 80
      vertex -84.83012390136719 -83 87
      vertex -84.83012390136719 -83 80
    endloop
  endfacet
  facet normal 0.13052678607152235 0.9914447831916001 0
    outer loop
      vertex -80.5 -85.5 97
      vertex -81.79409790039062 -85.32962799072266 106.73943328857422
      vertex -80.5 -85.5 106.95454406738281
    endloop
  endfacet
  facet normal 0.13052678607152238 0.9914447831916002 0
    outer loop
      vertex -81.79409790039062 -85.32962799072266 106.73943328857422
      vertex -80.5 -85.5 97
      vertex -81.79409790039062 -85.32962799072266 97
    endloop
  endfacet
  facet normal 0.13052678607152238 0.9914447831916002 0
    outer loop
      vertex -80.5 -85.5 80
      vertex -81.79409790039062 -85.32962799072266 87
      vertex -80.5 -85.5 87
    endloop
  endfacet
  facet normal 0.13052678607152238 0.9914447831916002 0
    outer loop
      vertex -81.79409790039062 -85.32962799072266 87
      vertex -80.5 -85.5 80
      vertex -81.79409790039062 -85.32962799072266 80
    endloop
  endfacet
  facet normal 0.9914447831916001 0.13052678607152235 0
    outer loop
      vertex -85.32962799072266 -81.79409790039062 106.73943328857422
      vertex -85.5 -80.5 97
      vertex -85.5 -80.5 106.95454406738281
    endloop
  endfacet
  facet normal 0.9914447831916002 0.13052678607152238 0
    outer loop
      vertex -85.5 -80.5 97
      vertex -85.32962799072266 -81.79409790039062 106.73943328857422
      vertex -85.32962799072266 -81.79409790039062 97
    endloop
  endfacet
  facet normal 0.9914447831916002 0.13052678607152238 0
    outer loop
      vertex -85.32962799072266 -81.79409790039062 87
      vertex -85.5 -80.5 80
      vertex -85.5 -80.5 87
    endloop
  endfacet
  facet normal 0.9914447831916002 0.13052678607152238 0
    outer loop
      vertex -85.5 -80.5 80
      vertex -85.32962799072266 -81.79409790039062 87
      vertex -85.32962799072266 -81.79409790039062 80
    endloop
  endfacet
  facet normal 0.7933569877782133 -0.6087566754816573 0
    outer loop
      vertex -84.83012390136719 83 97
      vertex -84.03553771972656 84.03553771972656 105.10546875
      vertex -84.83012390136719 83 106.10874938964844
    endloop
  endfacet
  facet normal 0.7933569877782133 -0.6087566754816573 0
    outer loop
      vertex -84.03553771972656 84.03553771972656 105.10546875
      vertex -84.83012390136719 83 97
      vertex -84.03553771972656 84.03553771972656 97
    endloop
  endfacet
  facet normal 0.7933569877782133 -0.6087566754816573 0
    outer loop
      vertex -84.83012390136719 83 87
      vertex -84.03553771972656 84.03553771972656 80
      vertex -84.03553771972656 84.03553771972656 87
    endloop
  endfacet
  facet normal 0.7933569877782133 -0.6087566754816573 0
    outer loop
      vertex -84.03553771972656 84.03553771972656 80
      vertex -84.83012390136719 83 87
      vertex -84.83012390136719 83 80
    endloop
  endfacet
  facet normal -0.7933569877782133 0.6087566754816573 0
    outer loop
      vertex 84.03553771972656 -84.03553771972656 97
      vertex 84.83012390136719 -83 102
      vertex 84.83012390136719 -83 97
    endloop
  endfacet
  facet normal -0.7933569877782133 0.6087566754816573 0
    outer loop
      vertex 84.83012390136719 -83 102
      vertex 84.03553771972656 -84.03553771972656 97
      vertex 84.03553771972656 -84.03553771972656 105.10546875
    endloop
  endfacet
  facet normal -0.7933569877782134 0.6087566754816575 0
    outer loop
      vertex 84.83012390136719 -83 102
      vertex 84.03553771972656 -84.03553771972656 105.10546875
      vertex 84.83012390136719 -83 106.10874938964844
    endloop
  endfacet
  facet normal -0.7933569877782133 0.6087566754816573 0
    outer loop
      vertex 84.03553771972656 -84.03553771972656 80
      vertex 84.83012390136719 -83 87
      vertex 84.83012390136719 -83 80
    endloop
  endfacet
  facet normal -0.7933569877782133 0.6087566754816573 0
    outer loop
      vertex 84.83012390136719 -83 87
      vertex 84.03553771972656 -84.03553771972656 80
      vertex 84.03553771972656 -84.03553771972656 87
    endloop
  endfacet
  facet normal 0.3826854496202837 -0.9238786969342464 0
    outer loop
      vertex -81.79409790039062 85.32962799072266 97
      vertex -83 84.83012390136719 106.10874938964844
      vertex -83 84.83012390136719 97
    endloop
  endfacet
  facet normal 0.3826854496202837 -0.9238786969342465 0
    outer loop
      vertex -83 84.83012390136719 106.10874938964844
      vertex -81.79409790039062 85.32962799072266 97
      vertex -81.79409790039062 85.32962799072266 106.73943328857422
    endloop
  endfacet
  facet normal 0.3826854496202838 -0.9238786969342465 0
    outer loop
      vertex -83 84.83012390136719 80
      vertex -81.79409790039062 85.32962799072266 87
      vertex -83 84.83012390136719 87
    endloop
  endfacet
  facet normal 0.3826854496202838 -0.9238786969342465 0
    outer loop
      vertex -81.79409790039062 85.32962799072266 87
      vertex -83 84.83012390136719 80
      vertex -81.79409790039062 85.32962799072266 80
    endloop
  endfacet
  facet normal -0.13052678607152238 0.9914447831916002 0
    outer loop
      vertex 80.5 -85.5 97
      vertex 81.79409790039062 -85.32962799072266 106.73943328857422
      vertex 81.79409790039062 -85.32962799072266 97
    endloop
  endfacet
  facet normal -0.13052678607152235 0.9914447831916001 0
    outer loop
      vertex 81.79409790039062 -85.32962799072266 106.73943328857422
      vertex 80.5 -85.5 97
      vertex 80.5 -85.5 106.95454406738281
    endloop
  endfacet
  facet normal -0.13052678607152238 0.9914447831916002 0
    outer loop
      vertex 81.79409790039062 -85.32962799072266 80
      vertex 80.5 -85.5 87
      vertex 81.79409790039062 -85.32962799072266 87
    endloop
  endfacet
  facet normal -0.13052678607152238 0.9914447831916002 0
    outer loop
      vertex 80.5 -85.5 87
      vertex 81.79409790039062 -85.32962799072266 80
      vertex 80.5 -85.5 80
    endloop
  endfacet
  facet normal -0.7933569877782133 -0.6087566754816573 0
    outer loop
      vertex 84.83012390136719 83 102
      vertex 84.03553771972656 84.03553771972656 97
      vertex 84.83012390136719 83 97
    endloop
  endfacet
  facet normal -0.7933569877782133 -0.6087566754816573 0
    outer loop
      vertex 84.03553771972656 84.03553771972656 97
      vertex 84.83012390136719 83 102
      vertex 84.03553771972656 84.03553771972656 105.10546875
    endloop
  endfacet
  facet normal -0.7933569877782134 -0.6087566754816575 0
    outer loop
      vertex 84.03553771972656 84.03553771972656 105.10546875
      vertex 84.83012390136719 83 102
      vertex 84.83012390136719 83 106.10874938964844
    endloop
  endfacet
  facet normal -0.7933569877782133 -0.6087566754816573 0
    outer loop
      vertex 84.83012390136719 83 80
      vertex 84.03553771972656 84.03553771972656 87
      vertex 84.03553771972656 84.03553771972656 80
    endloop
  endfacet
  facet normal -0.7933569877782133 -0.6087566754816573 0
    outer loop
      vertex 84.03553771972656 84.03553771972656 87
      vertex 84.83012390136719 83 80
      vertex 84.83012390136719 83 87
    endloop
  endfacet
  facet normal 0.6087566754816573 -0.7933569877782133 0
    outer loop
      vertex -83 84.83012390136719 97
      vertex -84.03553771972656 84.03553771972656 105.10546875
      vertex -84.03553771972656 84.03553771972656 97
    endloop
  endfacet
  facet normal 0.6087566754816573 -0.7933569877782133 0
    outer loop
      vertex -84.03553771972656 84.03553771972656 105.10546875
      vertex -83 84.83012390136719 97
      vertex -83 84.83012390136719 106.10874938964844
    endloop
  endfacet
  facet normal 0.6087566754816573 -0.7933569877782133 0
    outer loop
      vertex -84.03553771972656 84.03553771972656 80
      vertex -83 84.83012390136719 87
      vertex -84.03553771972656 84.03553771972656 87
    endloop
  endfacet
  facet normal 0.6087566754816573 -0.7933569877782133 0
    outer loop
      vertex -83 84.83012390136719 87
      vertex -84.03553771972656 84.03553771972656 80
      vertex -83 84.83012390136719 80
    endloop
  endfacet
  facet normal -0.13052678607152235 -0.9914447831916001 0
    outer loop
      vertex 80.5 85.5 97
      vertex 81.79409790039062 85.32962799072266 106.73943328857422
      vertex 80.5 85.5 106.95454406738281
    endloop
  endfacet
  facet normal -0.13052678607152238 -0.9914447831916002 0
    outer loop
      vertex 81.79409790039062 85.32962799072266 106.73943328857422
      vertex 80.5 85.5 97
      vertex 81.79409790039062 85.32962799072266 97
    endloop
  endfacet
  facet normal -0.13052678607152238 -0.9914447831916002 0
    outer loop
      vertex 80.5 85.5 80
      vertex 81.79409790039062 85.32962799072266 87
      vertex 80.5 85.5 87
    endloop
  endfacet
  facet normal -0.13052678607152238 -0.9914447831916002 0
    outer loop
      vertex 81.79409790039062 85.32962799072266 87
      vertex 80.5 85.5 80
      vertex 81.79409790039062 85.32962799072266 80
    endloop
  endfacet
  facet normal 0.13052678607152238 -0.9914447831916002 0
    outer loop
      vertex -80.5 85.5 97
      vertex -81.79409790039062 85.32962799072266 106.73943328857422
      vertex -81.79409790039062 85.32962799072266 97
    endloop
  endfacet
  facet normal 0.13052678607152235 -0.9914447831916001 0
    outer loop
      vertex -81.79409790039062 85.32962799072266 106.73943328857422
      vertex -80.5 85.5 97
      vertex -80.5 85.5 106.95454406738281
    endloop
  endfacet
  facet normal 0.13052678607152238 -0.9914447831916002 0
    outer loop
      vertex -81.79409790039062 85.32962799072266 80
      vertex -80.5 85.5 87
      vertex -81.79409790039062 85.32962799072266 87
    endloop
  endfacet
  facet normal 0.13052678607152238 -0.9914447831916002 0
    outer loop
      vertex -80.5 85.5 87
      vertex -81.79409790039062 85.32962799072266 80
      vertex -80.5 85.5 80
    endloop
  endfacet
  facet normal 0 0 1
    outer loop
      vertex 84.83012390136719 83 87
      vertex 89.5 84.5 87
      vertex 89.32962799072266 85.79409790039062 87
    endloop
  endfacet
  facet normal 0 0 1
    outer loop
      vertex 84.03553771972656 84.03553771972656 87
      vertex 89.32962799072266 85.79409790039062 87
      vertex 88.83012390136719 87 87
    endloop
  endfacet
  facet normal 0 0 1
    outer loop
      vertex 89.5 84.5 87
      vertex 84.83012390136719 83 87
      vertex 89.5 83 87
    endloop
  endfacet
  facet normal 0 0 1
    outer loop
      vertex 89.32962799072266 85.79409790039062 87
      vertex 84.03553771972656 84.03553771972656 87
      vertex 84.83012390136719 83 87
    endloop
  endfacet
  facet normal 0 0 1
    outer loop
      vertex 88.83012390136719 87 87
      vertex 83 84.83012390136719 87
      vertex 84.03553771972656 84.03553771972656 87
    endloop
  endfacet
  facet normal 0 0 1
    outer loop
      vertex 88.83012390136719 87 87
      vertex 81.79409790039062 85.32962799072266 87
      vertex 83 84.83012390136719 87
    endloop
  endfacet
  facet normal 0 0 1
    outer loop
      vertex 88.83012390136719 87 87
      vertex 80.5 85.5 87
      vertex 81.79409790039062 85.32962799072266 87
    endloop
  endfacet
  facet normal 0 0 1
    outer loop
      vertex -88 87 87
      vertex 80.5 85.5 87
      vertex 88.83012390136719 87 87
    endloop
  endfacet
  facet normal 0 0 1
    outer loop
      vertex -85.5 80.5 87
      vertex -88 87 87
      vertex -85.5 -80.5 87
    endloop
  endfacet
  facet normal 0 0 1
    outer loop
      vertex -85.32962799072266 81.79409790039062 87
      vertex -88 87 87
      vertex -85.5 80.5 87
    endloop
  endfacet
  facet normal 0 0 1
    outer loop
      vertex -84.83012390136719 83 87
      vertex -88 87 87
      vertex -85.32962799072266 81.79409790039062 87
    endloop
  endfacet
  facet normal 0 0 1
    outer loop
      vertex -84.03553771972656 84.03553771972656 87
      vertex -88 87 87
      vertex -84.83012390136719 83 87
    endloop
  endfacet
  facet normal 0 0 1
    outer loop
      vertex -83 84.83012390136719 87
      vertex -88 87 87
      vertex -84.03553771972656 84.03553771972656 87
    endloop
  endfacet
  facet normal 0 0 1
    outer loop
      vertex -81.79409790039062 85.32962799072266 87
      vertex -88 87 87
      vertex -83 84.83012390136719 87
    endloop
  endfacet
  facet normal 0 0 1
    outer loop
      vertex -80.5 85.5 87
      vertex -88 87 87
      vertex -81.79409790039062 85.32962799072266 87
    endloop
  endfacet
  facet normal 0 0 1
    outer loop
      vertex 80.5 85.5 87
      vertex -88 87 87
      vertex -80.5 85.5 87
    endloop
  endfacet
  facet normal 0 0 1
    outer loop
      vertex 84.83012390136719 -83 87
      vertex 89.5 -84.5 87
      vertex 89.5 -83 87
    endloop
  endfacet
  facet normal 0 0 1
    outer loop
      vertex 89.5 -84.5 87
      vertex 84.83012390136719 -83 87
      vertex 89.32962799072266 -85.79409790039062 87
    endloop
  endfacet
  facet normal 0 0 1
    outer loop
      vertex 84.03553771972656 -84.03553771972656 87
      vertex 89.32962799072266 -85.79409790039062 87
      vertex 84.83012390136719 -83 87
    endloop
  endfacet
  facet normal 0 0 1
    outer loop
      vertex 89.32962799072266 -85.79409790039062 87
      vertex 84.03553771972656 -84.03553771972656 87
      vertex 88.83012390136719 -87 87
    endloop
  endfacet
  facet normal 0 0 1
    outer loop
      vertex 83 -84.83012390136719 87
      vertex 88.83012390136719 -87 87
      vertex 84.03553771972656 -84.03553771972656 87
    endloop
  endfacet
  facet normal 0 0 1
    outer loop
      vertex 81.79409790039062 -85.32962799072266 87
      vertex 88.83012390136719 -87 87
      vertex 83 -84.83012390136719 87
    endloop
  endfacet
  facet normal 0 0 1
    outer loop
      vertex 80.5 -85.5 87
      vertex 88.83012390136719 -87 87
      vertex 81.79409790039062 -85.32962799072266 87
    endloop
  endfacet
  facet normal 0 0 1
    outer loop
      vertex -88 -87 87
      vertex 80.5 -85.5 87
      vertex -80.5 -85.5 87
    endloop
  endfacet
  facet normal 0 0 1
    outer loop
      vertex 80.5 -85.5 87
      vertex -88 -87 87
      vertex 88.83012390136719 -87 87
    endloop
  endfacet
  facet normal 0 0 1
    outer loop
      vertex -81.79409790039062 -85.32962799072266 87
      vertex -88 -87 87
      vertex -80.5 -85.5 87
    endloop
  endfacet
  facet normal 0 0 1
    outer loop
      vertex -83 -84.83012390136719 87
      vertex -88 -87 87
      vertex -81.79409790039062 -85.32962799072266 87
    endloop
  endfacet
  facet normal 0 0 1
    outer loop
      vertex -84.03553771972656 -84.03553771972656 87
      vertex -88 -87 87
      vertex -83 -84.83012390136719 87
    endloop
  endfacet
  facet normal 0 0 1
    outer loop
      vertex -84.83012390136719 -83 87
      vertex -88 -87 87
      vertex -84.03553771972656 -84.03553771972656 87
    endloop
  endfacet
  facet normal 0 0 1
    outer loop
      vertex -85.32962799072266 -81.79409790039062 87
      vertex -88 -87 87
      vertex -84.83012390136719 -83 87
    endloop
  endfacet
  facet normal 0 0 1
    outer loop
      vertex -85.5 -80.5 87
      vertex -88 -87 87
      vertex -85.32962799072266 -81.79409790039062 87
    endloop
  endfacet
  facet normal 0 0 1
    outer loop
      vertex -88 -87 87
      vertex -85.5 -80.5 87
      vertex -88 87 87
    endloop
  endfacet
  facet normal 0 0 -1
    outer loop
      vertex 84.83012390136719 -83 97
      vertex 89.5 -84.5 97
      vertex 89.32962799072266 -85.79409790039062 97
    endloop
  endfacet
  facet normal 0 0 -1
    outer loop
      vertex 84.03553771972656 -84.03553771972656 97
      vertex 89.32962799072266 -85.79409790039062 97
      vertex 88.83012390136719 -87 97
    endloop
  endfacet
  facet normal 0 0 -1
    outer loop
      vertex 89.5 -84.5 97
      vertex 84.83012390136719 -83 97
      vertex 89.5 -83 97
    endloop
  endfacet
  facet normal 0 0 -1
    outer loop
      vertex 89.32962799072266 -85.79409790039062 97
      vertex 84.03553771972656 -84.03553771972656 97
      vertex 84.83012390136719 -83 97
    endloop
  endfacet
  facet normal 0 0 -1
    outer loop
      vertex 88.83012390136719 -87 97
      vertex 83 -84.83012390136719 97
      vertex 84.03553771972656 -84.03553771972656 97
    endloop
  endfacet
  facet normal 0 0 -1
    outer loop
      vertex 88.83012390136719 -87 97
      vertex 81.79409790039062 -85.32962799072266 97
      vertex 83 -84.83012390136719 97
    endloop
  endfacet
  facet normal 0 0 -1
    outer loop
      vertex 88.83012390136719 -87 97
      vertex 80.5 -85.5 97
      vertex 81.79409790039062 -85.32962799072266 97
    endloop
  endfacet
  facet normal 0 0 -1
    outer loop
      vertex -88 -87 97
      vertex 80.5 -85.5 97
      vertex 88.83012390136719 -87 97
    endloop
  endfacet
  facet normal 0 0 -1
    outer loop
      vertex -85.5 -80.5 97
      vertex -88 -87 97
      vertex -85.5 80.5 97
    endloop
  endfacet
  facet normal 0 0 -1
    outer loop
      vertex -85.32962799072266 -81.79409790039062 97
      vertex -88 -87 97
      vertex -85.5 -80.5 97
    endloop
  endfacet
  facet normal 0 0 -1
    outer loop
      vertex -84.83012390136719 -83 97
      vertex -88 -87 97
      vertex -85.32962799072266 -81.79409790039062 97
    endloop
  endfacet
  facet normal 0 0 -1
    outer loop
      vertex -84.03553771972656 -84.03553771972656 97
      vertex -88 -87 97
      vertex -84.83012390136719 -83 97
    endloop
  endfacet
  facet normal 0 0 -1
    outer loop
      vertex -83 -84.83012390136719 97
      vertex -88 -87 97
      vertex -84.03553771972656 -84.03553771972656 97
    endloop
  endfacet
  facet normal 0 0 -1
    outer loop
      vertex -81.79409790039062 -85.32962799072266 97
      vertex -88 -87 97
      vertex -83 -84.83012390136719 97
    endloop
  endfacet
  facet normal 0 0 -1
    outer loop
      vertex -80.5 -85.5 97
      vertex -88 -87 97
      vertex -81.79409790039062 -85.32962799072266 97
    endloop
  endfacet
  facet normal 0 0 -1
    outer loop
      vertex 80.5 -85.5 97
      vertex -88 -87 97
      vertex -80.5 -85.5 97
    endloop
  endfacet
  facet normal 0 0 -1
    outer loop
      vertex 84.83012390136719 83 97
      vertex 89.5 84.5 97
      vertex 89.5 83 97
    endloop
  endfacet
  facet normal 0 0 -1
    outer loop
      vertex 89.5 84.5 97
      vertex 84.83012390136719 83 97
      vertex 89.32962799072266 85.79409790039062 97
    endloop
  endfacet
  facet normal 0 0 -1
    outer loop
      vertex 84.03553771972656 84.03553771972656 97
      vertex 89.32962799072266 85.79409790039062 97
      vertex 84.83012390136719 83 97
    endloop
  endfacet
  facet normal 0 0 -1
    outer loop
      vertex 89.32962799072266 85.79409790039062 97
      vertex 84.03553771972656 84.03553771972656 97
      vertex 88.83012390136719 87 97
    endloop
  endfacet
  facet normal 0 0 -1
    outer loop
      vertex 83 84.83012390136719 97
      vertex 88.83012390136719 87 97
      vertex 84.03553771972656 84.03553771972656 97
    endloop
  endfacet
  facet normal 0 0 -1
    outer loop
      vertex 81.79409790039062 85.32962799072266 97
      vertex 88.83012390136719 87 97
      vertex 83 84.83012390136719 97
    endloop
  endfacet
  facet normal 0 0 -1
    outer loop
      vertex 80.5 85.5 97
      vertex 88.83012390136719 87 97
      vertex 81.79409790039062 85.32962799072266 97
    endloop
  endfacet
  facet normal 0 0 -1
    outer loop
      vertex -88 87 97
      vertex 80.5 85.5 97
      vertex -80.5 85.5 97
    endloop
  endfacet
  facet normal 0 0 -1
    outer loop
      vertex 80.5 85.5 97
      vertex -88 87 97
      vertex 88.83012390136719 87 97
    endloop
  endfacet
  facet normal 0 0 -1
    outer loop
      vertex -81.79409790039062 85.32962799072266 97
      vertex -88 87 97
      vertex -80.5 85.5 97
    endloop
  endfacet
  facet normal 0 0 -1
    outer loop
      vertex -83 84.83012390136719 97
      vertex -88 87 97
      vertex -81.79409790039062 85.32962799072266 97
    endloop
  endfacet
  facet normal 0 0 -1
    outer loop
      vertex -84.03553771972656 84.03553771972656 97
      vertex -88 87 97
      vertex -83 84.83012390136719 97
    endloop
  endfacet
  facet normal 0 0 -1
    outer loop
      vertex -84.83012390136719 83 97
      vertex -88 87 97
      vertex -84.03553771972656 84.03553771972656 97
    endloop
  endfacet
  facet normal 0 0 -1
    outer loop
      vertex -85.32962799072266 81.79409790039062 97
      vertex -88 87 97
      vertex -84.83012390136719 83 97
    endloop
  endfacet
  facet normal 0 0 -1
    outer loop
      vertex -85.5 80.5 97
      vertex -88 87 97
      vertex -85.32962799072266 81.79409790039062 97
    endloop
  endfacet
  facet normal 0 0 -1
    outer loop
      vertex -88 87 97
      vertex -85.5 80.5 97
      vertex -88 -87 97
    endloop
  endfacet
  facet normal 1 0 0
    outer loop
      vertex -88 -87 97
      vertex -88 87 87
      vertex -88 87 97
    endloop
  endfacet
  facet normal 1 0 0
    outer loop
      vertex -88 87 87
      vertex -88 -87 97
      vertex -88 -87 87
    endloop
  endfacet
  facet normal 0 1 0
    outer loop
      vertex 88.83012390136719 -87 87
      vertex -88 -87 97
      vertex 88.83012390136719 -87 97
    endloop
  endfacet
  facet normal 0 1 0
    outer loop
      vertex -88 -87 97
      vertex 88.83012390136719 -87 87
      vertex -88 -87 87
    endloop
  endfacet
  facet normal 0 -1 0
    outer loop
      vertex -88 87 87
      vertex 88.83012390136719 87 97
      vertex -88 87 97
    endloop
  endfacet
  facet normal 0 -1 0
    outer loop
      vertex 88.83012390136719 87 97
      vertex -88 87 87
      vertex 88.83012390136719 87 87
    endloop
  endfacet
  facet normal 0 0 -1
    outer loop
      vertex 89.5 -83 102
      vertex 85.5 -80.5 102
      vertex 89.5 83 102
    endloop
  endfacet
  facet normal 0 0 -1
    outer loop
      vertex 89.5 -83 102
      vertex 85.32962799072266 -81.79409790039062 102
      vertex 85.5 -80.5 102
    endloop
  endfacet
  facet normal 0 0 -1
    outer loop
      vertex 85.32962799072266 -81.79409790039062 102
      vertex 89.5 -83 102
      vertex 84.83012390136719 -83 102
    endloop
  endfacet
  facet normal 0 0 -1
    outer loop
      vertex 85.5 80.5 102
      vertex 89.5 83 102
      vertex 85.5 -80.5 102
    endloop
  endfacet
  facet normal 0 0 -1
    outer loop
      vertex 85.32962799072266 81.79409790039062 102
      vertex 89.5 83 102
      vertex 85.5 80.5 102
    endloop
  endfacet
  facet normal 0 0 -1
    outer loop
      vertex 89.5 83 102
      vertex 85.32962799072266 81.79409790039062 102
      vertex 84.83012390136719 83 102
    endloop
  endfacet
  facet normal 0 1 0
    outer loop
      vertex 89.5 -83 80
      vertex 84.83012390136719 -83 87
      vertex 89.5 -83 87
    endloop
  endfacet
  facet normal 0 1 0
    outer loop
      vertex 84.83012390136719 -83 87
      vertex 89.5 -83 80
      vertex 84.83012390136719 -83 80
    endloop
  endfacet
  facet normal 0 1 0
    outer loop
      vertex 89.5 -83 97
      vertex 84.83012390136719 -83 102
      vertex 89.5 -83 102
    endloop
  endfacet
  facet normal 0 1 0
    outer loop
      vertex 84.83012390136719 -83 102
      vertex 89.5 -83 97
      vertex 84.83012390136719 -83 97
    endloop
  endfacet
  facet normal 0 -1 0
    outer loop
      vertex 84.83012390136719 83 80
      vertex 89.5 83 87
      vertex 84.83012390136719 83 87
    endloop
  endfacet
  facet normal 0 -1 0
    outer loop
      vertex 89.5 83 87
      vertex 84.83012390136719 83 80
      vertex 89.5 83 80
    endloop
  endfacet
  facet normal 0 -1 0
    outer loop
      vertex 84.83012390136719 83 97
      vertex 89.5 83 102
      vertex 84.83012390136719 83 102
    endloop
  endfacet
  facet normal 0 -1 0
    outer loop
      vertex 89.5 83 102
      vertex 84.83012390136719 83 97
      vertex 89.5 83 97
    endloop
  endfacet
endsolid OpenSCAD_Model
