solid OpenSCAD_Model
  facet normal 0 0 1
    outer loop
      vertex -6.569379263248042 31.06408557419162 56
      vertex 4.134575140094096 36.51802275292239 56
      vertex -6.923624839406454 31.55166278062295 56
    endloop
  endfacet
  facet normal -0.7034983354149389 -0.7034983354149389 -0.10089689854906551
    outer loop
      vertex -3.543859638724733 -26.899815062967004 0
      vertex -15.551662780622951 -22.923624839406454 56
      vertex -10.899815062967004 -19.543859638724733 0
    endloop
  endfacet
  facet normal 0.7034983354149392 0.7034983354149386 -0.10089689854906556
    outer loop
      vertex 47.55166278062295 22.923624839406454 56
      vertex 35.54385963872473 26.899815062967004 0
      vertex 38.92362483940646 31.55166278062295 56
    endloop
  endfacet
  facet normal 0 0 -1
    outer loop
      vertex -15.622629166813855 -10.274815062967 0
      vertex -10.899815062967004 19.543859638724733 0
      vertex -10.899815062967004 -19.543859638724733 0
    endloop
  endfacet
  facet normal 0 0 1
    outer loop
      vertex 4.134575140094096 36.51802275292239 56
      vertex 3.948337219377052 37.091204135510985 56
      vertex -6.923624839406454 31.55166278062295 56
    endloop
  endfacet
  facet normal -0.8864596172568744 -0.45167373494146773 -0.10089689854906546
    outer loop
      vertex -15.622629166813855 -10.274815062967 0
      vertex -10.899815062967004 -19.543859638724733 0
      vertex -21.091204135510985 -12.051662780622948 56
    endloop
  endfacet
  facet normal 0.8864596172568743 -0.45167373494146784 -0.10089689854906539
    outer loop
      vertex 47.55166278062295 -22.923624839406454 56
      vertex 42.89981506296701 -19.543859638724733 0
      vertex 53.091204135510985 -12.051662780622948 56
    endloop
  endfacet
  facet normal -0.15563616229596858 -0.9826480554343769 -0.10089689854906546
    outer loop
      vertex 9.122147477075268 -33.99961094222616 17.909830056250527
      vertex 6.9098300562505255 -33.87637187802544 20.122147477075266
      vertex 5.725184937032999 -31.622629166813855 0
    endloop
  endfacet
  facet normal -0.15563616229596766 -0.9826480554343772 -0.10089689854906565
    outer loop
      vertex 11.909830056250525 -34.295292335359655 16.489434837048464
      vertex 9.122147477075268 -33.99961094222616 17.909830056250527
      vertex 5.725184937032999 -31.622629166813855 0
    endloop
  endfacet
  facet normal -0.15563616229596763 -0.9826480554343772 -0.10089689854906571
    outer loop
      vertex 5.725184937032999 -31.622629166813855 0
      vertex 15 -34.73447270253261 16
      vertex 11.909830056250525 -34.295292335359655 16.489434837048464
    endloop
  endfacet
  facet normal -0.15563616229596755 -0.9826480554343772 -0.1008968985490655
    outer loop
      vertex 16 -33.25 0
      vertex 16 -34.90911983092618 16.158384440324536
      vertex 15 -34.73447270253261 16
    endloop
  endfacet
  facet normal -0.15563616229596894 -0.982648055434377 -0.10089689854906544
    outer loop
      vertex 5.725184937032999 -31.622629166813855 0
      vertex 6.9098300562505255 -33.87637187802544 20.122147477075266
      vertex 5.489434837048465 -33.9376386410185 22.909830056250527
    endloop
  endfacet
  facet normal -0.15563616229597865 -0.9826480554343755 -0.1008968985490654
    outer loop
      vertex 5 -34.17741401357295 26
      vertex 5.725184937032999 -31.622629166813855 0
      vertex 5.489434837048465 -33.9376386410185 22.909830056250527
    endloop
  endfacet
  facet normal -0.45167373494146773 -0.8864596172568744 -0.10089689854906546
    outer loop
      vertex -3.543859638724733 -26.899815062967004 0
      vertex 5.725184937032999 -31.622629166813855 0
      vertex 3.948337219377052 -37.091204135510985 56
    endloop
  endfacet
  facet normal -0.1556361622959171 -0.9826480554343854 -0.10089689854906463
    outer loop
      vertex 5 -34.17741401357295 26
      vertex 3.948337219377052 -37.091204135510985 56
      vertex 5.725184937032999 -31.622629166813855 0
    endloop
  endfacet
  facet normal 0 0 -1
    outer loop
      vertex 5.725184937032999 -31.622629166813855 0
      vertex -3.543859638724733 -26.899815062967004 0
      vertex 5.725184937032999 31.622629166813855 0
    endloop
  endfacet
  facet normal 0 0 -1
    outer loop
      vertex 16 -33.25 0
      vertex 5.725184937032999 -31.622629166813855 0
      vertex 16 33.25 0
    endloop
  endfacet
  facet normal -0.7034983354149388 -0.7034983354149388 -0.10089689854906551
    outer loop
      vertex -15.551662780622951 -22.923624839406454 56
      vertex -3.543859638724733 -26.899815062967004 0
      vertex -6.923624839406454 -31.55166278062295 56
    endloop
  endfacet
  facet normal 0 0 1
    outer loop
      vertex -15.551662780622951 -22.923624839406454 56
      vertex -6.923624839406454 -31.55166278062295 56
      vertex -15.06408557419162 -22.56937926324804 56
    endloop
  endfacet
  facet normal 0 0 1
    outer loop
      vertex -6.569379263248042 -31.06408557419162 56
      vertex -15.06408557419162 -22.56937926324804 56
      vertex -6.923624839406454 -31.55166278062295 56
    endloop
  endfacet
  facet normal -0.8864596172568744 -0.4516737349414677 -0.10089689854906551
    outer loop
      vertex -21.091204135510985 -12.051662780622948 56
      vertex -10.899815062967004 -19.543859638724733 0
      vertex -15.551662780622951 -22.923624839406454 56
    endloop
  endfacet
  facet normal -0.9826480554343772 -0.1556361622959681 -0.10089689854906546
    outer loop
      vertex -23 0 56
      vertex -15.622629166813855 -10.274815062967 0
      vertex -21.091204135510985 -12.051662780622948 56
    endloop
  endfacet
  facet normal 0 0 1
    outer loop
      vertex -21.091204135510985 -12.051662780622948 56
      vertex -15.551662780622951 -22.923624839406454 56
      vertex -20.518022752922388 -11.865424859905904 56
    endloop
  endfacet
  facet normal 0 0 1
    outer loop
      vertex -15.06408557419162 -22.56937926324804 56
      vertex -20.518022752922388 -11.865424859905904 56
      vertex -15.551662780622951 -22.923624839406454 56
    endloop
  endfacet
  facet normal 0 0 1
    outer loop
      vertex -20.518022752922388 -11.865424859905904 56
      vertex -22.397321428571427 0 56
      vertex -21.091204135510985 -12.051662780622948 56
    endloop
  endfacet
  facet normal 0 0 1
    outer loop
      vertex -23 0 56
      vertex -21.091204135510985 -12.051662780622948 56
      vertex -22.397321428571427 0 56
    endloop
  endfacet
  facet normal -0.4516737349414677 -0.8864596172568744 -0.10089689854906549
    outer loop
      vertex -6.923624839406454 -31.55166278062295 56
      vertex -3.543859638724733 -26.899815062967004 0
      vertex 3.948337219377052 -37.091204135510985 56
    endloop
  endfacet
  facet normal -0.1556361622959768 -0.9826480554343757 -0.1008968985490658
    outer loop
      vertex 5 -34.17741401357295 26
      vertex 5.489434837048465 -34.57222711160991 29.090169943749473
      vertex 3.948337219377052 -37.091204135510985 56
    endloop
  endfacet
  facet normal -0.15563616229597071 -0.9826480554343766 -0.10089689854906556
    outer loop
      vertex 5.489434837048465 -34.57222711160991 29.090169943749473
      vertex 6.9098300562505255 -35.08343087826891 31.877852522924734
      vertex 3.948337219377052 -37.091204135510985 56
    endloop
  endfacet
  facet normal -0.15563616229596527 -0.9826480554343775 -0.10089689854906496
    outer loop
      vertex 6.9098300562505255 -35.08343087826891 31.877852522924734
      vertex 9.122147477075268 -35.66098512710328 34.09016994374947
      vertex 3.948337219377052 -37.091204135510985 56
    endloop
  endfacet
  facet normal -0.15563616229597002 -0.9826480554343766 -0.10089689854906601
    outer loop
      vertex 9.122147477075268 -35.66098512710328 34.09016994374947
      vertex 11.909830056250525 -36.24835482418006 35.510565162951536
      vertex 3.948337219377052 -37.091204135510985 56
    endloop
  endfacet
  facet normal 0 0 1
    outer loop
      vertex 4.134575140094096 -36.51802275292239 56
      vertex -6.569379263248042 -31.06408557419162 56
      vertex 3.948337219377052 -37.091204135510985 56
    endloop
  endfacet
  facet normal 0 0 1
    outer loop
      vertex -6.923624839406454 -31.55166278062295 56
      vertex 3.948337219377052 -37.091204135510985 56
      vertex -6.569379263248042 -31.06408557419162 56
    endloop
  endfacet
  facet normal -0.15563616229596544 -0.9826480554343777 -0.10089689854906428
    outer loop
      vertex 11.909830056250525 -36.24835482418006 35.510565162951536
      vertex 15 -36.78804413110403 36
      vertex 3.948337219377052 -37.091204135510985 56
    endloop
  endfacet
  facet normal -0.15563616229597407 -0.9826480554343762 -0.10089689854906533
    outer loop
      vertex 16 -36.930165883359535 35.84161555967546
      vertex 16 -39 56
      vertex 15 -36.78804413110403 36
    endloop
  endfacet
  facet normal 0 0 1
    outer loop
      vertex 3.948337219377052 -37.091204135510985 56
      vertex 16 -39 56
      vertex 4.134575140094096 -36.51802275292239 56
    endloop
  endfacet
  facet normal -0.1556361622959681 -0.982648055434377 -0.10089689854906572
    outer loop
      vertex 15 -36.78804413110403 36
      vertex 16 -39 56
      vertex 3.948337219377052 -37.091204135510985 56
    endloop
  endfacet
  facet normal 0 0 1
    outer loop
      vertex 4.134575140094096 -36.51802275292239 56
      vertex 16 -39 56
      vertex 16 -38.39732142857143 56
    endloop
  endfacet
  facet normal 0 0 1
    outer loop
      vertex 53.091204135510985 12.051662780622948 56
      vertex 47.55166278062295 22.923624839406454 56
      vertex 52.51802275292239 11.865424859905904 56
    endloop
  endfacet
  facet normal 0 0 1
    outer loop
      vertex 47.06408557419162 22.56937926324804 56
      vertex 52.51802275292239 11.865424859905904 56
      vertex 47.55166278062295 22.923624839406454 56
    endloop
  endfacet
  facet normal 0 0 1
    outer loop
      vertex 52.51802275292239 11.865424859905904 56
      vertex 54.39732142857143 0 56
      vertex 53.091204135510985 12.051662780622948 56
    endloop
  endfacet
  facet normal 0 0 1
    outer loop
      vertex 55 0 56
      vertex 53.091204135510985 12.051662780622948 56
      vertex 54.39732142857143 0 56
    endloop
  endfacet
  facet normal 0.8864596172568743 0.45167373494146784 -0.10089689854906539
    outer loop
      vertex 53.091204135510985 12.051662780622948 56
      vertex 42.89981506296701 19.543859638724733 0
      vertex 47.55166278062295 22.923624839406454 56
    endloop
  endfacet
  facet normal 0.9826480554343772 0.1556361622959681 -0.10089689854906553
    outer loop
      vertex 55 0 56
      vertex 47.62262916681385 10.274815062967 0
      vertex 53.091204135510985 12.051662780622948 56
    endloop
  endfacet
  facet normal 0 0 1
    outer loop
      vertex 27.865424859905907 36.51802275292239 56
      vertex 38.56937926324804 31.06408557419162 56
      vertex 28.051662780622948 37.091204135510985 56
    endloop
  endfacet
  facet normal 0 0 1
    outer loop
      vertex 38.92362483940646 31.55166278062295 56
      vertex 28.051662780622948 37.091204135510985 56
      vertex 38.56937926324804 31.06408557419162 56
    endloop
  endfacet
  facet normal 0 0 1
    outer loop
      vertex 27.865424859905907 36.51802275292239 56
      vertex 28.051662780622948 37.091204135510985 56
      vertex 16 39 56
    endloop
  endfacet
  facet normal 0 0 1
    outer loop
      vertex 27.865424859905907 36.51802275292239 56
      vertex 16 39 56
      vertex 16 38.39732142857143 56
    endloop
  endfacet
  facet normal 0.1556361622959681 0.982648055434377 -0.10089689854906539
    outer loop
      vertex 18.090169943749473 36.56512370482913 35.510565162951536
      vertex 16 39 56
      vertex 28.051662780622948 37.091204135510985 56
    endloop
  endfacet
  facet normal 0.15563616229596763 0.9826480554343772 -0.10089689854906544
    outer loop
      vertex 16 39 56
      vertex 18.090169943749473 36.56512370482913 35.510565162951536
      vertex 16 36.930165883359535 35.84161555967546
    endloop
  endfacet
  facet normal 0.4516737349414675 0.8864596172568745 -0.10089689854906551
    outer loop
      vertex 35.54385963872473 26.899815062967004 0
      vertex 28.051662780622948 37.091204135510985 56
      vertex 38.92362483940646 31.55166278062295 56
    endloop
  endfacet
  facet normal 0.15563616229596716 0.9826480554343773 -0.10089689854906539
    outer loop
      vertex 25 34.49418289422203 26
      vertex 24.510565162951536 34.888995992258984 29.090169943749473
      vertex 28.051662780622948 37.091204135510985 56
    endloop
  endfacet
  facet normal 0.15563616229596816 0.982648055434377 -0.10089689854906535
    outer loop
      vertex 23.090169943749473 35.400199758917985 31.877852522924734
      vertex 20.877852522924734 35.97775400775236 34.09016994374947
      vertex 28.051662780622948 37.091204135510985 56
    endloop
  endfacet
  facet normal 0.15563616229597 0.9826480554343767 -0.10089689854906571
    outer loop
      vertex 24.510565162951536 34.888995992258984 29.090169943749473
      vertex 23.090169943749473 35.400199758917985 31.877852522924734
      vertex 28.051662780622948 37.091204135510985 56
    endloop
  endfacet
  facet normal 0.15563616229596783 0.9826480554343773 -0.10089689854906525
    outer loop
      vertex 20.877852522924734 35.97775400775236 34.09016994374947
      vertex 18.090169943749473 36.56512370482913 35.510565162951536
      vertex 28.051662780622948 37.091204135510985 56
    endloop
  endfacet
  facet normal 0.7034983354149388 0.703498335414939 -0.10089689854906543
    outer loop
      vertex 42.89981506296701 19.543859638724733 0
      vertex 35.54385963872473 26.899815062967004 0
      vertex 47.55166278062295 22.923624839406454 56
    endloop
  endfacet
  facet normal 0.8864596172568747 0.45167373494146723 -0.10089689854906553
    outer loop
      vertex 42.89981506296701 19.543859638724733 0
      vertex 53.091204135510985 12.051662780622948 56
      vertex 47.62262916681385 10.274815062967 0
    endloop
  endfacet
  facet normal 0.9826480554343772 0.15563616229596824 -0.10089689854906553
    outer loop
      vertex 55 0 56
      vertex 49.25 0 0
      vertex 47.62262916681385 10.274815062967 0
    endloop
  endfacet
  facet normal 0 0 -1
    outer loop
      vertex 49.25 0 0
      vertex 47.62262916681385 -10.274815062967 0
      vertex 47.62262916681385 10.274815062967 0
    endloop
  endfacet
  facet normal 0 0 -1
    outer loop
      vertex 47.62262916681385 10.274815062967 0
      vertex 42.89981506296701 -19.543859638724733 0
      vertex 42.89981506296701 19.543859638724733 0
    endloop
  endfacet
  facet normal 0 0 -1
    outer loop
      vertex 42.89981506296701 19.543859638724733 0
      vertex 35.54385963872473 -26.899815062967004 0
      vertex 35.54385963872473 26.899815062967004 0
    endloop
  endfacet
  facet normal 0.15563616229596813 0.9826480554343772 -0.10089689854906546
    outer loop
      vertex 25 34.49418289422203 26
      vertex 28.051662780622948 37.091204135510985 56
      vertex 26.274815062967 31.622629166813855 0
    endloop
  endfacet
  facet normal 0.45167373494146773 0.8864596172568744 -0.10089689854906546
    outer loop
      vertex 35.54385963872473 26.899815062967004 0
      vertex 26.274815062967 31.622629166813855 0
      vertex 28.051662780622948 37.091204135510985 56
    endloop
  endfacet
  facet normal 0.1556361622959655 0.9826480554343777 -0.10089689854906565
    outer loop
      vertex 25 34.49418289422203 26
      vertex 26.274815062967 31.622629166813855 0
      vertex 24.510565162951536 34.254407521667574 22.909830056250527
    endloop
  endfacet
  facet normal 0.1556361622959683 0.9826480554343772 -0.10089689854906538
    outer loop
      vertex 26.274815062967 31.622629166813855 0
      vertex 23.090169943749473 34.19314075867451 20.122147477075266
      vertex 24.510565162951536 34.254407521667574 22.909830056250527
    endloop
  endfacet
  facet normal 0.1556361622959687 0.982648055434377 -0.1008968985490653
    outer loop
      vertex 20.877852522924734 34.316379822875234 17.909830056250527
      vertex 23.090169943749473 34.19314075867451 20.122147477075266
      vertex 26.274815062967 31.622629166813855 0
    endloop
  endfacet
  facet normal 0.1556361622959675 0.9826480554343773 -0.1008968985490657
    outer loop
      vertex 18.090169943749473 34.612061216008726 16.489434837048464
      vertex 20.877852522924734 34.316379822875234 17.909830056250527
      vertex 26.274815062967 31.622629166813855 0
    endloop
  endfacet
  facet normal 0.15563616229596805 0.982648055434377 -0.1008968985490655
    outer loop
      vertex 18.090169943749473 34.612061216008726 16.489434837048464
      vertex 16 33.25 0
      vertex 16 34.90911983092618 16.158384440324536
    endloop
  endfacet
  facet normal 0.15563616229596788 0.9826480554343773 -0.1008968985490655
    outer loop
      vertex 18.090169943749473 34.612061216008726 16.489434837048464
      vertex 26.274815062967 31.622629166813855 0
      vertex 16 33.25 0
    endloop
  endfacet
  facet normal 0 0 -1
    outer loop
      vertex 35.54385963872473 26.899815062967004 0
      vertex 26.274815062967 -31.622629166813855 0
      vertex 26.274815062967 31.622629166813855 0
    endloop
  endfacet
  facet normal 0 0 -1
    outer loop
      vertex 26.274815062967 31.622629166813855 0
      vertex 16 -33.25 0
      vertex 16 33.25 0
    endloop
  endfacet
  facet normal 0 0 1
    outer loop
      vertex 55 0 56
      vertex 54.39732142857143 0 56
      vertex 52.51802275292239 -11.865424859905904 56
    endloop
  endfacet
  facet normal 0 0 1
    outer loop
      vertex 52.51802275292239 -11.865424859905904 56
      vertex 53.091204135510985 -12.051662780622948 56
      vertex 55 0 56
    endloop
  endfacet
  facet normal 0 0 1
    outer loop
      vertex 53.091204135510985 -12.051662780622948 56
      vertex 52.51802275292239 -11.865424859905904 56
      vertex 47.06408557419162 -22.56937926324804 56
    endloop
  endfacet
  facet normal 0 0 1
    outer loop
      vertex 47.06408557419162 -22.56937926324804 56
      vertex 47.55166278062295 -22.923624839406454 56
      vertex 53.091204135510985 -12.051662780622948 56
    endloop
  endfacet
  facet normal 0.9826480554343772 -0.1556361622959681 -0.10089689854906553
    outer loop
      vertex 53.091204135510985 -12.051662780622948 56
      vertex 47.62262916681385 -10.274815062967 0
      vertex 55 0 56
    endloop
  endfacet
  facet normal 0 0 1
    outer loop
      vertex -23 0 56
      vertex -22.397321428571427 0 56
      vertex -20.518022752922388 11.865424859905904 56
    endloop
  endfacet
  facet normal 0 0 1
    outer loop
      vertex 47.55166278062295 -22.923624839406454 56
      vertex 47.06408557419162 -22.56937926324804 56
      vertex 38.56937926324804 -31.06408557419162 56
    endloop
  endfacet
  facet normal 0 0 1
    outer loop
      vertex 38.56937926324804 -31.06408557419162 56
      vertex 38.92362483940646 -31.55166278062295 56
      vertex 47.55166278062295 -22.923624839406454 56
    endloop
  endfacet
  facet normal 0.7034983354149392 -0.7034983354149386 -0.10089689854906556
    outer loop
      vertex 38.92362483940646 -31.55166278062295 56
      vertex 35.54385963872473 -26.899815062967004 0
      vertex 47.55166278062295 -22.923624839406454 56
    endloop
  endfacet
  facet normal 0 0 1
    outer loop
      vertex 38.56937926324804 -31.06408557419162 56
      vertex 27.865424859905907 -36.51802275292239 56
      vertex 38.92362483940646 -31.55166278062295 56
    endloop
  endfacet
  facet normal 0 0 1
    outer loop
      vertex 27.865424859905907 -36.51802275292239 56
      vertex 28.051662780622948 -37.091204135510985 56
      vertex 38.92362483940646 -31.55166278062295 56
    endloop
  endfacet
  facet normal 0 0 1
    outer loop
      vertex 16 -39 56
      vertex 28.051662780622948 -37.091204135510985 56
      vertex 27.865424859905907 -36.51802275292239 56
    endloop
  endfacet
  facet normal 0 0 1
    outer loop
      vertex 16 -39 56
      vertex 27.865424859905907 -36.51802275292239 56
      vertex 16 -38.39732142857143 56
    endloop
  endfacet
  facet normal 0.15563616229596808 -0.982648055434377 -0.10089689854906533
    outer loop
      vertex 28.051662780622948 -37.091204135510985 56
      vertex 16 -39 56
      vertex 20.877852522924734 -35.97775400775236 34.09016994374947
    endloop
  endfacet
  facet normal 0.15563616229596766 -0.9826480554343772 -0.10089689854906544
    outer loop
      vertex 18.090169943749473 -36.56512370482913 35.510565162951536
      vertex 16 -39 56
      vertex 16 -36.930165883359535 35.84161555967546
    endloop
  endfacet
  facet normal 0.4516737349414675 -0.8864596172568745 -0.10089689854906551
    outer loop
      vertex 28.051662780622948 -37.091204135510985 56
      vertex 35.54385963872473 -26.899815062967004 0
      vertex 38.92362483940646 -31.55166278062295 56
    endloop
  endfacet
  facet normal 0.1556361622959673 -0.9826480554343773 -0.1008968985490654
    outer loop
      vertex 28.051662780622948 -37.091204135510985 56
      vertex 24.510565162951536 -34.888995992258984 29.090169943749473
      vertex 25 -34.49418289422203 26
    endloop
  endfacet
  facet normal 0.1556361622959682 -0.982648055434377 -0.10089689854906538
    outer loop
      vertex 28.051662780622948 -37.091204135510985 56
      vertex 20.877852522924734 -35.97775400775236 34.09016994374947
      vertex 23.090169943749473 -35.400199758917985 31.877852522924734
    endloop
  endfacet
  facet normal 0.15563616229597002 -0.9826480554343767 -0.10089689854906567
    outer loop
      vertex 28.051662780622948 -37.091204135510985 56
      vertex 23.090169943749473 -35.400199758917985 31.877852522924734
      vertex 24.510565162951536 -34.888995992258984 29.090169943749473
    endloop
  endfacet
  facet normal 0.15563616229596774 -0.9826480554343772 -0.10089689854906543
    outer loop
      vertex 18.090169943749473 -36.56512370482913 35.510565162951536
      vertex 20.877852522924734 -35.97775400775236 34.09016994374947
      vertex 16 -39 56
    endloop
  endfacet
  facet normal 0 0 -1
    outer loop
      vertex -15.622629166813855 -10.274815062967 0
      vertex -17.25 0 0
      vertex -15.622629166813855 10.274815062967 0
    endloop
  endfacet
  facet normal 0.9826480554343772 -0.15563616229596824 -0.10089689854906553
    outer loop
      vertex 47.62262916681385 -10.274815062967 0
      vertex 49.25 0 0
      vertex 55 0 56
    endloop
  endfacet
  facet normal 0 0 -1
    outer loop
      vertex -10.899815062967004 19.543859638724733 0
      vertex -15.622629166813855 -10.274815062967 0
      vertex -15.622629166813855 10.274815062967 0
    endloop
  endfacet
  facet normal 0.8864596172568747 -0.45167373494146723 -0.10089689854906553
    outer loop
      vertex 42.89981506296701 -19.543859638724733 0
      vertex 47.62262916681385 -10.274815062967 0
      vertex 53.091204135510985 -12.051662780622948 56
    endloop
  endfacet
  facet normal 0 0 -1
    outer loop
      vertex -3.543859638724733 26.899815062967004 0
      vertex -10.899815062967004 -19.543859638724733 0
      vertex -10.899815062967004 19.543859638724733 0
    endloop
  endfacet
  facet normal 0 0 -1
    outer loop
      vertex 42.89981506296701 -19.543859638724733 0
      vertex 47.62262916681385 10.274815062967 0
      vertex 47.62262916681385 -10.274815062967 0
    endloop
  endfacet
  facet normal -0.9826480554343772 0.1556361622959679 -0.10089689854906554
    outer loop
      vertex -15.622629166813855 10.274815062967 0
      vertex -17.25 0 0
      vertex -23 0 56
    endloop
  endfacet
  facet normal 0 0 -1
    outer loop
      vertex 42.89981506296701 -19.543859638724733 0
      vertex 35.54385963872473 -26.899815062967004 0
      vertex 42.89981506296701 19.543859638724733 0
    endloop
  endfacet
  facet normal -0.8864596172568744 0.45167373494146773 -0.10089689854906544
    outer loop
      vertex -10.899815062967004 19.543859638724733 0
      vertex -15.622629166813855 10.274815062967 0
      vertex -21.091204135510985 12.051662780622948 56
    endloop
  endfacet
  facet normal 0.7034983354149388 -0.703498335414939 -0.10089689854906543
    outer loop
      vertex 35.54385963872473 -26.899815062967004 0
      vertex 42.89981506296701 -19.543859638724733 0
      vertex 47.55166278062295 -22.923624839406454 56
    endloop
  endfacet
  facet normal -0.7034983354149389 0.7034983354149389 -0.10089689854906553
    outer loop
      vertex -3.543859638724733 26.899815062967004 0
      vertex -10.899815062967004 19.543859638724733 0
      vertex -15.551662780622951 22.923624839406454 56
    endloop
  endfacet
  facet normal 0 0 -1
    outer loop
      vertex 35.54385963872473 -26.899815062967004 0
      vertex 26.274815062967 -31.622629166813855 0
      vertex 35.54385963872473 26.899815062967004 0
    endloop
  endfacet
  facet normal 0 0 -1
    outer loop
      vertex 5.725184937032999 31.622629166813855 0
      vertex -3.543859638724733 -26.899815062967004 0
      vertex -3.543859638724733 26.899815062967004 0
    endloop
  endfacet
  facet normal 0 0 -1
    outer loop
      vertex 26.274815062967 -31.622629166813855 0
      vertex 16 -33.25 0
      vertex 26.274815062967 31.622629166813855 0
    endloop
  endfacet
  facet normal 0.15563616229596808 -0.9826480554343772 -0.10089689854906546
    outer loop
      vertex 26.274815062967 -31.622629166813855 0
      vertex 28.051662780622948 -37.091204135510985 56
      vertex 25 -34.49418289422203 26
    endloop
  endfacet
  facet normal 0 0 -1
    outer loop
      vertex 16 33.25 0
      vertex 5.725184937032999 -31.622629166813855 0
      vertex 5.725184937032999 31.622629166813855 0
    endloop
  endfacet
  facet normal 0.45167373494146773 -0.8864596172568744 -0.10089689854906544
    outer loop
      vertex 35.54385963872473 -26.899815062967004 0
      vertex 28.051662780622948 -37.091204135510985 56
      vertex 26.274815062967 -31.622629166813855 0
    endloop
  endfacet
  facet normal 0.15563616229596589 -0.9826480554343775 -0.10089689854906564
    outer loop
      vertex 26.274815062967 -31.622629166813855 0
      vertex 25 -34.49418289422203 26
      vertex 24.510565162951536 -34.254407521667574 22.909830056250527
    endloop
  endfacet
  facet normal -0.15563616229596788 0.9826480554343772 -0.10089689854906551
    outer loop
      vertex 15 34.73447270253261 16
      vertex 16 33.25 0
      vertex 5.725184937032999 31.622629166813855 0
    endloop
  endfacet
  facet normal 0.1556361622959683 -0.9826480554343772 -0.10089689854906538
    outer loop
      vertex 24.510565162951536 -34.254407521667574 22.909830056250527
      vertex 23.090169943749473 -34.19314075867451 20.122147477075266
      vertex 26.274815062967 -31.622629166813855 0
    endloop
  endfacet
  facet normal -0.15563616229596855 0.9826480554343769 -0.10089689854906546
    outer loop
      vertex 6.9098300562505255 33.87637187802544 20.122147477075266
      vertex 9.122147477075268 33.99961094222616 17.909830056250527
      vertex 5.725184937032999 31.622629166813855 0
    endloop
  endfacet
  facet normal 0.1556361622959687 -0.982648055434377 -0.1008968985490653
    outer loop
      vertex 23.090169943749473 -34.19314075867451 20.122147477075266
      vertex 20.877852522924734 -34.316379822875234 17.909830056250527
      vertex 26.274815062967 -31.622629166813855 0
    endloop
  endfacet
  facet normal -0.15563616229596766 0.9826480554343772 -0.10089689854906565
    outer loop
      vertex 5.725184937032999 31.622629166813855 0
      vertex 9.122147477075268 33.99961094222616 17.909830056250527
      vertex 11.909830056250525 34.295292335359655 16.489434837048464
    endloop
  endfacet
  facet normal 0.15563616229596747 -0.9826480554343773 -0.10089689854906572
    outer loop
      vertex 26.274815062967 -31.622629166813855 0
      vertex 20.877852522924734 -34.316379822875234 17.909830056250527
      vertex 18.090169943749473 -34.612061216008726 16.489434837048464
    endloop
  endfacet
  facet normal -0.15563616229596763 0.9826480554343772 -0.10089689854906567
    outer loop
      vertex 15 34.73447270253261 16
      vertex 5.725184937032999 31.622629166813855 0
      vertex 11.909830056250525 34.295292335359655 16.489434837048464
    endloop
  endfacet
  facet normal 0.155636162295968 -0.982648055434377 -0.1008968985490655
    outer loop
      vertex 16 -33.25 0
      vertex 18.090169943749473 -34.612061216008726 16.489434837048464
      vertex 16 -34.90911983092618 16.158384440324536
    endloop
  endfacet
  facet normal -0.1556361622959676 0.9826480554343772 -0.1008968985490655
    outer loop
      vertex 15 34.73447270253261 16
      vertex 16 34.90911983092618 16.158384440324536
      vertex 16 33.25 0
    endloop
  endfacet
  facet normal 0.1556361622959679 -0.9826480554343773 -0.1008968985490655
    outer loop
      vertex 16 -33.25 0
      vertex 26.274815062967 -31.622629166813855 0
      vertex 18.090169943749473 -34.612061216008726 16.489434837048464
    endloop
  endfacet
  facet normal 0 0 1
    outer loop
      vertex 16 39 56
      vertex 4.134575140094096 36.51802275292239 56
      vertex 16 38.39732142857143 56
    endloop
  endfacet
  facet normal -0.1556361622959688 0.9826480554343769 -0.10089689854906543
    outer loop
      vertex 5.489434837048465 33.9376386410185 22.909830056250527
      vertex 6.9098300562505255 33.87637187802544 20.122147477075266
      vertex 5.725184937032999 31.622629166813855 0
    endloop
  endfacet
  facet normal 0 0 1
    outer loop
      vertex 16 39 56
      vertex 3.948337219377052 37.091204135510985 56
      vertex 4.134575140094096 36.51802275292239 56
    endloop
  endfacet
  facet normal -0.15563616229597865 0.9826480554343755 -0.1008968985490654
    outer loop
      vertex 5.725184937032999 31.622629166813855 0
      vertex 5 34.17741401357295 26
      vertex 5.489434837048465 33.9376386410185 22.909830056250527
    endloop
  endfacet
  facet normal -0.1556361622959681 0.982648055434377 -0.10089689854906528
    outer loop
      vertex 3.948337219377052 37.091204135510985 56
      vertex 16 39 56
      vertex 11.909830056250525 36.24835482418006 35.510565162951536
    endloop
  endfacet
  facet normal -0.45167373494146773 0.8864596172568744 -0.10089689854906546
    outer loop
      vertex 5.725184937032999 31.622629166813855 0
      vertex -3.543859638724733 26.899815062967004 0
      vertex 3.948337219377052 37.091204135510985 56
    endloop
  endfacet
  facet normal -0.15563616229597424 0.9826480554343762 -0.10089689854906533
    outer loop
      vertex 16 39 56
      vertex 16 36.930165883359535 35.84161555967546
      vertex 15 36.78804413110403 36
    endloop
  endfacet
  facet normal -0.15563616229596516 0.9826480554343775 -0.10089689854906593
    outer loop
      vertex 15 36.78804413110403 36
      vertex 11.909830056250525 36.24835482418006 35.510565162951536
      vertex 16 39 56
    endloop
  endfacet
  facet normal -0.15563616229596788 -0.9826480554343772 -0.10089689854906551
    outer loop
      vertex 5.725184937032999 -31.622629166813855 0
      vertex 16 -33.25 0
      vertex 15 -34.73447270253261 16
    endloop
  endfacet
  facet normal -0.9826480554343772 -0.1556361622959679 -0.10089689854906553
    outer loop
      vertex -15.622629166813855 -10.274815062967 0
      vertex -23 0 56
      vertex -17.25 0 0
    endloop
  endfacet
  facet normal 0 0 -1
    outer loop
      vertex -3.543859638724733 -26.899815062967004 0
      vertex -10.899815062967004 -19.543859638724733 0
      vertex -3.543859638724733 26.899815062967004 0
    endloop
  endfacet
  facet normal 0 0 1
    outer loop
      vertex 38.56937926324804 31.06408557419162 56
      vertex 47.06408557419162 22.56937926324804 56
      vertex 38.92362483940646 31.55166278062295 56
    endloop
  endfacet
  facet normal 0 0 1
    outer loop
      vertex 47.55166278062295 22.923624839406454 56
      vertex 38.92362483940646 31.55166278062295 56
      vertex 47.06408557419162 22.56937926324804 56
    endloop
  endfacet
  facet normal -0.15563616229591587 0.9826480554343855 -0.1008968985490646
    outer loop
      vertex 5.725184937032999 31.622629166813855 0
      vertex 3.948337219377052 37.091204135510985 56
      vertex 5 34.17741401357295 26
    endloop
  endfacet
  facet normal -0.15563616229597002 0.9826480554343766 -0.10089689854906601
    outer loop
      vertex 3.948337219377052 37.091204135510985 56
      vertex 11.909830056250525 36.24835482418006 35.510565162951536
      vertex 9.122147477075268 35.66098512710328 34.09016994374947
    endloop
  endfacet
  facet normal -0.15563616229596525 0.9826480554343775 -0.10089689854906495
    outer loop
      vertex 3.948337219377052 37.091204135510985 56
      vertex 9.122147477075268 35.66098512710328 34.09016994374947
      vertex 6.9098300562505255 35.08343087826891 31.877852522924734
    endloop
  endfacet
  facet normal -0.15563616229597066 0.9826480554343766 -0.10089689854906554
    outer loop
      vertex 3.948337219377052 37.091204135510985 56
      vertex 6.9098300562505255 35.08343087826891 31.877852522924734
      vertex 5.489434837048465 34.57222711160991 29.090169943749473
    endloop
  endfacet
  facet normal -0.15563616229597657 0.9826480554343757 -0.1008968985490658
    outer loop
      vertex 3.948337219377052 37.091204135510985 56
      vertex 5.489434837048465 34.57222711160991 29.090169943749473
      vertex 5 34.17741401357295 26
    endloop
  endfacet
  facet normal -0.4516737349414677 0.8864596172568744 -0.10089689854906549
    outer loop
      vertex 3.948337219377052 37.091204135510985 56
      vertex -3.543859638724733 26.899815062967004 0
      vertex -6.923624839406454 31.55166278062295 56
    endloop
  endfacet
  facet normal 0 0 1
    outer loop
      vertex -6.569379263248042 31.06408557419162 56
      vertex -6.923624839406454 31.55166278062295 56
      vertex -15.551662780622951 22.923624839406454 56
    endloop
  endfacet
  facet normal 0 0 1
    outer loop
      vertex -15.551662780622951 22.923624839406454 56
      vertex -15.06408557419162 22.56937926324804 56
      vertex -6.569379263248042 31.06408557419162 56
    endloop
  endfacet
  facet normal -0.7034983354149389 0.7034983354149389 -0.10089689854906553
    outer loop
      vertex -3.543859638724733 26.899815062967004 0
      vertex -15.551662780622951 22.923624839406454 56
      vertex -6.923624839406454 31.55166278062295 56
    endloop
  endfacet
  facet normal 0 0 1
    outer loop
      vertex -15.06408557419162 22.56937926324804 56
      vertex -15.551662780622951 22.923624839406454 56
      vertex -21.091204135510985 12.051662780622948 56
    endloop
  endfacet
  facet normal 0 0 1
    outer loop
      vertex -21.091204135510985 12.051662780622948 56
      vertex -20.518022752922388 11.865424859905904 56
      vertex -15.06408557419162 22.56937926324804 56
    endloop
  endfacet
  facet normal -0.9826480554343772 0.1556361622959681 -0.10089689854906546
    outer loop
      vertex -21.091204135510985 12.051662780622948 56
      vertex -15.622629166813855 10.274815062967 0
      vertex -23 0 56
    endloop
  endfacet
  facet normal 0 0 1
    outer loop
      vertex -20.518022752922388 11.865424859905904 56
      vertex -21.091204135510985 12.051662780622948 56
      vertex -23 0 56
    endloop
  endfacet
  facet normal -0.8864596172568744 0.4516737349414677 -0.10089689854906549
    outer loop
      vertex -15.551662780622951 22.923624839406454 56
      vertex -10.899815062967004 19.543859638724733 0
      vertex -21.091204135510985 12.051662780622948 56
    endloop
  endfacet
  facet normal 0.15563616229596802 -0.9826480554343772 0.10089689854906575
    outer loop
      vertex 5.489434837048465 33.969548540181336 29.090169943749473
      vertex 16 38.39732142857143 56
      vertex 4.134575140094096 36.51802275292239 56
    endloop
  endfacet
  facet normal -0.7034983354149386 0.7034983354149392 0.10089689854906553
    outer loop
      vertex 47.06408557419162 -22.56937926324804 56
      vertex 42.49530656577953 -19.249967012578495 1
      vertex 38.56937926324804 -31.06408557419162 56
    endloop
  endfacet
  facet normal 0.9826480554343772 -0.15563616229596802 0.10089689854906547
    outer loop
      vertex -22.397321428571427 0 56
      vertex -16.75 0 1
      vertex -20.518022752922388 11.865424859905904 56
    endloop
  endfacet
  facet normal 0.7034983354149388 0.7034983354149389 0.10089689854906551
    outer loop
      vertex -15.06408557419162 -22.56937926324804 56
      vertex -3.2499670125784945 -26.49530656577953 1
      vertex -10.49530656577953 -19.249967012578495 1
    endloop
  endfacet
  facet normal 0.7034983354149387 -0.7034983354149389 0.1008968985490655
    outer loop
      vertex -15.06408557419162 22.56937926324804 56
      vertex -10.49530656577953 19.249967012578495 1
      vertex -6.569379263248042 31.06408557419162 56
    endloop
  endfacet
  facet normal 0.1556361622959678 -0.982648055434377 0.10089689854906565
    outer loop
      vertex 16 38.39732142857143 56
      vertex 9.122147477075268 35.05830655567471 34.09016994374947
      vertex 11.909830056250525 35.645676252751485 35.510565162951536
    endloop
  endfacet
  facet normal -0.7034983354149386 -0.7034983354149392 0.10089689854906544
    outer loop
      vertex 38.56937926324804 31.06408557419162 56
      vertex 35.249967012578495 26.49530656577953 1
      vertex 47.06408557419162 22.56937926324804 56
    endloop
  endfacet
  facet normal 0 0 1
    outer loop
      vertex -10.49530656577953 19.249967012578495 1
      vertex -15.147100908666278 -10.120306565779527 1
      vertex -10.49530656577953 -19.249967012578495 1
    endloop
  endfacet
  facet normal 0 0 1
    outer loop
      vertex -3.2499670125784945 26.49530656577953 1
      vertex -10.49530656577953 -19.249967012578495 1
      vertex -3.2499670125784945 -26.49530656577953 1
    endloop
  endfacet
  facet normal 0.8864596172568743 0.45167373494146806 0.10089689854906546
    outer loop
      vertex -20.518022752922388 -11.865424859905904 56
      vertex -10.49530656577953 -19.249967012578495 1
      vertex -15.147100908666278 -10.120306565779527 1
    endloop
  endfacet
  facet normal 0.451673734941468 -0.8864596172568743 0.10089689854906546
    outer loop
      vertex -3.2499670125784945 26.49530656577953 1
      vertex 4.134575140094096 36.51802275292239 56
      vertex -6.569379263248042 31.06408557419162 56
    endloop
  endfacet
  facet normal 0.982648055434377 0.15563616229596786 0.10089689854906547
    outer loop
      vertex -22.397321428571427 0 56
      vertex -15.147100908666278 -10.120306565779527 1
      vertex -16.75 0 1
    endloop
  endfacet
  facet normal 0.15563616229596355 -0.9826480554343777 0.1008968985490656
    outer loop
      vertex 4.134575140094096 36.51802275292239 56
      vertex 5.072028295410941 33.63283860993074 26.45476875925029
      vertex 5.489434837048465 33.969548540181336 29.090169943749473
    endloop
  endfacet
  facet normal 0.45167373494146795 0.8864596172568743 0.10089689854906538
    outer loop
      vertex 5.8796934342204725 -31.14710090866628 1
      vertex -3.2499670125784945 -26.49530656577953 1
      vertex 5.108117134985396 -33.52176858249668 25.317375275223633
    endloop
  endfacet
  facet normal -0.8864596172568744 -0.45167373494146784 0.10089689854906553
    outer loop
      vertex 52.51802275292239 11.865424859905904 56
      vertex 47.06408557419162 22.56937926324804 56
      vertex 42.49530656577953 19.249967012578495 1
    endloop
  endfacet
  facet normal -0.9826480554343772 -0.15563616229596802 0.10089689854906558
    outer loop
      vertex 47.147100908666275 10.120306565779527 1
      vertex 54.39732142857143 0 56
      vertex 52.51802275292239 11.865424859905904 56
    endloop
  endfacet
  facet normal 0.15563616229596786 0.9826480554343772 0.10089689854906518
    outer loop
      vertex 16 -32.75 1
      vertex 5.8796934342204725 -31.14710090866628 1
      vertex 15 -34.13179413110403 16
    endloop
  endfacet
  facet normal 0.15563616229596566 0.9826480554343774 0.10089689854906576
    outer loop
      vertex 5.8796934342204725 -31.14710090866628 1
      vertex 6.9098300562505255 -33.27369330659687 20.122147477075266
      vertex 9.122147477075268 -33.396932370797586 17.909830056250527
    endloop
  endfacet
  facet normal 0.15563616229596755 0.9826480554343774 0.1008968985490654
    outer loop
      vertex 9.122147477075268 -33.396932370797586 17.909830056250527
      vertex 11.909830056250525 -33.69261376393108 16.489434837048464
      vertex 5.8796934342204725 -31.14710090866628 1
    endloop
  endfacet
  facet normal 0.15563616229596758 0.9826480554343772 0.10089689854906538
    outer loop
      vertex 11.909830056250525 -33.69261376393108 16.489434837048464
      vertex 15 -34.13179413110403 16
      vertex 5.8796934342204725 -31.14710090866628 1
    endloop
  endfacet
  facet normal 0.1556361622959744 0.982648055434376 0.10089689854906553
    outer loop
      vertex 15 -34.13179413110403 16
      vertex 16 -34.30644125949761 16.158384440324536
      vertex 16 -32.75 1
    endloop
  endfacet
  facet normal 0.4516737349414623 0.8864596172568768 0.10089689854906803
    outer loop
      vertex 5 -33.54437654685589 26
      vertex 5.108117134985396 -33.52176858249668 25.317375275223633
      vertex -3.2499670125784945 -26.49530656577953 1
    endloop
  endfacet
  facet normal 0.15563616229597835 -0.9826480554343759 0.10089689854906182
    outer loop
      vertex 16 38.39732142857143 56
      vertex 5.489434837048465 33.969548540181336 29.090169943749473
      vertex 6.9098300562505255 34.48075230684034 31.877852522924734
    endloop
  endfacet
  facet normal 0.15563616229596747 -0.982648055434377 0.10089689854906575
    outer loop
      vertex 16 38.39732142857143 56
      vertex 6.9098300562505255 34.48075230684034 31.877852522924734
      vertex 9.122147477075268 35.05830655567471 34.09016994374947
    endloop
  endfacet
  facet normal -0.15563616229596797 -0.9826480554343772 0.10089689854906544
    outer loop
      vertex 16 38.39732142857143 56
      vertex 16 36.327487311930966 35.84161555967546
      vertex 27.865424859905907 36.51802275292239 56
    endloop
  endfacet
  facet normal -0.15563616229597063 -0.9826480554343766 0.10089689854906701
    outer loop
      vertex 16 36.327487311930966 35.84161555967546
      vertex 18.090169943749473 35.96244513340056 35.510565162951536
      vertex 27.865424859905907 36.51802275292239 56
    endloop
  endfacet
  facet normal 0.15563616229596905 0.9826480554343769 0.10089689854906554
    outer loop
      vertex 5.489434837048465 -33.33496006958993 22.909830056250527
      vertex 6.9098300562505255 -33.27369330659687 20.122147477075266
      vertex 5.8796934342204725 -31.14710090866628 1
    endloop
  endfacet
  facet normal 0.15563616229597968 0.9826480554343754 0.10089689854906556
    outer loop
      vertex 5.8796934342204725 -31.14710090866628 1
      vertex 5.108117134985396 -33.52176858249668 25.317375275223633
      vertex 5.489434837048465 -33.33496006958993 22.909830056250527
    endloop
  endfacet
  facet normal -0.4516737349414683 -0.8864596172568742 0.10089689854906553
    outer loop
      vertex 27.865424859905907 36.51802275292239 56
      vertex 26.12030656577953 31.14710090866628 1
      vertex 38.56937926324804 31.06408557419162 56
    endloop
  endfacet
  facet normal 0.4516737349414956 0.8864596172568617 0.10089689854905283
    outer loop
      vertex 5.072028295410941 -33.63283860993074 26.45476875925029
      vertex 5 -33.54437654685589 26
      vertex -3.2499670125784945 -26.49530656577953 1
    endloop
  endfacet
  facet normal -0.15563616229596686 -0.9826480554343774 0.10089689854906543
    outer loop
      vertex 25 33.89150432279346 26
      vertex 27.865424859905907 36.51802275292239 56
      vertex 24.510565162951536 34.286317420830414 29.090169943749473
    endloop
  endfacet
  facet normal 0.45167373494146734 -0.8864596172568746 0.10089689854906564
    outer loop
      vertex 4.134575140094096 36.51802275292239 56
      vertex -3.2499670125784945 26.49530656577953 1
      vertex 5.072028295410941 33.63283860993074 26.45476875925029
    endloop
  endfacet
  facet normal 0.15563616229596738 -0.9826480554343772 0.10089689854906579
    outer loop
      vertex 15 36.18536555967546 36
      vertex 16 38.39732142857143 56
      vertex 11.909830056250525 35.645676252751485 35.510565162951536
    endloop
  endfacet
  facet normal 0.4516737349414676 0.8864596172568745 0.10089689854906549
    outer loop
      vertex -3.2499670125784945 -26.49530656577953 1
      vertex -6.569379263248042 -31.06408557419162 56
      vertex 5.072028295410941 -33.63283860993074 26.45476875925029
    endloop
  endfacet
  facet normal 0.15563616229597407 -0.9826480554343762 0.10089689854906533
    outer loop
      vertex 16 36.327487311930966 35.84161555967546
      vertex 16 38.39732142857143 56
      vertex 15 36.18536555967546 36
    endloop
  endfacet
  facet normal -0.1556361622959704 -0.9826480554343765 0.10089689854906612
    outer loop
      vertex 23.090169943749473 34.79752118748941 31.877852522924734
      vertex 27.865424859905907 36.51802275292239 56
      vertex 20.877852522924734 35.37507543632379 34.09016994374947
    endloop
  endfacet
  facet normal 0.45167373494149526 -0.8864596172568621 0.10089689854905061
    outer loop
      vertex -3.2499670125784945 26.49530656577953 1
      vertex 5 33.54437654685589 26
      vertex 5.072028295410941 33.63283860993074 26.45476875925029
    endloop
  endfacet
  facet normal 0.15563616229596006 -0.9826480554343784 0.10089689854906551
    outer loop
      vertex 5.8796934342204725 31.14710090866628 1
      vertex 5.489434837048465 33.33496006958993 22.909830056250527
      vertex 5.108117134985396 33.521768582496684 25.317375275223633
    endloop
  endfacet
  facet normal 0.15563616229596905 -0.9826480554343769 0.10089689854906554
    outer loop
      vertex 5.489434837048465 33.33496006958993 22.909830056250527
      vertex 5.8796934342204725 31.14710090866628 1
      vertex 6.9098300562505255 33.27369330659687 20.122147477075266
    endloop
  endfacet
  facet normal 0.4516737349414782 -0.8864596172568696 0.10089689854906037
    outer loop
      vertex -3.2499670125784945 26.49530656577953 1
      vertex 5.108117134985396 33.521768582496684 25.317375275223633
      vertex 5 33.54437654685589 26
    endloop
  endfacet
  facet normal -0.15563616229596786 0.9826480554343772 0.10089689854906515
    outer loop
      vertex 26.12030656577953 -31.14710090866628 1
      vertex 16 -32.75 1
      vertex 18.090169943749473 -34.00938264458015 16.489434837048464
    endloop
  endfacet
  facet normal 0.1556361622959744 -0.982648055434376 0.10089689854906553
    outer loop
      vertex 15 34.13179413110403 16
      vertex 16 32.75 1
      vertex 16 34.30644125949761 16.158384440324536
    endloop
  endfacet
  facet normal -0.15563616229597127 0.9826480554343766 0.10089689854906557
    outer loop
      vertex 16 -32.75 1
      vertex 16 -34.30644125949761 16.158384440324536
      vertex 18.090169943749473 -34.00938264458015 16.489434837048464
    endloop
  endfacet
  facet normal 0.15563616229596766 -0.9826480554343772 0.10089689854906539
    outer loop
      vertex 5.8796934342204725 31.14710090866628 1
      vertex 15 34.13179413110403 16
      vertex 11.909830056250525 33.69261376393108 16.489434837048464
    endloop
  endfacet
  facet normal -0.15563616229596539 0.9826480554343774 0.10089689854906647
    outer loop
      vertex 18.090169943749473 -34.00938264458015 16.489434837048464
      vertex 20.877852522924734 -33.713701251446665 17.909830056250527
      vertex 26.12030656577953 -31.14710090866628 1
    endloop
  endfacet
  facet normal 0.15563616229596752 -0.9826480554343774 0.1008968985490654
    outer loop
      vertex 5.8796934342204725 31.14710090866628 1
      vertex 11.909830056250525 33.69261376393108 16.489434837048464
      vertex 9.122147477075268 33.396932370797586 17.909830056250527
    endloop
  endfacet
  facet normal -0.15563616229596874 0.9826480554343769 0.10089689854906538
    outer loop
      vertex 20.877852522924734 -33.713701251446665 17.909830056250527
      vertex 23.090169943749473 -33.59046218724594 20.122147477075266
      vertex 26.12030656577953 -31.14710090866628 1
    endloop
  endfacet
  facet normal 0 0 1
    outer loop
      vertex -3.2499670125784945 -26.49530656577953 1
      vertex 5.8796934342204725 -31.14710090866628 1
      vertex 5.8796934342204725 31.14710090866628 1
    endloop
  endfacet
  facet normal -0.1556361622959661 -0.9826480554343774 0.10089689854906535
    outer loop
      vertex 24.510565162951536 34.286317420830414 29.090169943749473
      vertex 27.865424859905907 36.51802275292239 56
      vertex 23.090169943749473 34.79752118748941 31.877852522924734
    endloop
  endfacet
  facet normal 0 0 1
    outer loop
      vertex 5.8796934342204725 -31.14710090866628 1
      vertex 16 -32.75 1
      vertex 16 32.75 1
    endloop
  endfacet
  facet normal -0.1556361622959657 -0.9826480554343775 0.10089689854906468
    outer loop
      vertex 20.877852522924734 35.37507543632379 34.09016994374947
      vertex 27.865424859905907 36.51802275292239 56
      vertex 18.090169943749473 35.96244513340056 35.510565162951536
    endloop
  endfacet
  facet normal -0.7034983354149388 -0.7034983354149389 0.10089689854906554
    outer loop
      vertex 47.06408557419162 22.56937926324804 56
      vertex 35.249967012578495 26.49530656577953 1
      vertex 42.49530656577953 19.249967012578495 1
    endloop
  endfacet
  facet normal 0.15563616229596575 -0.9826480554343774 0.10089689854906576
    outer loop
      vertex 6.9098300562505255 33.27369330659687 20.122147477075266
      vertex 5.8796934342204725 31.14710090866628 1
      vertex 9.122147477075268 33.396932370797586 17.909830056250527
    endloop
  endfacet
  facet normal -0.1556361622959684 0.9826480554343769 0.10089689854906542
    outer loop
      vertex 23.090169943749473 -33.59046218724594 20.122147477075266
      vertex 24.510565162951536 -33.651728950239004 22.909830056250527
      vertex 26.12030656577953 -31.14710090866628 1
    endloop
  endfacet
  facet normal 0.15563616229596786 -0.9826480554343772 0.10089689854906517
    outer loop
      vertex 5.8796934342204725 31.14710090866628 1
      vertex 16 32.75 1
      vertex 15 34.13179413110403 16
    endloop
  endfacet
  facet normal -0.1556361622959657 0.9826480554343774 0.10089689854906567
    outer loop
      vertex 24.510565162951536 -33.651728950239004 22.909830056250527
      vertex 25 -33.89150432279346 26
      vertex 26.12030656577953 -31.14710090866628 1
    endloop
  endfacet
  facet normal 0.7034983354149387 0.7034983354149389 0.10089689854906549
    outer loop
      vertex -15.06408557419162 -22.56937926324804 56
      vertex -6.569379263248042 -31.06408557419162 56
      vertex -3.2499670125784945 -26.49530656577953 1
    endloop
  endfacet
  facet normal 0.8864596172568745 0.45167373494146773 0.1008968985490655
    outer loop
      vertex -20.518022752922388 -11.865424859905904 56
      vertex -15.06408557419162 -22.56937926324804 56
      vertex -10.49530656577953 -19.249967012578495 1
    endloop
  endfacet
  facet normal -0.8864596172568743 -0.45167373494146773 0.10089689854906556
    outer loop
      vertex 52.51802275292239 11.865424859905904 56
      vertex 42.49530656577953 19.249967012578495 1
      vertex 47.147100908666275 10.120306565779527 1
    endloop
  endfacet
  facet normal 0.9826480554343772 0.15563616229596802 0.10089689854906546
    outer loop
      vertex -15.147100908666278 -10.120306565779527 1
      vertex -22.397321428571427 0 56
      vertex -20.518022752922388 -11.865424859905904 56
    endloop
  endfacet
  facet normal -0.982648055434377 -0.1556361622959682 0.10089689854906553
    outer loop
      vertex 54.39732142857143 0 56
      vertex 47.147100908666275 10.120306565779527 1
      vertex 48.75 0 1
    endloop
  endfacet
  facet normal 0.15563616229596375 0.9826480554343777 0.1008968985490656
    outer loop
      vertex 5.072028295410941 -33.63283860993074 26.45476875925029
      vertex 4.134575140094096 -36.51802275292239 56
      vertex 5.489434837048465 -33.969548540181336 29.090169943749473
    endloop
  endfacet
  facet normal 0 0 1
    outer loop
      vertex 47.147100908666275 10.120306565779527 1
      vertex 47.147100908666275 -10.120306565779527 1
      vertex 48.75 0 1
    endloop
  endfacet
  facet normal 0.45167373494146795 -0.8864596172568743 0.10089689854906565
    outer loop
      vertex -3.2499670125784945 26.49530656577953 1
      vertex 5.8796934342204725 31.14710090866628 1
      vertex 5.108117134985396 33.521768582496684 25.317375275223633
    endloop
  endfacet
  facet normal -0.451673734941468 0.8864596172568743 0.10089689854906551
    outer loop
      vertex 27.865424859905907 -36.51802275292239 56
      vertex 35.249967012578495 -26.49530656577953 1
      vertex 26.12030656577953 -31.14710090866628 1
    endloop
  endfacet
  facet normal 0 0 1
    outer loop
      vertex 5.8796934342204725 31.14710090866628 1
      vertex 5.8796934342204725 -31.14710090866628 1
      vertex 16 32.75 1
    endloop
  endfacet
  facet normal -0.15563616229596805 0.9826480554343772 0.10089689854906553
    outer loop
      vertex 27.865424859905907 -36.51802275292239 56
      vertex 26.12030656577953 -31.14710090866628 1
      vertex 25 -33.89150432279346 26
    endloop
  endfacet
  facet normal 0 0 1
    outer loop
      vertex -3.2499670125784945 26.49530656577953 1
      vertex -3.2499670125784945 -26.49530656577953 1
      vertex 5.8796934342204725 31.14710090866628 1
    endloop
  endfacet
  facet normal 0 0 1
    outer loop
      vertex 16 -32.75 1
      vertex 26.12030656577953 -31.14710090866628 1
      vertex 26.12030656577953 31.14710090866628 1
    endloop
  endfacet
  facet normal 0.7034983354149389 -0.7034983354149389 0.10089689854906549
    outer loop
      vertex -3.2499670125784945 26.49530656577953 1
      vertex -6.569379263248042 31.06408557419162 56
      vertex -10.49530656577953 19.249967012578495 1
    endloop
  endfacet
  facet normal 0 0 1
    outer loop
      vertex 35.249967012578495 26.49530656577953 1
      vertex 26.12030656577953 -31.14710090866628 1
      vertex 35.249967012578495 -26.49530656577953 1
    endloop
  endfacet
  facet normal -0.7034983354149389 0.7034983354149389 0.10089689854906544
    outer loop
      vertex 35.249967012578495 -26.49530656577953 1
      vertex 38.56937926324804 -31.06408557419162 56
      vertex 42.49530656577953 -19.249967012578495 1
    endloop
  endfacet
  facet normal 0.8864596172568743 -0.451673734941468 0.10089689854906551
    outer loop
      vertex -10.49530656577953 19.249967012578495 1
      vertex -15.06408557419162 22.56937926324804 56
      vertex -15.147100908666278 10.120306565779527 1
    endloop
  endfacet
  facet normal 0 0 1
    outer loop
      vertex 42.49530656577953 19.249967012578495 1
      vertex 35.249967012578495 -26.49530656577953 1
      vertex 42.49530656577953 -19.249967012578495 1
    endloop
  endfacet
  facet normal 0.982648055434377 -0.15563616229596786 0.10089689854906544
    outer loop
      vertex -15.147100908666278 10.120306565779527 1
      vertex -20.518022752922388 11.865424859905904 56
      vertex -16.75 0 1
    endloop
  endfacet
  facet normal 0 0 1
    outer loop
      vertex -10.49530656577953 19.249967012578495 1
      vertex -10.49530656577953 -19.249967012578495 1
      vertex -3.2499670125784945 26.49530656577953 1
    endloop
  endfacet
  facet normal 0 0 1
    outer loop
      vertex 47.147100908666275 10.120306565779527 1
      vertex 42.49530656577953 -19.249967012578495 1
      vertex 47.147100908666275 -10.120306565779527 1
    endloop
  endfacet
  facet normal -0.8864596172568745 0.45167373494146773 0.10089689854906554
    outer loop
      vertex 42.49530656577953 -19.249967012578495 1
      vertex 47.06408557419162 -22.56937926324804 56
      vertex 47.147100908666275 -10.120306565779527 1
    endloop
  endfacet
  facet normal 0 0 1
    outer loop
      vertex -15.147100908666278 10.120306565779527 1
      vertex -15.147100908666278 -10.120306565779527 1
      vertex -10.49530656577953 19.249967012578495 1
    endloop
  endfacet
  facet normal -0.982648055434377 0.1556361622959682 0.10089689854906558
    outer loop
      vertex 47.147100908666275 -10.120306565779527 1
      vertex 52.51802275292239 -11.865424859905904 56
      vertex 48.75 0 1
    endloop
  endfacet
  facet normal 0 0 1
    outer loop
      vertex -15.147100908666278 10.120306565779527 1
      vertex -16.75 0 1
      vertex -15.147100908666278 -10.120306565779527 1
    endloop
  endfacet
  facet normal 0 0 1
    outer loop
      vertex 42.49530656577953 19.249967012578495 1
      vertex 42.49530656577953 -19.249967012578495 1
      vertex 47.147100908666275 10.120306565779527 1
    endloop
  endfacet
  facet normal 0.15563616229597022 0.9826480554343768 0.10089689854906582
    outer loop
      vertex 5.489434837048465 -33.969548540181336 29.090169943749473
      vertex 4.134575140094096 -36.51802275292239 56
      vertex 6.9098300562505255 -34.48075230684034 31.877852522924734
    endloop
  endfacet
  facet normal 0.15563616229596777 0.9826480554343773 0.10089689854906558
    outer loop
      vertex 6.9098300562505255 -34.48075230684034 31.877852522924734
      vertex 4.134575140094096 -36.51802275292239 56
      vertex 9.122147477075268 -35.05830655567471 34.09016994374947
    endloop
  endfacet
  facet normal 0 0 1
    outer loop
      vertex 35.249967012578495 26.49530656577953 1
      vertex 35.249967012578495 -26.49530656577953 1
      vertex 42.49530656577953 19.249967012578495 1
    endloop
  endfacet
  facet normal 0.15563616229596786 0.9826480554343772 0.10089689854906558
    outer loop
      vertex 9.122147477075268 -35.05830655567471 34.09016994374947
      vertex 4.134575140094096 -36.51802275292239 56
      vertex 11.909830056250525 -35.645676252751485 35.510565162951536
    endloop
  endfacet
  facet normal -0.15563616229596802 -0.9826480554343772 0.10089689854906553
    outer loop
      vertex 26.12030656577953 31.14710090866628 1
      vertex 27.865424859905907 36.51802275292239 56
      vertex 25 33.89150432279346 26
    endloop
  endfacet
  facet normal -0.45167373494146806 -0.8864596172568743 0.10089689854906546
    outer loop
      vertex 35.249967012578495 26.49530656577953 1
      vertex 38.56937926324804 31.06408557419162 56
      vertex 26.12030656577953 31.14710090866628 1
    endloop
  endfacet
  facet normal 0.451673734941468 0.8864596172568742 0.10089689854906563
    outer loop
      vertex 4.134575140094096 -36.51802275292239 56
      vertex 5.072028295410941 -33.63283860993074 26.45476875925029
      vertex -6.569379263248042 -31.06408557419162 56
    endloop
  endfacet
  facet normal 0.15563616229596747 0.9826480554343774 0.10089689854906546
    outer loop
      vertex 15 -36.18536555967546 36
      vertex 11.909830056250525 -35.645676252751485 35.510565162951536
      vertex 4.134575140094096 -36.51802275292239 56
    endloop
  endfacet
  facet normal -0.15563616229596572 -0.9826480554343774 0.10089689854906568
    outer loop
      vertex 25 33.89150432279346 26
      vertex 24.510565162951536 33.651728950239004 22.909830056250527
      vertex 26.12030656577953 31.14710090866628 1
    endloop
  endfacet
  facet normal -0.1556361622959657 0.9826480554343775 0.1008968985490647
    outer loop
      vertex 27.865424859905907 -36.51802275292239 56
      vertex 20.877852522924734 -35.37507543632379 34.09016994374947
      vertex 18.090169943749473 -35.96244513340056 35.510565162951536
    endloop
  endfacet
  facet normal 0.15563616229597424 0.9826480554343762 0.10089689854906533
    outer loop
      vertex 16 -38.39732142857143 56
      vertex 16 -36.327487311930966 35.84161555967546
      vertex 15 -36.18536555967546 36
    endloop
  endfacet
  facet normal -0.15563616229596608 0.9826480554343774 0.10089689854906536
    outer loop
      vertex 27.865424859905907 -36.51802275292239 56
      vertex 24.510565162951536 -34.286317420830414 29.090169943749473
      vertex 23.090169943749473 -34.79752118748941 31.877852522924734
    endloop
  endfacet
  facet normal -0.1556361622959684 -0.9826480554343769 0.10089689854906542
    outer loop
      vertex 23.090169943749473 33.59046218724594 20.122147477075266
      vertex 26.12030656577953 31.14710090866628 1
      vertex 24.510565162951536 33.651728950239004 22.909830056250527
    endloop
  endfacet
  facet normal -0.15563616229597046 0.9826480554343766 0.10089689854906615
    outer loop
      vertex 27.865424859905907 -36.51802275292239 56
      vertex 23.090169943749473 -34.79752118748941 31.877852522924734
      vertex 20.877852522924734 -35.37507543632379 34.09016994374947
    endloop
  endfacet
  facet normal 0.155636162295968 0.982648055434377 0.10089689854906575
    outer loop
      vertex 15 -36.18536555967546 36
      vertex 4.134575140094096 -36.51802275292239 56
      vertex 16 -38.39732142857143 56
    endloop
  endfacet
  facet normal -0.15563616229596683 0.9826480554343774 0.10089689854906544
    outer loop
      vertex 27.865424859905907 -36.51802275292239 56
      vertex 25 -33.89150432279346 26
      vertex 24.510565162951536 -34.286317420830414 29.090169943749473
    endloop
  endfacet
  facet normal -0.15563616229596874 -0.9826480554343769 0.10089689854906538
    outer loop
      vertex 20.877852522924734 33.713701251446665 17.909830056250527
      vertex 26.12030656577953 31.14710090866628 1
      vertex 23.090169943749473 33.59046218724594 20.122147477075266
    endloop
  endfacet
  facet normal -0.4516737349414683 0.8864596172568742 0.10089689854906547
    outer loop
      vertex 35.249967012578495 -26.49530656577953 1
      vertex 27.865424859905907 -36.51802275292239 56
      vertex 38.56937926324804 -31.06408557419162 56
    endloop
  endfacet
  facet normal -0.1556361622959709 0.9826480554343767 0.1008968985490654
    outer loop
      vertex 16 -36.327487311930966 35.84161555967546
      vertex 16 -38.39732142857143 56
      vertex 18.090169943749473 -35.96244513340056 35.510565162951536
    endloop
  endfacet
  facet normal 0.8864596172568745 -0.45167373494146773 0.10089689854906546
    outer loop
      vertex -20.518022752922388 11.865424859905904 56
      vertex -15.147100908666278 10.120306565779527 1
      vertex -15.06408557419162 22.56937926324804 56
    endloop
  endfacet
  facet normal -0.15563616229596539 -0.9826480554343774 0.10089689854906647
    outer loop
      vertex 20.877852522924734 33.713701251446665 17.909830056250527
      vertex 18.090169943749473 34.00938264458015 16.489434837048464
      vertex 26.12030656577953 31.14710090866628 1
    endloop
  endfacet
  facet normal -0.15563616229596794 0.982648055434377 0.10089689854906572
    outer loop
      vertex 18.090169943749473 -35.96244513340056 35.510565162951536
      vertex 16 -38.39732142857143 56
      vertex 27.865424859905907 -36.51802275292239 56
    endloop
  endfacet
  facet normal -0.15563616229597133 -0.9826480554343766 0.10089689854906557
    outer loop
      vertex 16 32.75 1
      vertex 18.090169943749473 34.00938264458015 16.489434837048464
      vertex 16 34.30644125949761 16.158384440324536
    endloop
  endfacet
  facet normal -0.15563616229596786 -0.9826480554343772 0.10089689854906515
    outer loop
      vertex 16 32.75 1
      vertex 26.12030656577953 31.14710090866628 1
      vertex 18.090169943749473 34.00938264458015 16.489434837048464
    endloop
  endfacet
  facet normal 0 0 1
    outer loop
      vertex 26.12030656577953 31.14710090866628 1
      vertex 26.12030656577953 -31.14710090866628 1
      vertex 35.249967012578495 26.49530656577953 1
    endloop
  endfacet
  facet normal 0 0 1
    outer loop
      vertex 16 32.75 1
      vertex 16 -32.75 1
      vertex 26.12030656577953 31.14710090866628 1
    endloop
  endfacet
  facet normal -0.9826480554343772 0.15563616229596802 0.10089689854906554
    outer loop
      vertex 54.39732142857143 0 56
      vertex 48.75 0 1
      vertex 52.51802275292239 -11.865424859905904 56
    endloop
  endfacet
  facet normal -0.8864596172568744 0.45167373494146784 0.10089689854906557
    outer loop
      vertex 52.51802275292239 -11.865424859905904 56
      vertex 47.147100908666275 -10.120306565779527 1
      vertex 47.06408557419162 -22.56937926324804 56
    endloop
  endfacet
  facet normal 0.4539904997395473 0 -0.8910065241883676
    outer loop
      vertex 9.122147477075268 -35.05830655567471 34.09016994374947
      vertex 11.909830056250525 -36.24835482418006 35.510565162951536
      vertex 9.122147477075268 -35.66098512710328 34.09016994374947
    endloop
  endfacet
  facet normal -0.1564344650402304 0 0.9876883405951378
    outer loop
      vertex 16 34.30644125949761 16.158384440324536
      vertex 16 34.90911983092618 16.158384440324536
      vertex 15 34.73447270253261 16
    endloop
  endfacet
  facet normal 0.15643446504023062 0 0.9876883405951378
    outer loop
      vertex 15 -34.13179413110403 16
      vertex 11.909830056250525 -34.295292335359655 16.489434837048464
      vertex 15 -34.73447270253261 16
    endloop
  endfacet
  facet normal 0.15643446504023062 0 0.9876883405951378
    outer loop
      vertex 11.909830056250525 -33.69261376393108 16.489434837048464
      vertex 11.909830056250525 -34.295292335359655 16.489434837048464
      vertex 15 -34.13179413110403 16
    endloop
  endfacet
  facet normal 0.7071067811865469 1.0015591825655353e-16 0.7071067811865481
    outer loop
      vertex 9.122147477075268 -33.396932370797586 17.909830056250527
      vertex 6.9098300562505255 -33.27369330659687 20.122147477075266
      vertex 6.9098300562505255 -33.87637187802544 20.122147477075266
    endloop
  endfacet
  facet normal 0.8910065241883683 0 0.45399049973954597
    outer loop
      vertex 6.9098300562505255 -33.27369330659687 20.122147477075266
      vertex 5.489434837048465 -33.9376386410185 22.909830056250527
      vertex 6.9098300562505255 -33.87637187802544 20.122147477075266
    endloop
  endfacet
  facet normal 0.707106781186547 0 0.707106781186548
    outer loop
      vertex 9.122147477075268 -33.396932370797586 17.909830056250527
      vertex 6.9098300562505255 -33.87637187802544 20.122147477075266
      vertex 9.122147477075268 -33.99961094222616 17.909830056250527
    endloop
  endfacet
  facet normal 0.4539904997395473 0 0.8910065241883677
    outer loop
      vertex 11.909830056250525 -33.69261376393108 16.489434837048464
      vertex 9.122147477075268 -33.99961094222616 17.909830056250527
      vertex 11.909830056250525 -34.295292335359655 16.489434837048464
    endloop
  endfacet
  facet normal 0.4539904997395473 0 0.8910065241883677
    outer loop
      vertex 9.122147477075268 -33.396932370797586 17.909830056250527
      vertex 9.122147477075268 -33.99961094222616 17.909830056250527
      vertex 11.909830056250525 -33.69261376393108 16.489434837048464
    endloop
  endfacet
  facet normal 0.9876883405951375 0 0.15643446504023176
    outer loop
      vertex 5 -34.17741401357295 26
      vertex 5.108117134985396 -33.52176858249668 25.317375275223633
      vertex 5 -33.54437654685589 26
    endloop
  endfacet
  facet normal 0.9876883405951377 -5.367516815071493e-16 0.15643446504023123
    outer loop
      vertex 5.108117134985396 -33.52176858249668 25.317375275223633
      vertex 5 -34.17741401357295 26
      vertex 5.489434837048465 -33.9376386410185 22.909830056250527
    endloop
  endfacet
  facet normal 0.8910065241883683 0 -0.45399049973954597
    outer loop
      vertex 5.489434837048465 -33.969548540181336 29.090169943749473
      vertex 6.9098300562505255 -35.08343087826891 31.877852522924734
      vertex 5.489434837048465 -34.57222711160991 29.090169943749473
    endloop
  endfacet
  facet normal 0.9876883405951379 0 -0.15643446504023042
    outer loop
      vertex 5 -34.17741401357295 26
      vertex 5 -33.54437654685589 26
      vertex 5.072028295410941 -33.63283860993074 26.45476875925029
    endloop
  endfacet
  facet normal 0.9876883405951377 0 -0.15643446504023145
    outer loop
      vertex 5.489434837048465 -34.57222711160991 29.090169943749473
      vertex 5.072028295410941 -33.63283860993074 26.45476875925029
      vertex 5.489434837048465 -33.969548540181336 29.090169943749473
    endloop
  endfacet
  facet normal 0.8910065241883683 0 -0.45399049973954597
    outer loop
      vertex 6.9098300562505255 -35.08343087826891 31.877852522924734
      vertex 5.489434837048465 -33.969548540181336 29.090169943749473
      vertex 6.9098300562505255 -34.48075230684034 31.877852522924734
    endloop
  endfacet
  facet normal 0.9876883405951378 0 0.15643446504023115
    outer loop
      vertex 5.489434837048465 -33.9376386410185 22.909830056250527
      vertex 5.489434837048465 -33.33496006958993 22.909830056250527
      vertex 5.108117134985396 -33.52176858249668 25.317375275223633
    endloop
  endfacet
  facet normal 0.707106781186547 0 -0.707106781186548
    outer loop
      vertex 6.9098300562505255 -34.48075230684034 31.877852522924734
      vertex 9.122147477075268 -35.66098512710328 34.09016994374947
      vertex 6.9098300562505255 -35.08343087826891 31.877852522924734
    endloop
  endfacet
  facet normal 0.8910065241883683 0 0.45399049973954597
    outer loop
      vertex 5.489434837048465 -33.9376386410185 22.909830056250527
      vertex 6.9098300562505255 -33.27369330659687 20.122147477075266
      vertex 5.489434837048465 -33.33496006958993 22.909830056250527
    endloop
  endfacet
  facet normal 0.8910065241883683 0 0.45399049973954597
    outer loop
      vertex 6.9098300562505255 33.27369330659687 20.122147477075266
      vertex 6.9098300562505255 33.87637187802544 20.122147477075266
      vertex 5.489434837048465 33.33496006958993 22.909830056250527
    endloop
  endfacet
  facet normal 0.9876883405951378 6.833338641246776e-16 -0.1564344650402312
    outer loop
      vertex 5.072028295410941 -33.63283860993074 26.45476875925029
      vertex 5.489434837048465 -34.57222711160991 29.090169943749473
      vertex 5 -34.17741401357295 26
    endloop
  endfacet
  facet normal 0.4539904997395473 0 -0.8910065241883677
    outer loop
      vertex 11.909830056250525 -36.24835482418006 35.510565162951536
      vertex 9.122147477075268 -35.05830655567471 34.09016994374947
      vertex 11.909830056250525 -35.645676252751485 35.510565162951536
    endloop
  endfacet
  facet normal 0.15643446504023062 0 -0.9876883405951378
    outer loop
      vertex 11.909830056250525 -35.645676252751485 35.510565162951536
      vertex 15 -36.78804413110403 36
      vertex 11.909830056250525 -36.24835482418006 35.510565162951536
    endloop
  endfacet
  facet normal -0.45399049973954686 0 0.8910065241883678
    outer loop
      vertex 20.877852522924734 33.713701251446665 17.909830056250527
      vertex 20.877852522924734 34.316379822875234 17.909830056250527
      vertex 18.090169943749473 34.00938264458015 16.489434837048464
    endloop
  endfacet
  facet normal -0.1564344650402309 0 0.9876883405951378
    outer loop
      vertex 16 34.90911983092618 16.158384440324536
      vertex 16 34.30644125949761 16.158384440324536
      vertex 18.090169943749473 34.612061216008726 16.489434837048464
    endloop
  endfacet
  facet normal -0.1564344650402309 0 0.9876883405951377
    outer loop
      vertex 18.090169943749473 34.00938264458015 16.489434837048464
      vertex 18.090169943749473 34.612061216008726 16.489434837048464
      vertex 16 34.30644125949761 16.158384440324536
    endloop
  endfacet
  facet normal -0.4539904997395469 0 0.8910065241883679
    outer loop
      vertex 18.090169943749473 34.00938264458015 16.489434837048464
      vertex 20.877852522924734 34.316379822875234 17.909830056250527
      vertex 18.090169943749473 34.612061216008726 16.489434837048464
    endloop
  endfacet
  facet normal -0.1564344650402338 0 -0.9876883405951372
    outer loop
      vertex 15 -36.78804413110403 36
      vertex 15 -36.18536555967546 36
      vertex 16 -36.930165883359535 35.84161555967546
    endloop
  endfacet
  facet normal 0.15643446504023065 0 -0.9876883405951378
    outer loop
      vertex 15 -36.78804413110403 36
      vertex 11.909830056250525 -35.645676252751485 35.510565162951536
      vertex 15 -36.18536555967546 36
    endloop
  endfacet
  facet normal -0.15643446504023378 0 -0.9876883405951372
    outer loop
      vertex 15 -36.18536555967546 36
      vertex 16 -36.327487311930966 35.84161555967546
      vertex 16 -36.930165883359535 35.84161555967546
    endloop
  endfacet
  facet normal -0.4539904997395469 0 -0.8910065241883679
    outer loop
      vertex 18.090169943749473 -35.96244513340056 35.510565162951536
      vertex 20.877852522924734 -35.97775400775236 34.09016994374947
      vertex 18.090169943749473 -36.56512370482913 35.510565162951536
    endloop
  endfacet
  facet normal -0.7071067811865476 0 0.7071067811865476
    outer loop
      vertex 20.877852522924734 33.713701251446665 17.909830056250527
      vertex 23.090169943749473 34.19314075867451 20.122147477075266
      vertex 20.877852522924734 34.316379822875234 17.909830056250527
    endloop
  endfacet
  facet normal -0.7071067811865476 -2.915685132460346e-17 0.7071067811865476
    outer loop
      vertex 20.877852522924734 33.713701251446665 17.909830056250527
      vertex 23.090169943749473 33.59046218724594 20.122147477075266
      vertex 23.090169943749473 34.19314075867451 20.122147477075266
    endloop
  endfacet
  facet normal -0.8910065241883678 0 0.45399049973954686
    outer loop
      vertex 23.090169943749473 33.59046218724594 20.122147477075266
      vertex 24.510565162951536 34.254407521667574 22.909830056250527
      vertex 23.090169943749473 34.19314075867451 20.122147477075266
    endloop
  endfacet
  facet normal -0.8910065241883678 0 0.45399049973954686
    outer loop
      vertex 24.510565162951536 34.254407521667574 22.909830056250527
      vertex 23.090169943749473 33.59046218724594 20.122147477075266
      vertex 24.510565162951536 33.651728950239004 22.909830056250527
    endloop
  endfacet
  facet normal -0.9876883405951378 0 0.15643446504023073
    outer loop
      vertex 25 34.49418289422203 26
      vertex 24.510565162951536 33.651728950239004 22.909830056250527
      vertex 25 33.89150432279346 26
    endloop
  endfacet
  facet normal -0.9876883405951378 0 0.15643446504023073
    outer loop
      vertex 24.510565162951536 33.651728950239004 22.909830056250527
      vertex 25 34.49418289422203 26
      vertex 24.510565162951536 34.254407521667574 22.909830056250527
    endloop
  endfacet
  facet normal -0.9876883405951378 0 -0.15643446504023073
    outer loop
      vertex 25 33.89150432279346 26
      vertex 24.510565162951536 34.888995992258984 29.090169943749473
      vertex 25 34.49418289422203 26
    endloop
  endfacet
  facet normal -0.15643446504022923 0 -0.9876883405951379
    outer loop
      vertex 18.090169943749473 -35.96244513340056 35.510565162951536
      vertex 18.090169943749473 -36.56512370482913 35.510565162951536
      vertex 16 -36.327487311930966 35.84161555967546
    endloop
  endfacet
  facet normal -0.15643446504022923 0 -0.9876883405951379
    outer loop
      vertex 16 -36.327487311930966 35.84161555967546
      vertex 18.090169943749473 -36.56512370482913 35.510565162951536
      vertex 16 -36.930165883359535 35.84161555967546
    endloop
  endfacet
  facet normal -0.7071067811865476 0 -0.7071067811865476
    outer loop
      vertex 20.877852522924734 -35.37507543632379 34.09016994374947
      vertex 23.090169943749473 -35.400199758917985 31.877852522924734
      vertex 20.877852522924734 -35.97775400775236 34.09016994374947
    endloop
  endfacet
  facet normal -0.7071067811865475 0 -0.7071067811865475
    outer loop
      vertex 23.090169943749473 -34.79752118748941 31.877852522924734
      vertex 23.090169943749473 -35.400199758917985 31.877852522924734
      vertex 20.877852522924734 -35.37507543632379 34.09016994374947
    endloop
  endfacet
  facet normal -0.8910065241883679 0 -0.4539904997395469
    outer loop
      vertex 23.090169943749473 -35.400199758917985 31.877852522924734
      vertex 23.090169943749473 -34.79752118748941 31.877852522924734
      vertex 24.510565162951536 -34.888995992258984 29.090169943749473
    endloop
  endfacet
  facet normal -0.8910065241883678 0 -0.45399049973954686
    outer loop
      vertex 24.510565162951536 -34.286317420830414 29.090169943749473
      vertex 24.510565162951536 -34.888995992258984 29.090169943749473
      vertex 23.090169943749473 -34.79752118748941 31.877852522924734
    endloop
  endfacet
  facet normal -0.9876883405951378 0 -0.15643446504023073
    outer loop
      vertex 24.510565162951536 -34.888995992258984 29.090169943749473
      vertex 24.510565162951536 -34.286317420830414 29.090169943749473
      vertex 25 -34.49418289422203 26
    endloop
  endfacet
  facet normal -0.45399049973954686 7.475959849460777e-17 -0.8910065241883678
    outer loop
      vertex 18.090169943749473 -35.96244513340056 35.510565162951536
      vertex 20.877852522924734 -35.37507543632379 34.09016994374947
      vertex 20.877852522924734 -35.97775400775236 34.09016994374947
    endloop
  endfacet
  facet normal -0.9876883405951378 0 0.15643446504023073
    outer loop
      vertex 24.510565162951536 -33.651728950239004 22.909830056250527
      vertex 24.510565162951536 -34.254407521667574 22.909830056250527
      vertex 25 -33.89150432279346 26
    endloop
  endfacet
  facet normal -0.8910065241883678 0 0.45399049973954686
    outer loop
      vertex 24.510565162951536 -34.254407521667574 22.909830056250527
      vertex 24.510565162951536 -33.651728950239004 22.909830056250527
      vertex 23.090169943749473 -34.19314075867451 20.122147477075266
    endloop
  endfacet
  facet normal -0.8910065241883678 0 0.45399049973954686
    outer loop
      vertex 23.090169943749473 -33.59046218724594 20.122147477075266
      vertex 23.090169943749473 -34.19314075867451 20.122147477075266
      vertex 24.510565162951536 -33.651728950239004 22.909830056250527
    endloop
  endfacet
  facet normal -0.9876883405951378 0 -0.15643446504023073
    outer loop
      vertex 25 -33.89150432279346 26
      vertex 25 -34.49418289422203 26
      vertex 24.510565162951536 -34.286317420830414 29.090169943749473
    endloop
  endfacet
  facet normal -0.9876883405951378 0 0.15643446504023073
    outer loop
      vertex 25 -34.49418289422203 26
      vertex 25 -33.89150432279346 26
      vertex 24.510565162951536 -34.254407521667574 22.909830056250527
    endloop
  endfacet
  facet normal -0.7071067811865475 -2.915685132460346e-17 0.7071067811865476
    outer loop
      vertex 20.877852522924734 -34.316379822875234 17.909830056250527
      vertex 23.090169943749473 -34.19314075867451 20.122147477075266
      vertex 23.090169943749473 -33.59046218724594 20.122147477075266
    endloop
  endfacet
  facet normal -0.7071067811865476 0 0.7071067811865476
    outer loop
      vertex 20.877852522924734 -33.713701251446665 17.909830056250527
      vertex 20.877852522924734 -34.316379822875234 17.909830056250527
      vertex 23.090169943749473 -33.59046218724594 20.122147477075266
    endloop
  endfacet
  facet normal -0.4539904997395469 0 0.8910065241883679
    outer loop
      vertex 18.090169943749473 -34.612061216008726 16.489434837048464
      vertex 20.877852522924734 -33.713701251446665 17.909830056250527
      vertex 18.090169943749473 -34.00938264458015 16.489434837048464
    endloop
  endfacet
  facet normal -0.45399049973954686 7.475959849460777e-17 -0.8910065241883678
    outer loop
      vertex 18.090169943749473 36.56512370482913 35.510565162951536
      vertex 20.877852522924734 35.97775400775236 34.09016994374947
      vertex 20.877852522924734 35.37507543632379 34.09016994374947
    endloop
  endfacet
  facet normal -0.9876883405951378 0 -0.15643446504023073
    outer loop
      vertex 24.510565162951536 34.888995992258984 29.090169943749473
      vertex 25 33.89150432279346 26
      vertex 24.510565162951536 34.286317420830414 29.090169943749473
    endloop
  endfacet
  facet normal -0.8910065241883678 0 -0.45399049973954686
    outer loop
      vertex 24.510565162951536 34.286317420830414 29.090169943749473
      vertex 23.090169943749473 35.400199758917985 31.877852522924734
      vertex 24.510565162951536 34.888995992258984 29.090169943749473
    endloop
  endfacet
  facet normal -0.8910065241883679 0 -0.4539904997395469
    outer loop
      vertex 23.090169943749473 35.400199758917985 31.877852522924734
      vertex 24.510565162951536 34.286317420830414 29.090169943749473
      vertex 23.090169943749473 34.79752118748941 31.877852522924734
    endloop
  endfacet
  facet normal -0.7071067811865475 0 -0.7071067811865475
    outer loop
      vertex 23.090169943749473 35.400199758917985 31.877852522924734
      vertex 23.090169943749473 34.79752118748941 31.877852522924734
      vertex 20.877852522924734 35.37507543632379 34.09016994374947
    endloop
  endfacet
  facet normal -0.7071067811865476 0 -0.7071067811865476
    outer loop
      vertex 20.877852522924734 35.37507543632379 34.09016994374947
      vertex 20.877852522924734 35.97775400775236 34.09016994374947
      vertex 23.090169943749473 35.400199758917985 31.877852522924734
    endloop
  endfacet
  facet normal -0.15643446504022923 0 -0.9876883405951379
    outer loop
      vertex 18.090169943749473 36.56512370482913 35.510565162951536
      vertex 18.090169943749473 35.96244513340056 35.510565162951536
      vertex 16 36.327487311930966 35.84161555967546
    endloop
  endfacet
  facet normal -0.15643446504022923 0 -0.9876883405951379
    outer loop
      vertex 16 36.327487311930966 35.84161555967546
      vertex 16 36.930165883359535 35.84161555967546
      vertex 18.090169943749473 36.56512370482913 35.510565162951536
    endloop
  endfacet
  facet normal -0.4539904997395469 0 -0.8910065241883679
    outer loop
      vertex 18.090169943749473 36.56512370482913 35.510565162951536
      vertex 20.877852522924734 35.37507543632379 34.09016994374947
      vertex 18.090169943749473 35.96244513340056 35.510565162951536
    endloop
  endfacet
  facet normal -0.45399049973954686 0 0.8910065241883678
    outer loop
      vertex 20.877852522924734 -33.713701251446665 17.909830056250527
      vertex 18.090169943749473 -34.612061216008726 16.489434837048464
      vertex 20.877852522924734 -34.316379822875234 17.909830056250527
    endloop
  endfacet
  facet normal -0.1564344650402309 0 0.9876883405951377
    outer loop
      vertex 18.090169943749473 -34.00938264458015 16.489434837048464
      vertex 16 -34.90911983092618 16.158384440324536
      vertex 18.090169943749473 -34.612061216008726 16.489434837048464
    endloop
  endfacet
  facet normal -0.15643446504023112 1.7457180847164527e-15 0.9876883405951378
    outer loop
      vertex 16 -34.30644125949761 16.158384440324536
      vertex 15 -34.73447270253261 16
      vertex 18.090169943749473 -34.00938264458015 16.489434837048464
    endloop
  endfacet
  facet normal -0.1564344650402305 -8.248401903823471e-16 0.9876883405951378
    outer loop
      vertex 15 -34.73447270253261 16
      vertex 16 -34.90911983092618 16.158384440324536
      vertex 18.090169943749473 -34.00938264458015 16.489434837048464
    endloop
  endfacet
  facet normal 0.8910065241883683 0 0.45399049973954597
    outer loop
      vertex 5.489434837048465 33.9376386410185 22.909830056250527
      vertex 5.489434837048465 33.33496006958993 22.909830056250527
      vertex 6.9098300562505255 33.87637187802544 20.122147477075266
    endloop
  endfacet
  facet normal 0.9876883405951378 0 0.15643446504023115
    outer loop
      vertex 5.489434837048465 33.33496006958993 22.909830056250527
      vertex 5.489434837048465 33.9376386410185 22.909830056250527
      vertex 5.108117134985396 33.521768582496684 25.317375275223633
    endloop
  endfacet
  facet normal 0.9876883405951379 0 -0.15643446504023042
    outer loop
      vertex 5 33.54437654685589 26
      vertex 5 34.17741401357295 26
      vertex 5.072028295410941 33.63283860993074 26.45476875925029
    endloop
  endfacet
  facet normal 0.9876883405951375 2.9814629826374957e-15 0.15643446504023165
    outer loop
      vertex 5.108117134985396 33.521768582496684 25.317375275223633
      vertex 5.489434837048465 33.9376386410185 22.909830056250527
      vertex 5 33.54437654685589 26
    endloop
  endfacet
  facet normal 0.9876883405951377 0 0.15643446504023129
    outer loop
      vertex 5 33.54437654685589 26
      vertex 5.489434837048465 33.9376386410185 22.909830056250527
      vertex 5 34.17741401357295 26
    endloop
  endfacet
  facet normal 0.9876883405951377 -7.856687637337117e-16 -0.15643446504023134
    outer loop
      vertex 5.072028295410941 33.63283860993074 26.45476875925029
      vertex 5 34.17741401357295 26
      vertex 5.489434837048465 33.969548540181336 29.090169943749473
    endloop
  endfacet
  facet normal -0.1564344650402338 0 -0.9876883405951372
    outer loop
      vertex 15 36.18536555967546 36
      vertex 15 36.78804413110403 36
      vertex 16 36.327487311930966 35.84161555967546
    endloop
  endfacet
  facet normal 0.15643446504023065 0 -0.9876883405951378
    outer loop
      vertex 15 36.78804413110403 36
      vertex 15 36.18536555967546 36
      vertex 11.909830056250525 36.24835482418006 35.510565162951536
    endloop
  endfacet
  facet normal 0.15643446504023062 4.702665659269444e-17 -0.9876883405951378
    outer loop
      vertex 15 36.18536555967546 36
      vertex 11.909830056250525 35.645676252751485 35.510565162951536
      vertex 11.909830056250525 36.24835482418006 35.510565162951536
    endloop
  endfacet
  facet normal 0.4539904997395473 0 0.8910065241883677
    outer loop
      vertex 9.122147477075268 33.396932370797586 17.909830056250527
      vertex 11.909830056250525 34.295292335359655 16.489434837048464
      vertex 9.122147477075268 33.99961094222616 17.909830056250527
    endloop
  endfacet
  facet normal 0.4539904997395473 0 0.8910065241883677
    outer loop
      vertex 11.909830056250525 34.295292335359655 16.489434837048464
      vertex 9.122147477075268 33.396932370797586 17.909830056250527
      vertex 11.909830056250525 33.69261376393108 16.489434837048464
    endloop
  endfacet
  facet normal 0.4539904997395473 0 -0.8910065241883677
    outer loop
      vertex 11.909830056250525 35.645676252751485 35.510565162951536
      vertex 9.122147477075268 35.66098512710328 34.09016994374947
      vertex 11.909830056250525 36.24835482418006 35.510565162951536
    endloop
  endfacet
  facet normal 0.4539904997395473 0 -0.8910065241883676
    outer loop
      vertex 9.122147477075268 35.05830655567471 34.09016994374947
      vertex 9.122147477075268 35.66098512710328 34.09016994374947
      vertex 11.909830056250525 35.645676252751485 35.510565162951536
    endloop
  endfacet
  facet normal 0.7071067811865469 0 -0.7071067811865481
    outer loop
      vertex 9.122147477075268 35.66098512710328 34.09016994374947
      vertex 9.122147477075268 35.05830655567471 34.09016994374947
      vertex 6.9098300562505255 35.08343087826891 31.877852522924734
    endloop
  endfacet
  facet normal 0.707106781186547 0 -0.707106781186548
    outer loop
      vertex 6.9098300562505255 34.48075230684034 31.877852522924734
      vertex 6.9098300562505255 35.08343087826891 31.877852522924734
      vertex 9.122147477075268 35.05830655567471 34.09016994374947
    endloop
  endfacet
  facet normal 0.8910065241883683 0 -0.45399049973954597
    outer loop
      vertex 6.9098300562505255 35.08343087826891 31.877852522924734
      vertex 6.9098300562505255 34.48075230684034 31.877852522924734
      vertex 5.489434837048465 34.57222711160991 29.090169943749473
    endloop
  endfacet
  facet normal 0.707106781186547 0 0.707106781186548
    outer loop
      vertex 9.122147477075268 33.396932370797586 17.909830056250527
      vertex 9.122147477075268 33.99961094222616 17.909830056250527
      vertex 6.9098300562505255 33.27369330659687 20.122147477075266
    endloop
  endfacet
  facet normal 0.7071067811865469 0 0.7071067811865481
    outer loop
      vertex 6.9098300562505255 33.27369330659687 20.122147477075266
      vertex 9.122147477075268 33.99961094222616 17.909830056250527
      vertex 6.9098300562505255 33.87637187802544 20.122147477075266
    endloop
  endfacet
  facet normal 0.15643446504023062 0 0.9876883405951378
    outer loop
      vertex 11.909830056250525 34.295292335359655 16.489434837048464
      vertex 11.909830056250525 33.69261376393108 16.489434837048464
      vertex 15 34.73447270253261 16
    endloop
  endfacet
  facet normal 0.8910065241883683 0 -0.45399049973954597
    outer loop
      vertex 5.489434837048465 33.969548540181336 29.090169943749473
      vertex 5.489434837048465 34.57222711160991 29.090169943749473
      vertex 6.9098300562505255 34.48075230684034 31.877852522924734
    endloop
  endfacet
  facet normal 0.9876883405951377 0 -0.15643446504023129
    outer loop
      vertex 5.489434837048465 34.57222711160991 29.090169943749473
      vertex 5.489434837048465 33.969548540181336 29.090169943749473
      vertex 5 34.17741401357295 26
    endloop
  endfacet
  facet normal 0.15643446504023062 0 0.9876883405951378
    outer loop
      vertex 15 34.73447270253261 16
      vertex 11.909830056250525 33.69261376393108 16.489434837048464
      vertex 15 34.13179413110403 16
    endloop
  endfacet
  facet normal -0.1564344650402304 0 0.9876883405951378
    outer loop
      vertex 15 34.73447270253261 16
      vertex 15 34.13179413110403 16
      vertex 16 34.30644125949761 16.158384440324536
    endloop
  endfacet
  facet normal 0.7071067811865469 0 -0.7071067811865481
    outer loop
      vertex 9.122147477075268 -35.66098512710328 34.09016994374947
      vertex 6.9098300562505255 -34.48075230684034 31.877852522924734
      vertex 9.122147477075268 -35.05830655567471 34.09016994374947
    endloop
  endfacet
  facet normal -0.1564344650402338 0 -0.9876883405951372
    outer loop
      vertex 16 36.327487311930966 35.84161555967546
      vertex 15 36.78804413110403 36
      vertex 16 36.930165883359535 35.84161555967546
    endloop
  endfacet
  facet normal -0.1564344650402304 0 0.9876883405951378
    outer loop
      vertex 15 -34.13179413110403 16
      vertex 15 -34.73447270253261 16
      vertex 16 -34.30644125949761 16.158384440324536
    endloop
  endfacet
endsolid OpenSCAD_Model
